<svg enable-background="new 0 0 120 50" viewBox="0 0 120 50" xmlns="http://www.w3.org/2000/svg"><path d="m5.5 6.5h109" fill="none" stroke="#000" stroke-miterlimit="10"/><path d="m10.5 1.9c-.4.3-1.5 1.4-.7 3.1.9 2 2.3 4.7 2.7 5.4l1.9-.9z" fill="#fff"/><path d="m14.6 14c-.2-.1-.3-.1-.3-.2-.1-.2-.1-.4 0-.7.1-.4.2-.8-.1-1.4l-.7-1.3-1.2.6-.1-.2s-1.7-3.3-2.8-5.6c-1.1-2.4 1.1-3.8 1.1-3.8l.2-.1 5.9 11.7v.1s-.2 1.2-1.6 1c-.2 0-.3-.1-.4-.1zm-4.1-12.1c-.4.3-1.5 1.4-.7 3.1.9 2 2.3 4.7 2.7 5.4l1.9-.9z"/><path d="m13.5 9.9c-.6-.9-1.1-1.9-1.6-2.8-.3-.5-.6-.9-.8-1.4s-.4-1-.5-1.6c.4.4.7.9 1 1.3.3.5.5 1 .7 1.5.4 1 .8 2 1.2 3z"/><circle cx="11" cy="38" r="3"/><g fill="none" stroke="#000" stroke-miterlimit="10"><circle cx="111" cy="16" r="3"/><circle cx="67.5" cy="36.5" r="3"/><circle cx="77.5" cy="22.5" r="3"/><circle cx="46.5" cy="25.5" r="3"/><circle cx="31.5" cy="38.5" r="3"/><circle cx="100.5" cy="33.5" r="3"/><circle cx="6.5" cy="26.5" r="3"/></g></svg>