<svg xmlns="http://www.w3.org/2000/svg" xmlns:xlink="http://www.w3.org/1999/xlink" version="1.1" x="0px" y="0px" viewBox="0 0 66 82.5" enable-background="new 0 0 66 66" xml:space="preserve"><g><path d="M47.5,1.7c-1.7-1.2-4.1-0.8-5.3,1L3.1,59.1c-1.2,1.7-0.8,4.1,1,5.3c1.7,1.2,4.1,0.7,5.3-1L48.5,6.9   C49.7,5.2,49.2,2.9,47.5,1.7z"/><path d="M57.9,10.3c-3.5,1.2-7.6,1.7-10.7,2l-11.8,17c0.8,2.7,1.6,6.4,1.8,9.9C48.2,35,55.9,24.2,57.9,10.3z"/><path d="M62.9,9.4c-0.1-0.3-0.3-0.6-0.6-0.7c-0.3-0.1-0.6-0.1-0.9,0C61,9,60.5,9.2,60,9.5C58.2,25,49.6,36.9,37.2,41.3   c0,0.9-0.1,1.8-0.3,2.6c-0.1,0.3,0,0.6,0.3,0.9c0.2,0.3,0.6,0.3,0.9,0.3C56.6,41.9,66.4,27.7,62.9,9.4z"/><path d="M29.1,18l5.3-7.7l-7.3-2.2c-0.4-0.1-0.9,0-1.1,0.4l-1.5,2.2c-0.3,0.4-0.2,0.8,0,1.2L29.1,18z"/></g><text x="0" y="81" fill="#000000" font-size="5px" font-weight="bold" font-family="'Helvetica Neue', Helvetica, Arial-Unicode, Arial, Sans-serif">Created by ProSymbols</text><text x="0" y="86" fill="#000000" font-size="5px" font-weight="bold" font-family="'Helvetica Neue', Helvetica, Arial-Unicode, Arial, Sans-serif">from the Noun Project</text></svg>