<svg xmlns="http://www.w3.org/2000/svg" xmlns:xlink="http://www.w3.org/1999/xlink" version="1.1" x="0px" y="0px" viewBox="0 0 100 125" enable-background="new 0 0 100 100" xml:space="preserve"><path d="M78.207,71.793c-0.771-0.771-1.848-1.05-2.844-0.844L59.755,55.344L30.464,21.615c-2.392-2.755-6.612-2.882-9.171-0.323  c-2.576,2.576-2.415,6.793,0.323,9.171l33.678,29.243L70.95,75.361c-0.206,0.996,0.073,2.074,0.844,2.845  c1.218,1.218,3.197,1.217,4.414,0l2-2C79.424,74.99,79.424,73.01,78.207,71.793z M73.586,72L72,73.586L57.412,59.002L59,57.414  L73.586,72z M54.848,52.739l-2.106,2.106l-1.162-1.01l2.259-2.259L54.848,52.739z M22.707,22.707  c1.798-1.796,4.654-1.614,6.247,0.219l23.569,27.136l-2.458,2.458L22.927,28.954C21.054,27.327,20.952,24.46,22.707,22.707z   M54.254,56.16l1.907-1.907l1.474,1.698l-1.684,1.684L54.254,56.16z M76.793,74.793l-2,2c-0.438,0.438-1.148,0.438-1.586,0  s-0.438-1.148,0-1.586l2-2c0.438-0.438,1.148-0.438,1.586,0S77.23,74.355,76.793,74.793z"/><text x="0" y="115" fill="#000000" font-size="5px" font-weight="bold" font-family="'Helvetica Neue', Helvetica, Arial-Unicode, Arial, Sans-serif">Created by Setyo Ari Wibowo</text><text x="0" y="120" fill="#000000" font-size="5px" font-weight="bold" font-family="'Helvetica Neue', Helvetica, Arial-Unicode, Arial, Sans-serif">from the Noun Project</text></svg>