<svg enable-background="new 0 0 100 125" viewBox="0 0 100 125" xmlns="http://www.w3.org/2000/svg"><path d="m71.9 75h3.3v30.7h-3.3z" transform="matrix(.7954 -.606 .606 .7954 -39.7225 63.0747)"/><path d="m28.2 20.2 29.4 44.8-4.1 3.1-35.4-40.2c-2.4-2.8-2-7 .9-9.3 3-2.3 7.2-1.4 9.2 1.6z"/><path d="m84.2 101.5-18.6-24.4-2.7 2 18.6 24.4zm.9 7.3 3.3-2.6c.7-.6.9-1.6.3-2.3-.5-.7-1.6-.9-2.3-.3l-3.3 2.6c-.7.6-.9 1.6-.3 2.3.5.8 1.5.9 2.3.3zm-31.7-40.7 4.1-3.1-29.3-44.8c-2-3-6.2-3.9-9.2-1.6-2.9 2.2-3.4 6.5-.9 9.3zm8.7 3.8-3.2 2.4 2.2 2.5 2.8-2.1zm-31.5-53.4 36.5 55.6 19.9 26.2c1.5-.1 3 .5 4 1.8 1.6 2 1.2 5-.9 6.5l-3.4 2.6c-2 1.5-5 1.2-6.5-.9-1-1.3-1.2-2.9-.7-4.4l-20-26.2-43.7-49.9c-3.6-4-3-10.3 1.4-13.6 4.3-3.2 10.5-2.2 13.4 2.3zm26.3 53.5 3.5-2.7-1.3-1.9-3.8 2.9z" fill="#fff"/></svg>