<svg xmlns="http://www.w3.org/2000/svg" xmlns:xlink="http://www.w3.org/1999/xlink" version="1.1" x="0px" y="0px" viewBox="0 0 100 125" enable-background="new 0 0 100 100" xml:space="preserve"><path d="M46.266,54.172L42.757,52.1v2.479v1.596c0,4.698-1.768,9.277-3.329,13.318  c-1.347,3.485-2.506,6.488-2.506,9.248c0,6.628,5.393,12.021,12.023,12.021c6.629,0,12.022-5.393,12.022-12.021  C60.967,72.764,53.846,58.648,46.266,54.172z M49.587,87.791c-5.354,0-9.694-4.339-9.694-9.694c0-2.474,1.245-5.544,2.584-9.021  c-0.754,2.56-1.297,4.874-1.297,6.867c0,6.305,4.033,11.446,9.117,11.814C50.061,87.773,49.827,87.791,49.587,87.791z"/><path d="M57.818,29.666l-2.748-1.623v1.942v1.25c0,3.68-1.385,7.266-2.608,10.433  c-1.055,2.73-1.963,5.082-1.963,7.244c0,5.192,4.225,9.417,9.417,9.417c5.193,0,9.417-4.225,9.417-9.417  C69.333,44.23,63.756,33.173,57.818,29.666z M60.419,56.001c-4.194,0-7.594-3.399-7.594-7.593c0-1.938,0.976-4.343,2.024-7.067  c-0.591,2.005-1.016,3.818-1.016,5.379c0,4.939,3.159,8.966,7.141,9.254C60.791,55.987,60.607,56.001,60.419,56.001z"/><path d="M37.84,11.019l-2.748-1.623v1.942v1.25c0,3.68-1.385,7.266-2.608,10.433  c-1.055,2.73-1.963,5.082-1.963,7.244c0,5.192,4.225,9.417,9.417,9.417c5.193,0,9.417-4.225,9.417-9.417  C49.355,25.582,43.777,14.525,37.84,11.019z M40.441,37.353c-4.194,0-7.594-3.399-7.594-7.593c0-1.938,0.976-4.343,2.024-7.067  c-0.591,2.005-1.016,3.818-1.016,5.379c0,4.939,3.159,8.966,7.141,9.254C40.813,37.339,40.629,37.353,40.441,37.353z"/><text x="0" y="115" fill="#000000" font-size="5px" font-weight="bold" font-family="'Helvetica Neue', Helvetica, Arial-Unicode, Arial, Sans-serif">Created by Elena Rimeikaite</text><text x="0" y="120" fill="#000000" font-size="5px" font-weight="bold" font-family="'Helvetica Neue', Helvetica, Arial-Unicode, Arial, Sans-serif">from the Noun Project</text></svg>