<svg enable-background="new 0 0 100 125" viewBox="0 0 100 125" xmlns="http://www.w3.org/2000/svg"><g fill="#fff" stroke="#000" stroke-miterlimit="10"><path d="m47.3 68.6-4.6-2.7v3.3 2.1c0 6.2-2.3 12.3-4.4 17.6-1.8 4.5-3.3 8.5-3.3 12.1 0 8.8 7.1 15.9 15.9 15.9s15.9-7.1 15.9-15.9c-.1-7.9-9.5-26.5-19.5-32.4zm4.4 44.4c-7.1 0-12.8-5.7-12.8-12.8 0-3.3 1.6-7.3 3.4-11.9-1 3.4-1.7 6.4-1.7 9.1 0 8.3 5.3 15.1 12 15.6-.3-.1-.6 0-.9 0z"/><path d="m62.6 36.2-3.6-2.2v2.6 1.7c0 4.9-1.8 9.6-3.4 13.8-1.4 3.6-2.6 6.7-2.6 9.6 0 6.9 5.6 12.4 12.4 12.4 6.9 0 12.4-5.6 12.4-12.4 0-6.3-7.4-20.9-15.2-25.5zm3.4 34.8c-5.5 0-10-4.5-10-10 0-2.6 1.3-5.7 2.7-9.3-.8 2.6-1.3 5-1.3 7.1 0 6.5 4.2 11.8 9.4 12.2-.3-.1-.5 0-.8 0z"/><path d="m36.2 11.5-3.6-2.1v2.6 1.7c0 4.9-1.8 9.6-3.4 13.8-1.4 3.6-2.6 6.7-2.6 9.6 0 6.9 5.6 12.4 12.4 12.4 6.9 0 12.4-5.6 12.4-12.4 0-6.3-7.4-20.9-15.2-25.6zm3.4 34.8c-5.5 0-10-4.5-10-10 0-2.6 1.3-5.7 2.7-9.3-.8 2.6-1.3 5-1.3 7.1 0 6.5 4.2 11.8 9.4 12.2-.3 0-.5 0-.8 0z"/></g></svg>