<svg xmlns="http://www.w3.org/2000/svg" xmlns:xlink="http://www.w3.org/1999/xlink" version="1.1" x="0px" y="0px" viewBox="0 0 32 40" enable-background="new 0 0 32 32" xml:space="preserve"><g><path d="M10,14h12h1h2V4c0-1.7-1.3-3-3-3H10C8.3,1,7,2.3,7,4v10h2H10z"/><path d="M28,15h-2h-1H7H6H4c-0.5,0-1,0.5-1,1v4c0,0.5,0.5,1,1,1h2.5H8l1.8,1l3.2,1.8l1,0.6L13,25l-7.5,4.2C5,29.4,4.9,30,5.1,30.5   C5.3,30.8,5.7,31,6,31c0.2,0,0.3,0,0.5-0.1l8.5-4.8l1-0.6l1,0.6l8.4,4.7C25.7,31,25.8,31,26,31c0.3,0,0.7-0.2,0.9-0.5   c0.3-0.5,0.1-1.1-0.4-1.4L19.1,25l-1-0.6l1-0.6l3.3-1.8l1.8-1h1.5H28c0.5,0,1-0.5,1-1v-4C29,15.5,28.5,15,28,15z M18.3,22l-1.2,0.7   l-1,0.6l-1-0.6L13.8,22l-1.8-1h2h4h2.1L18.3,22z"/></g><text x="0" y="47" fill="#000000" font-size="5px" font-weight="bold" font-family="'Helvetica Neue', Helvetica, Arial-Unicode, Arial, Sans-serif">Created by Icon Lauk</text><text x="0" y="52" fill="#000000" font-size="5px" font-weight="bold" font-family="'Helvetica Neue', Helvetica, Arial-Unicode, Arial, Sans-serif">from the Noun Project</text></svg>