<svg xmlns="http://www.w3.org/2000/svg" xmlns:xlink="http://www.w3.org/1999/xlink" xml:space="preserve" style="shape-rendering:geometricPrecision;text-rendering:geometricPrecision;image-rendering:optimizeQuality;" viewBox="0 0 6.82666 8.533325000000001" x="0px" y="0px" fill-rule="evenodd" clip-rule="evenodd"><defs><style type="text/css">
   
    .fil2 {fill:none}
    .fil1 {fill:black}
    .fil0 {fill:black;fill-rule:nonzero}
   
  </style></defs><g><path class="fil0" d="M2.74696 5.83359c-0.00187795,0.000681102 -0.651264,0.252654 -1.17443,-1.08705 -0.0407953,-0.104484 -0.0588543,-0.131433 -0.110717,-0.208819 -0.0138937,-0.0207441 -0.0127402,-0.0188386 -0.0224646,-0.0334567 -0.470811,-0.707567 -0.360976,-1.41593 -0.0309173,-1.9116 0.141283,-0.212165 0.323217,-0.385421 0.517476,-0.503008 0.197909,-0.119795 0.409945,-0.182567 0.607209,-0.171256 0.293551,0.0168386 0.550134,0.192642 0.67813,0.58024l3.93701e-006 0c0.11237,0.31711 -0.0497953,0.548957 -0.221795,0.794854 -0.240402,0.343693 -0.503008,0.71913 0.158898,1.43029l0.015 0.023122c0.000992126,0.0023189 0.354059,0.805283 -0.416398,1.08668zm-1.02568 -1.14517c0.465929,1.19314 0.969839,0.995701 0.971299,0.995173 0.561594,-0.20511 0.364445,-0.771665 0.328909,-0.861949 -0.73674,-0.79837 -0.437157,-1.22695 -0.162654,-1.61939 0.147689,-0.211142 0.286933,-0.410217 0.201795,-0.650476l-0.000625984 -0.00187402c-0.103839,-0.316028 -0.306134,-0.458953 -0.535634,-0.472114 -0.16437,-0.0094252 -0.344685,0.0450827 -0.515957,0.148752 -0.174929,0.105886 -0.339055,0.262339 -0.466854,0.45426 -0.298866,0.448823 -0.397512,1.09147 0.0309173,1.73535l0.0218425 0.0328346c0.0594843,0.0887638 0.0801969,0.119665 0.126961,0.239441z"/><path class="fil0" d="M2.62328 1.13255c-0.0340591,0 -0.0680669,0.0282165 -0.0955039,0.0738307 -0.034811,0.0578701 -0.0563425,0.139654 -0.0563425,0.231614 0,0.0919606 0.0215315,0.173744 0.0563425,0.231614 0.027437,0.0456142 0.0614449,0.0738307 0.0955039,0.0738307 0.034063,0 0.0680669,-0.0282165 0.0955039,-0.0738307 0.034811,-0.0578701 0.0563425,-0.139654 0.0563425,-0.231614 0,-0.0919606 -0.0215315,-0.173744 -0.0563425,-0.231614 -0.027437,-0.0456142 -0.0614409,-0.0738307 -0.0955039,-0.0738307zm-0.232378 -0.00804331c0.0564724,-0.0938858 0.138394,-0.151957 0.232378,-0.151957 0.0939843,0 0.175906,0.0580709 0.232378,0.151957 0.0490984,0.081626 0.0794685,0.192583 0.0794685,0.313488 0,0.120906 -0.0303701,0.231862 -0.0794685,0.313488 -0.0564724,0.0938858 -0.138394,0.151957 -0.232378,0.151957 -0.0939843,0 -0.175906,-0.0580709 -0.232378,-0.151957 -0.0490984,-0.081626 -0.0794685,-0.192583 -0.0794685,-0.313488 0,-0.120906 0.0303701,-0.231862 0.0794685,-0.313488z"/><path class="fil0" d="M2.02121 1.38394c-0.0163898,0 -0.0343976,0.0163071 -0.050252,0.0426693 -0.0232283,0.0386181 -0.0375984,0.0937992 -0.0375984,0.156378 0,0.0625787 0.014374,0.117764 0.0375984,0.156378 0.0158543,0.0263622 0.0338622,0.0426693 0.050252,0.0426693 0.0163898,0 0.0343937,-0.0163071 0.050248,-0.0426654 0.0232283,-0.0386181 0.0375984,-0.0937992 0.0375984,-0.156382 0,-0.0625827 -0.0143701,-0.117764 -0.0375984,-0.156382 -0.0158543,-0.0263583 -0.0338583,-0.0426654 -0.050248,-0.0426654zm-0.187126 -0.0392047c0.0448898,-0.0746339 0.110819,-0.120795 0.187126,-0.120795 0.0763071,0 0.142232,0.0461654 0.187122,0.120791 0.0375157,0.062374 0.0607244,0.146724 0.0607244,0.238256 0,0.0915315 -0.0232087,0.175882 -0.0607244,0.238256 -0.0448898,0.074626 -0.110815,0.120791 -0.187122,0.120791 -0.0763071,0 -0.142236,-0.0461614 -0.187126,-0.120795 -0.0375157,-0.0623701 -0.0607244,-0.146724 -0.0607244,-0.238252 0,-0.0915276 0.0232087,-0.175882 0.0607244,-0.238252z"/><path class="fil0" d="M1.59369 1.78062c-0.00931496,0 -0.0209213,0.0115433 -0.0321457,0.0302008 -0.0185945,0.0309134 -0.0300984,0.0754528 -0.0300984,0.12628 0,0.0508268 0.0115039,0.0953661 0.0300984,0.12628 0.0112205,0.0186535 0.0228268,0.0302008 0.0321457,0.0302008 0.0093189,0 0.0209252,-0.0115472 0.0321457,-0.0302008 0.0185945,-0.0309134 0.0300984,-0.0754528 0.0300984,-0.12628 0,-0.0508268 -0.0115039,-0.0953661 -0.0300984,-0.12628 -0.0112205,-0.0186535 -0.0228268,-0.0302008 -0.0321457,-0.0302008zm-0.16902 -0.0516732c0.0402598,-0.0669291 0.0997795,-0.108327 0.16902,-0.108327 0.0692362,0 0.12876,0.0413976 0.16902,0.108327 0.0328819,0.0546693 0.0532244,0.128378 0.0532244,0.208154 0,0.0797756 -0.0203425,0.153484 -0.0532244,0.208154 -0.040252,0.0669252 -0.0997835,0.108327 -0.16902,0.108327 -0.0692362,0 -0.128768,-0.0414016 -0.16902,-0.108327 -0.0328819,-0.0546693 -0.0532244,-0.128378 -0.0532244,-0.208154 0,-0.0797756 0.0203425,-0.153484 0.0532244,-0.208154z"/><path class="fil0" d="M1.26465 2.23067c-0.00214173,0 0.000909449,0.0038189 -0.00279921,0.00998819 -0.0110827,0.0184252 -0.0179409,0.0457126 -0.0179409,0.0774843 0,0.0317638 0.00685827,0.0590512 0.0179449,0.0774803 0.00370866,0.00616929 0.000653543,0.00998819 0.00279528,0.00998819 0.0021378,0 -0.000917323,-0.00382283 0.00279134,-0.00998819 0.0110827,-0.0184252 0.0179409,-0.0457126 0.0179409,-0.0774803 0,-0.0317717 -0.00685827,-0.0590591 -0.0179409,-0.0774843 -0.00370866,-0.00616535 -0.000649606,-0.00998819 -0.00279134,-0.00998819zm-0.139673 -0.0718858c0.032748,-0.054437 0.0818937,-0.0881142 0.139673,-0.0881142 0.0577795,0 0.106921,0.0336732 0.139665,0.0881142 0.0253701,0.0421811 0.0410669,0.0986378 0.0410669,0.159358 0,0.0607165 -0.0156969,0.117173 -0.0410669,0.159354 -0.0327441,0.0544409 -0.0818976,0.0881142 -0.139665,0.0881142 -0.0577795,0 -0.106929,-0.0336772 -0.139669,-0.0881142 -0.025374,-0.0421811 -0.0410709,-0.0986339 -0.0410709,-0.159354 0,-0.0607205 0.0156969,-0.117177 0.0410669,-0.159358z"/><path class="fil1" d="M1.0167 2.56656c-0.0460394,0 -0.0833661,0.0620472 -0.0833661,0.138591 0,0.0765472 0.0373268,0.138594 0.0833661,0.138594 0.0460433,0 0.0833661,-0.0620472 0.0833661,-0.138594 0,-0.0765433 -0.0373228,-0.138591 -0.0833661,-0.138591z"/><path class="fil0" d="M4.13408 5.68359c0.00146063,0.000527559 0.50537,0.197965 0.971299,-0.995173 0.0467638,-0.119776 0.0674764,-0.150677 0.126961,-0.239441l0.0218425 -0.0328346c0.428429,-0.643874 0.329783,-1.28652 0.0309173,-1.73535 -0.127799,-0.191921 -0.291925,-0.348374 -0.466854,-0.45426 -0.171272,-0.103669 -0.351587,-0.158177 -0.515957,-0.148752 -0.171067,0.00981102 -0.327004,0.0917402 -0.438335,0.263693l0.00726378 -0.00572047 0.0493701 -0.0388898 0.049378 0.0388898 0.438098 0.345087 0.030626 0.024126 0 0.038685 0 1.32507 0 0.08 -0.08 0 -0.131539 0c-0.0255906,0.0890906 -0.0663976,0.183701 -0.125984,0.28489 -0.0704961,0.119717 -0.167193,0.248547 -0.296067,0.38822 -0.0357165,0.0908346 -0.232256,0.65678 0.32898,0.86176zm1.12005 -0.937047c-0.523161,1.3397 -1.17255,1.08773 -1.17443,1.08705 -0.770457,-0.281394 -0.41739,-1.08436 -0.416398,-1.08668l0.015 -0.023122c0.126189,-0.135575 0.219205,-0.258461 0.285358,-0.370803 0.0645157,-0.109555 0.103567,-0.209154 0.12313,-0.300831l0.0135354 -0.063437 0.0645906 0 0.113772 0 0 -1.20638 -0.358098 -0.282075 -0.200413 0.157866 -0.1275 -0.079685c0.00262992,-0.012185 0.00590551,-0.0252953 0.00989764,-0.0394173 0.00384252,-0.0135945 0.00811417,-0.0270709 0.0128307,-0.0403858l3.93701e-006 0c0.127996,-0.387598 0.384579,-0.563402 0.67813,-0.58024 0.197264,-0.011311 0.409299,0.0514606 0.607209,0.171256 0.19426,0.117587 0.376193,0.290843 0.517476,0.503008 0.330059,0.495665 0.439894,1.20403 -0.0309173,1.9116 -0.00972441,0.0146181 -0.00857087,0.0127126 -0.0224646,0.0334567 -0.0518622,0.0773858 -0.0699213,0.104335 -0.110717,0.208819z"/><path class="fil0" d="M4.20338 0.972551c0.0939843,0 0.175906,0.0580709 0.232378,0.151957 0.0490984,0.081622 0.0794685,0.192579 0.0794685,0.313484 0,0.120913 -0.0303701,0.231866 -0.0794685,0.313492 -0.0564724,0.0938858 -0.138394,0.151957 -0.232378,0.151957 -0.0939843,0 -0.175906,-0.0580709 -0.232378,-0.151957 -0.0490984,-0.081626 -0.0794685,-0.192579 -0.0794685,-0.313492 0,-0.120906 0.0303701,-0.231858 0.0794685,-0.313484 0.0564724,-0.0938858 0.138394,-0.151957 0.232378,-0.151957zm0.0955039 0.233831c-0.027437,-0.0456142 -0.0614449,-0.0738307 -0.0955039,-0.0738307 -0.034063,0 -0.0680669,0.0282165 -0.0955039,0.0738307 -0.034811,0.0578701 -0.0563425,0.13965 -0.0563425,0.23161 0,0.0919646 0.0215315,0.173748 0.0563425,0.231618 0.027437,0.0456142 0.0614409,0.0738307 0.0955039,0.0738307 0.0340591,0 0.0680669,-0.0282165 0.0955039,-0.0738307 0.034811,-0.0578701 0.0563425,-0.139654 0.0563425,-0.231618 0,-0.0919567 -0.0215315,-0.17374 -0.0563425,-0.23161z"/><path class="fil0" d="M4.80545 1.22394c0.076311,0 0.142232,0.0461654 0.187126,0.120795 0.0375157,0.0623701 0.0607244,0.146724 0.0607244,0.238252 0,0.0915315 -0.0232087,0.175886 -0.0607244,0.238256 -0.0448898,0.0746339 -0.110819,0.120795 -0.187126,0.120795 -0.0763071,0 -0.142232,-0.0461614 -0.187122,-0.120795 -0.0375157,-0.0623701 -0.0607244,-0.146724 -0.0607244,-0.238256 0,-0.0915276 0.0232087,-0.175882 0.0607244,-0.238252 0.0448898,-0.0746339 0.110815,-0.120795 0.187122,-0.120795zm0.050252 0.202669c-0.0158543,-0.0263583 -0.0338622,-0.0426693 -0.050252,-0.0426693 -0.0163898,0 -0.0343937,0.0163071 -0.050248,0.0426693 -0.0232283,0.0386181 -0.0375984,0.0937992 -0.0375984,0.156378 0,0.0625827 0.014374,0.117768 0.0375984,0.156382 0.0158543,0.0263622 0.0338583,0.0426693 0.050248,0.0426693 0.0163898,0 0.0343976,-0.0163071 0.050252,-0.0426693 0.0232244,-0.0386142 0.0375984,-0.0937992 0.0375984,-0.156382 0,-0.0625787 -0.0143701,-0.11776 -0.0375984,-0.156378z"/><path class="fil0" d="M5.23298 1.62062c0.0692402,0 0.12876,0.0413976 0.16902,0.108327 0.0328819,0.0546693 0.0532244,0.128382 0.0532244,0.208157 0,0.0797717 -0.0203425,0.153484 -0.0532244,0.20815 -0.040252,0.0669252 -0.0997835,0.108327 -0.16902,0.108327 -0.0692402,0 -0.12876,-0.0414016 -0.169016,-0.108323 -0.0328819,-0.0546693 -0.0532244,-0.128378 -0.0532244,-0.208154 0,-0.0797756 0.0203425,-0.153488 0.0532244,-0.208157 0.040252,-0.0669252 0.0997795,-0.108327 0.169016,-0.108327zm0.0321457 0.190201c-0.0112244,-0.0186575 -0.0228307,-0.0302008 -0.0321457,-0.0302008 -0.0093189,0 -0.0209213,0.0115472 -0.0321417,0.0302008 -0.0185945,0.0309134 -0.0300984,0.0754567 -0.0300984,0.126283 0,0.0508268 0.0115039,0.0953661 0.0300984,0.12628 0.0112165,0.0186496 0.0228228,0.0301969 0.0321417,0.0301969 0.0093189,0 0.0209252,-0.0115472 0.0321457,-0.0302008 0.0185945,-0.0309094 0.0300984,-0.0754567 0.0300984,-0.126276 0,-0.0508268 -0.0115039,-0.0953701 -0.0300984,-0.126283z"/><path class="fil0" d="M5.56201 2.07067c0.0577795,0 0.106929,0.0336772 0.139669,0.0881142 0.025374,0.0421772 0.0410709,0.0986378 0.0410709,0.159358 0,0.0607205 -0.0156969,0.117173 -0.0410709,0.159354 -0.0327402,0.054437 -0.0818898,0.0881142 -0.139669,0.0881142 -0.0577677,0 -0.106921,-0.0336732 -0.139665,-0.0881142 -0.0253701,-0.0421811 -0.0410669,-0.0986378 -0.0410669,-0.159354 0,-0.0607205 0.0156969,-0.117177 0.0410669,-0.159358 0.0327441,-0.0544409 0.0818976,-0.0881142 0.139665,-0.0881142zm0.00279528 0.169988c-0.00370866,-0.00616929 -0.000653543,-0.00998819 -0.00279528,-0.00998819 -0.0021378,0 0.000917323,0.00382283 -0.00279134,0.00998819 -0.0110827,0.0184252 -0.0179409,0.0457126 -0.0179409,0.0774843 0,0.0317677 0.00685827,0.0590551 0.0179409,0.0774803 0.00370866,0.00616535 0.000653543,0.00998819 0.00279134,0.00998819 0.00214173,0 -0.000913386,-0.0038189 0.00279528,-0.00998819 0.0110866,-0.0184291 0.0179449,-0.0457165 0.0179449,-0.0774803 0,-0.0317638 -0.00685827,-0.0590551 -0.0179449,-0.0774843z"/><path class="fil1" d="M5.80996 2.56656c0.0460433,0 0.0833661,0.0620472 0.0833661,0.138591 0,0.0765472 -0.0373228,0.138594 -0.0833661,0.138594 -0.0460433,0 -0.0833661,-0.0620472 -0.0833661,-0.138594 0,-0.0765433 0.0373228,-0.138591 0.0833661,-0.138591z"/><path class="fil0" d="M3.43636 2.6783l0.434791 -0.342484 -6.69291e-005 -8.66142e-005c0.0308268,-0.0242795 0.0739449,-0.0222835 0.102362,0.00277953l0.434614 0.342343 -0.049374 0.062811 0.0495039 -0.0628465c0.0201575,0.015878 0.0306181,0.0394961 0.0304961,0.063311l0 1.3246c0,0.0441811 -0.0358189,0.08 -0.08,0.08l-0.876189 0c-0.0441811,0 -0.08,-0.0358189 -0.08,-0.08l0 -1.32507c0,-0.027 0.013378,-0.050874 0.0338622,-0.0653622zm0.484228 -0.17802l-0.358091 0.282067 0 1.20638 0.716189 0 0 -1.20638 -0.358098 -0.282071z"/><path class="fil0" d="M3.92059 2.66988c0.0324921,0 0.062126,0.0133425 0.0837756,0.0349331l0.00015748 -0.00015748 1.5748e-005 1.5748e-005 3.93701e-006 -3.93701e-006 0.000523622 0.000535433c0.0211654,0.0214409 0.0342283,0.0508937 0.0342283,0.0833858 0,0.0325591 -0.0132874,0.062126 -0.0347717,0.083622l-0.0343268 -0.0341378 -8.26772e-005 2.3622e-005 0.0344291 0.0344134 -0.000622047 0.000606299 -0.00076378 0.000748031 -0.000125984 0.000122047c-0.0213583,0.020622 -0.0504252,0.0333071 -0.0824409,0.0333071 -0.0327677,0 -0.0624488,-0.0132874 -0.0839331,-0.0347717l-3.93701e-006 3.93701e-006c-0.0024252,-0.0024252 -0.00466142,-0.00497244 -0.0067126,-0.00761417 -0.0175039,-0.0206693 -0.0280551,-0.0473071 -0.0280551,-0.0763228 0,-0.0327677 0.0132874,-0.0624488 0.0347717,-0.0839331l-3.93701e-006 -3.93701e-006c0.00255512,-0.00255512 0.00524409,-0.00489764 0.00803937,-0.00703543 0.0207126,-0.0173189 0.0471929,-0.0277362 0.0758976,-0.0277362zm0 0.118559l-7.48031e-005 7.48031e-005 6.69291e-005 6.69291e-005 7.87402e-006 -7.87402e-006 0 -0.000133858zm0 0.000133858l6.69291e-005 -6.69291e-005 -6.69291e-005 -6.69291e-005 0 0.000133858z"/></g><rect class="fil2" width="6.82666" height="6.82666"/><text x="0" y="21.82666" fill="#000000" font-size="5px" font-weight="bold" font-family="'Helvetica Neue', Helvetica, Arial-Unicode, Arial, Sans-serif">Created by IYIKON</text><text x="0" y="26.82666" fill="#000000" font-size="5px" font-weight="bold" font-family="'Helvetica Neue', Helvetica, Arial-Unicode, Arial, Sans-serif">from the Noun Project</text></svg>