<svg xmlns="http://www.w3.org/2000/svg" xmlns:xlink="http://www.w3.org/1999/xlink" version="1.1" x="0px" y="0px" viewBox="0 0 100 125" enable-background="new 0 0 100 100" xml:space="preserve"><g><path d="M72.972,10.403c-2.906,2.604,1.125,7.127,4.03,4.521C79.908,12.314,75.876,7.796,72.972,10.403z"/><path d="M72.972,10.403C74.216,9.287,71.726,11.52,72.972,10.403L72.972,10.403z"/><path d="M67.227,13.696c1.167-1.044,2.385-1.993,3.569-3.004c0.942-0.803,1.284-2.198,2.257-2.902   c0.987-0.714,2.347-0.657,3.2-1.615c0.901-1.012,0.688-2.445,1.062-3.66C77.307,2.54,77.299,2.568,77.318,2.5   c0.019-0.056,0.038-0.114,0.056-0.172c-0.769,0.912-0.754,2.266-1.568,3.135c-0.834,0.887-2.232,0.811-3.204,1.488   c-0.43,0.31-0.754,0.712-1.022,1.173c-0.593,1.044-1.078,1.871-2,2.673C68.632,11.631,67.916,12.644,67.227,13.696z"/><path d="M79.949,10.142c1.65,0.236,3.021-0.781,4.178-1.837c0.002-0.003,0.004-0.003,0.008-0.007   c0.004-0.006,0.006-0.007,0.01-0.011c0.942-0.861,1.883-1.63,3.102-2.056c1.307-0.448,2.69-0.422,4.053-0.421   c-2.206-0.741-4.499-0.788-6.544,0.434c-1.283,0.766-2.305,2.123-3.804,2.491c-0.565,0.135-1.539,0.178-1.675-0.565   c-0.21-1.099,1.196-2.025,1.278-3.119c-0.74,1.109-2.33,1.591-2.41,3.112C78.157,9.227,78.893,9.987,79.949,10.142z"/><path d="M84.131,8.301c-0.002,0.002-0.002,0.003-0.004,0.004c-0.012,0.011-0.022,0.021-0.027,0.028   C84.108,8.325,84.117,8.312,84.131,8.301z"/><path d="M76.43,21.9c0.436,0.137,0.895,0.071,1.322-0.067c1.516-0.487,2.703-1.36,4.298-1.702c1.108-0.215,2.219-0.294,3.345-0.396   c-1.629-0.303-3.355-0.399-4.969,0.054c-1.025,0.289-2.568,1.474-3.494,1.284c-1.173-0.122-1.855-1.322-3.123-1.295   c-1.572,0.04-2.958,1.091-4.276,1.829c1.415-0.324,2.739-1.076,4.215-1.082c-0.002,0,0.017-0.001-0.006,0.002   C74.8,20.552,75.458,21.588,76.43,21.9z"/><path d="M84.596,12.031c-0.551-0.023-1.034-0.365-1.587-0.417c-1.969-0.213-2.428,2.556-3.519,3.57   c-0.883,0.842-2.115,0.924-3.258,1.086c-1.664,0.237-3.375,1.032-4.424,2.388c1.717-1.317,3.58-1.488,5.615-1.701   c1.069-0.111,2.099-0.499,2.85-1.283c-0.01,0.012-0.016,0.017,0.008-0.005c0.016-0.023,0.014-0.021,0.006-0.012   c0.798-0.938,1.063-2.509,2.14-3.173c0.599-0.287,1.118,0.001,1.743,0.061c1.308,0.14,2.018-1.026,3.132-1.456   C86.33,11.208,85.597,12.075,84.596,12.031z"/><path d="M22.434,89.033C22.516,89.033,21.707,89.012,22.434,89.033L22.434,89.033z"/><path d="M95.945,43.22c-0.377-0.885-0.387-1.194-1.452-1.243c-0.37-0.016-0.35-0.408-0.597-0.595   c-0.35-0.269-0.699-0.312-0.939-0.731c-0.45-0.794-0.643-1.824-0.579-2.731c0.061-0.829-0.312-1.358-0.433-2.153   c-0.132-0.875-0.778-1.521-0.654-2.447c0.107-0.795-0.463-1.438-1.312-1.28c-0.448,0.084-0.546,0.418-0.764-0.166   c-0.131-0.35,0.06-0.654,0.121-0.992c-2.288,1.229,2.175,4.15,1.523,5.821c-0.055,0.129-1.087-1.088-1.087-1.089   c-0.253-0.291-0.544-0.549-0.893-0.717c-0.23-0.115-0.486-0.05-0.655-0.288c-0.247-0.342-0.086-0.985-0.497-1.208   c-0.479-0.255-1.137,0.232-1.317,0.662c-0.497-0.201-0.117-0.836-0.234-1.173c-0.777,0.458-0.362,1.787,0.35,2.078   c0.623,0.259,1.386,0.325,1.973,0.624c0.374,0.188,2.541,1.672,1.575,2.127c0.015-0.007-0.709-0.595-0.778-0.641   c-0.444-0.311-0.986-0.358-1.501-0.471c-0.613-0.134-2.505-1.602-2.516,0.114c-0.346-0.058-1.384-0.41-1.203-0.931   c-0.384,1.11,1.339,1.852,2.041,2.263c1.082,0.634,2.393-0.622,3.54-0.031c0.682,0.348,0.388,0.526-0.083,0.869   c-0.452,0.326-0.719,0.844-0.921,1.351c-0.47,1.187-0.613,2.565-1.341,3.637c-0.753,1.115-2.116,1.739-3.241,0.783   c-1.92-1.635-2.632-3.846-3.894-5.934c-0.99-1.641-2.274-3.092-3.8-4.255c-4.702-3.586-10.977-4.188-16.532-2.522   c-1.213,0.362-2.438,0.998-3.7,1.136c-1.05,0.113-1.669-1.313-0.761-1.934c0.917-0.628,2.759-0.433,3.826-0.506   c1.343-0.09,2.449,0.232,3.649-0.549c0.004,0.239,0.008,0.511-0.121,0.727c0.417-0.252,0.605-0.706,0.937-1.037   c0.032,0.128,0.034,0.258,0.015,0.388c0.337-0.177,0.524-0.551,0.703-0.867c0.054,0.216,0.057,0.456,0.035,0.678   c0.276-0.345,0.45-0.771,0.41-1.218c0.154,0.216,0.307,0.434,0.459,0.649c0.113-0.439,0.097-0.914-0.015-1.352   c0.243,0.143,0.428,0.357,0.609,0.566c0.161-0.44-0.036-0.943-0.13-1.373c0.168,0.138,0.335,0.275,0.502,0.414   c-0.053-0.043-0.088-0.412-0.122-0.499c-0.076-0.182-0.184-0.361-0.332-0.493c-0.274-0.243-0.614-0.268-0.872-0.488   c-0.454-0.392-0.795-1.148-1.442-1.272c-0.43-0.082-0.805,0.348-1.043,0.641c-0.221-0.121-0.329-0.311-0.52-0.477   c-0.203-0.176-0.434-0.317-0.679-0.422c0.226,0.4,0.259,0.87,0.51,1.26c0.139,0.218,0.392,0.411,0.318,0.68   c-0.536-0.748-0.477,0.698-0.438,0.871c-0.477-1.083-0.493,0.566-0.537,0.605c-0.271-0.528-0.567-0.086-0.483,0.339   c-0.271,0.161-0.714-0.363-0.66,0.314c-0.211,0.078-0.402-0.162-0.557-0.016c-0.031,0.232-0.181,0.308-0.447,0.234   c-0.598,0.048-1.194-0.102-1.789-0.156c1.494-1.393,1.795-3.419,3.064-4.948c1.118-1.277,2.955-1.601,4.158-2.824   c1.438-1.459,2.842-2.883,4.985-3.167c-1.749,0.121-3.35,1.06-4.595,2.253c-0.532,0.511-1.043,1.012-1.683,1.381   c-0.917,0.488-1.993,0.749-2.823,1.386c-0.945,0.676-1.478,1.7-2.013,2.708c-0.567,1.054-1.252,1.955-2.189,2.705   c-1.637,1.245-4.1,2.073-6.142,2.149c1.413-2.029,3.007-3.962,5.166-5.219c1.029-0.599,2.037-1.2,2.79-2.148   c0.291-0.369,0.545-0.767,0.741-1.196c0.397,0.154,0.747,0.393,1.07,0.663c-0.167-0.638-0.828-1.135-0.728-1.753   c0.072-0.452,0.059-0.915-0.061-1.356c-0.247-0.893-0.964-1.587-1.74-2.045c0.166-0.19,0.394-0.288,0.544-0.498   c-0.145,0.117-0.632,0.442-0.775,0.368c0.216-0.478,0.612-0.84,1.149-0.896c1.454-0.147,3.05,0.515,4.315-0.503   c0.557-0.453,1.033-1.163,1.204-1.866c0.435-1.679,0.098-3.766,1.596-4.983c1.29-1.05,2.876-0.631,4.322-0.951   c-1.973-0.003-4.186-0.117-5.348,1.797c-0.837,1.514-0.444,3.446-1.444,4.873c-0.86,1.19-1.986,1.134-3.329,0.964   c-0.735-0.094-1.574-0.194-2.256,0.182c-0.191,0.104-1.015,1.032-1.027,1.027c0.247-0.517,0.428-0.862,0.562-1.444   c-0.13,0.291-0.21,0.608-0.42,0.853c-0.154,0.148-0.312,0.311-0.436,0.494c-0.176-0.059,0.285-1.013,0.251-1.291   c-0.031,0.382-0.492,1.214-0.782,1.164c-0.088-0.409-0.047-0.838-0.057-1.252c-0.062,0.377-0.073,0.854-0.185,1.219   c-0.177-0.018-0.283-0.169-0.352-0.341c-0.193-0.261-0.182-0.603-0.091-0.908c-0.227,0.459-0.155,0.798,0.021,1.238   c-0.433,0.023-1-0.804-0.616-1.24c-0.489,0.403,0.002,0.877,0.133,1.317c-0.391,0.11-0.346-0.146-0.64-0.353   c-0.088-0.209-0.076-0.441-0.07-0.674c-0.107,0.368-0.217,0.737,0.083,1.036c0.162,0.29-0.072,0.33-0.256,0.512   c-0.323-1.547-0.283-5.536-2.999-4.576c-0.945,0.336-1.215,1.662-2.273,1.713c-1.403,0.048-2.48-1.242-2.796-2.474   c0.152,1.337,1.366,2.65,2.731,2.714c1.132,0.009,1.366-1.107,2.268-1.502c1.247-0.544,1.948,0.66,2.144,1.733   c0.238,1.289,0.158,2.602,0.236,3.901c0.028,0.463,0.072,0.767-0.259,1.036c-0.284,0.232,0.145,0.474,0.063,0.684   c-0.615-0.308-0.334,0.628-0.44,0.75c-0.62-0.419-0.455,0.435-0.692,0.608c-0.233-0.134-0.563-0.098-0.714,0.155   c-0.208,0.354-0.217,0.408-0.689,0.359c-0.363-0.039-1.296-0.207-1.055-0.719c0.142-0.235,0.395-0.373,0.613-0.55   c-0.397,0.106-0.787,0.127-1.041,0.472c0.099-0.539-0.449-0.855-0.449-1.372c-0.128,0.404,0.164,0.747,0.119,1.152   c-0.025,0.08-0.075,0.161-0.134,0.238c-0.059-0.22-0.227-0.417-0.407-0.55c-0.187-0.206-0.177-0.452-0.202-0.726   c-0.116,0.612,0.037,0.702,0.19,1.177c-0.304-0.054-0.423-0.323-0.713-0.456c-0.3-0.136-0.386-0.452-0.398-0.771   c-0.143,0.56,0.098,0.793,0.389,1.184c-0.367,0.02-0.557,0.056-0.698-0.365c-0.21-0.305-0.222-0.687-0.15-1.047   c-0.251,0.64-0.021,0.952,0.12,1.528c-0.317,0.075-0.357-0.095-0.668-0.25c-0.169-0.245-0.128-0.582-0.129-0.876   c-0.133,0.488-0.279,1.007,0.212,1.314c-0.336,0.133-0.988-0.361-0.959-0.803c-0.157,0.473,0.321,0.67,0.427,1.047   c-0.235,0.125-0.318,0.22-0.543,0.009c-0.307-0.117-0.625-0.409-0.544-0.768c-0.247,0.46,0.168,0.831,0.469,1.127   c-0.283,0.19-1.07-0.212-1.576-0.077c0.277,0.005,0.577,0.048,0.82,0.19c0.269,0.158,0.164,0.449-0.061,0.599   c-0.639,0.423-1.047-0.46-1.39-0.81c-1.117-1.151-2.853-1.458-4.276-0.696c-1.525,0.815-3.196,1.682-4.924,0.742   c-1.306-0.754-1.957-2.274-3.357-2.919c-1.376-0.529-2.93-0.116-4.333-0.461c1.096,0.542,2.307,0.239,3.464,0.469   c0.855,0.226,1.478,0.726,2.04,1.413c0.792,0.972,1.494,2.031,2.742,2.401c0.886,0.278,1.905,0.258,2.81,0.07   c0.904-0.226,1.656-0.853,2.557-1.068c1.071-0.258,2.333,0.353,2.775,1.391c0.151,0.353-0.004,0.66-0.17,0.974   c-0.138,0.263-0.366,0.482-0.542,0.718c-0.165,0.219-0.4,0.438-0.7,0.438c-0.298-0.002-0.611-0.253-0.882-0.371   c-0.688-0.302-1.468-0.38-2.185-0.136c-0.924,0.317-1.342,1.387-2.23,1.682c-0.385,0.101-0.753,0-1.096-0.196   c-1.421-0.811-2.423-2.301-4.152-2.54c-1.543-0.212-2.474,0.88-3.413,1.9c-0.938,1.016-1.662,0.921-2.772,0.402   c1.983,1.562,2.949-0.757,4.582-1.559c1.751-0.862,3.291,0.749,4.45,1.869c1.836,1.773,2.743,1.225,4.455-0.095   c0.948-0.732,2.218,0.037,2.412,1.11c0.158,0.841,0.054,1.911-0.169,2.731c-0.948,3.475-5.003,5.258-8.294,4.021   c0.224,0.085,0.504,0.535,0.691,0.703c1.93,1.736,4.675,1.49,6.945,0.642c0.537-0.199,1.02-0.51,1.479-0.842   c-0.595,0.428-0.908,1.561-1.259,2.198c-0.442,0.798-0.887,1.598-1.405,2.348c-1.006,1.453-2.455,2.904-4.353,2.845   c4.058,0.188,7.393-2.273,10.381-4.7c-0.78,0.632-1.187,2.466-1.862,3.321c-0.857,1.081-2.066,2.098-3.075,2.815   c2.818-1.999,6.957-1.389,9.399-4.129c-0.661,0.741-0.748,1.572-1.227,2.354c-0.456,0.743-1.332,1.229-1.976,1.789   c2.972-1.032,5.093-3.672,8.509-3.349c0.393,0.039-0.188,0.941-0.299,1.129c-0.65,1.104-1.795,2.192-3.114,2.371   c2.174-0.293,4.034-1.125,5.762-2.457c1.516-1.167,3.126-2.524,5.171-2.208c0.92,0.145,1.839,0.312,2.741,0.538   c1.017,0.258,1.957,0.581,2.819,1.19c0.496,0.352,1.036,0.736,1.312,1.295c0.35,0.703,0.478,1.585,0.148,2.321   c0.386-0.812,0.521-1.505,0.744-2.361c-0.048,0.2,0.529,1.057,0.554,1.357c0.055,0.72-0.234,1.476-0.642,2.057   c0.63-0.332,1.089-0.981,1.469-1.563c-0.39,0.592-0.158,2.296-1.225,2.465c0.278-0.052,0.638,0.134,0.934,0.121   c0.419-0.018,0.66-0.17,1.039-0.306c-0.303,0.11-0.617,0.866-0.984,1.074c-0.573,0.32-0.965,0.197-1.527,0.034   c0.691,0.915,1.51,1.353,2.65,1.494c-0.772,0.402-1.693,0.409-2.536,0.294c-0.26-0.036-1.707-0.237-1.701-0.689   c-0.006,0.743,1.061,1.807,1.739,1.989c-0.847,0.03-1.547-0.177-2.266-0.608c-0.802-0.489-1.265-1.292-2.024-1.787   c0.366,1.07,1.073,2.078,1.934,2.807c-0.294-0.246-0.952-0.278-1.312-0.446c-0.34-0.162-0.694-0.319-1.023-0.501   c-0.4-0.22-1.417-0.762-1.447-1.292c0.052,0.885,0.729,1.494,1.256,2.13c-0.283-0.34-1.158-0.496-1.556-0.686   c-0.732-0.348-1.261-0.852-1.785-1.461c0.161,0.817,0.627,1.546,1.316,2.016c-1.052-0.72-2.108-0.941-2.983-1.964   c0.056,0.771,0.513,1.703,1.244,2.039c-0.658-0.327-2.943-0.729-3.08-1.718c0.087,0.631,0.367,1.201,0.817,1.649   c-0.765-0.629-2.147-0.761-2.524-1.8c0.214,0.595,0.398,1.206,0.776,1.721c-0.283-0.388-1.058-0.457-1.494-0.619   c-0.617-0.232-0.951-0.579-1.338-1.115c0.195,0.352-0.042,0.503-0.369,0.397c-0.46-0.144-0.736-0.609-1.138-0.856   c0.064,0.141,0.214,0.367,0.127,0.531c-0.955-0.338-1.281-0.871-1.855-1.698c0.304,0.44,0.029,1.354-0.571,0.885   c-0.659-0.517-1.415-1.127-1.948-1.768c0.235,0.333,0.489,0.756,0.386,1.06c-0.594-0.025-1.453-0.924-1.809-1.366   c0.248,0.348,0.919,1.027,0.856,1.453c-0.389,0.079-0.884-0.409-1.182-0.602c-0.521-0.335-1.165-0.623-1.761-0.781   c0.394,0.411,0.896,0.742,1.182,1.25c-0.337,0.171-1.648-0.432-2.065-0.492c-0.771-0.116-1.597-0.194-2.361,0.02   c0.546,0.013,1.303,0.293,1.683,0.683c-0.572,0.159-1.202,0.011-1.789,0.086c-0.715,0.09-1.394,0.343-2.092,0.5   c0.673,0.086,1.643,0.06,2.197,0.521c-0.748,0.239-1.586,0.092-2.359,0.232c-0.708,0.129-1.434,0.306-2.068,0.666   c0.65-0.202,1.615,0.085,2.234,0.308c-0.876,0.659-2.736,0.43-3.375,1.511c0.518-0.21,1.252-0.309,1.805-0.188   c-0.504,0.499-1.42,0.698-1.991,1.206c-0.564,0.502-0.955,1.156-1.3,1.825c0.353-0.621,1.27-0.892,1.927-0.955   c-0.608,0.059-1.333,1.324-1.631,1.765c-0.315,0.465-0.595,0.964-0.773,1.496c-0.054,0.164-0.004,0.527-0.133,0.649   c0.582-0.543,1.17-1,1.77-1.51c-0.753,0.643-1.575,2.367-1.68,3.331c0.32-0.417,0.978-0.949,1.544-0.825   c-0.401-0.089-1.197,1.871-1.234,2.088c0.168-0.199,1.239-0.525,1.294-0.747c-0.165,0.639-0.57,1.188-0.708,1.849   c0.169-0.123,0.353-0.223,0.551-0.299c-0.188,0.566-0.408,1.131-0.518,1.724c0.14-0.168,0.309-0.285,0.509-0.361   c-0.011,0.481-0.338,1-0.382,1.509c0.196-0.112,0.401-0.206,0.614-0.282c-0.214,0.097-0.299,1.031-0.296,1.24   c0.005-0.17,0.162-0.41,0.302-0.495c-0.007,0.38-0.162,0.763-0.188,1.15c0.062-0.157,0.166-0.285,0.301-0.389   c0.01-0.004-0.294,1.072-0.355,1.18c0.132-0.139,0.267-0.275,0.405-0.41c-0.061,0.041-0.148,0.893-0.185,1.007   c0.357-0.667,0.32,0.27,0.134,0.569c0.453-0.699,0.296,0.456,0.186,0.715c0.332-0.447,0.44,0.087,0.233,0.384   c0.234-0.233,0.24,0.362,0.006,0.496c0.33-0.201,0.237,0.217,0.078,0.355c0.388-0.24,0.321,0.2,0.085,0.374   c0.47-0.253,0.221,3.484,0.138,3.859c-0.362,1.648-1.188,2.985-2.491,4.04c-1.743,1.108-4.013,2.154-6.1,1.214   c-2.045-0.917-3.37-2.559-4.027-4.708c-0.024-0.646-0.285-1.463-0.303-2.198c-0.02-0.774,0.021-1.548,0.069-2.312   c0.096-1.552,0.242-3.112,0.096-4.667c-0.044-0.506-0.144-0.986-0.271-1.455c0.043-0.162,0.073-0.338,0.122-0.443   c0.064-0.129,0.171-0.235,0.268-0.344c1-0.71,1.221-1.984,1.687-3.044c0.473-1.067,1.195-2.108,2.125-2.822   c0.924-0.712,2.105-1.136,3.275-1.053c0.186,0.015,1.74,0.347,1.727,0.387c0.042-0.134-1.236-0.621-1.384-0.672   c-0.938-0.33-1.952-0.339-2.92-0.108c-2.049,0.489-3.781,2.035-4.839,3.823c0.624-2.42,1.506-4.66,3.421-6.359   c0.904-0.808,1.972-1.434,3.125-1.806c0.522-0.169,1.055-0.242,1.604-0.173c0.014,0.002,0.797,0.205,0.75,0.256   c0.092-0.107-1.38-0.521-1.558-0.528c-1.272-0.062-2.655,0.467-3.761,1.051c-2.392,1.271-4.144,3.5-5.187,5.973   c0.357-2.377,0.218-5.045,1.668-7.096c0.798-1.128,1.964-1.911,3.25-2.38c0.155-0.056,1.659-0.402,1.659-0.353   c-0.005-0.233-1.792-0.014-2.03,0.026c-1.391,0.237-2.713,0.834-3.77,1.779c-2.013,1.808-2.604,4.561-3.488,7.01   c-0.346-1.392-1.123-2.615-0.406-4.033c0.502-1.002,1.378-1.745,2.026-2.641c0.641-0.881,0.877-1.866,0.807-2.942   c-0.012-0.149-0.158-1.963-0.287-1.926c-0.132,0.054-0.115,1.784-0.193,2.069c-0.377,1.396-1.248,2.151-2.347,3.028   c-1.126,0.895-2.38,1.907-2.708,3.389c-0.245,1.107-0.029,2.247,0.004,3.364c-1.232-1.882-2.809-3.449-2.4-5.887   c0.029-0.187,1.197-4.444,0.855-4.422c-0.07,0.002-0.333,1.298-0.42,1.45c-0.575,1.002-1.22,1.955-1.62,3.048   c-0.908,2.494,0.297,4.767,0.975,7.149c-0.129-0.456-1.752-0.912-2.123-1.065c-0.812-0.337-1.6-0.702-2.281-1.271   c-0.731-0.614-1.334-1.39-1.717-2.268c-0.058-0.43-0.296-0.8-0.331-1.243c0.015,0.18,0.042-0.436,0.106-0.562   c-0.11,0.165-0.193,1.527-0.172,1.653c0.152,0.869,0.559,1.72,1.049,2.448c1.111,1.669,2.939,2.253,4.307,3.62   c-1.748-0.384-3.591,0.057-5.147,0.89c0.377-0.201,0.653-0.351-0.01,0.004c-1.157,0.62-0.513,0.275-0.012,0.006   c-2.009,1.088-3.776,3.404-2.765,5.76c-0.626-1.448,0.966-3.077,2.046-3.699c0.579-0.338,1.188-0.533,1.819-0.742   c0.445-0.15,0.847-0.139,1.313-0.081c0.329,0.038,0.649,0.118,0.974,0.165c-0.695-0.098-1.046,0.509-1.318,1.032   c-0.288,0.552-0.542,1.155-0.536,1.789c0.013,0.671,0.215,1.335,0.465,1.954c0.319,0.79,0.791,1.574,1.429,2.145   c0.492,0.445,1.084,0.569,1.64,0.896c-0.302-0.178-0.596-0.43-0.83-0.686c-0.84-0.905-1.427-2.104-1.454-3.354   c-0.008-0.394,0.057-0.794,0.247-1.141c0.207-0.375,0.625-0.745,1.049-0.837c-0.297,0.51-0.209,1.203-0.138,1.762   c0.052,0.411,0.211,0.861,0.408,1.229c0.63,1.19,1.883,2.062,3.22,2.208c0.309,0.035,0.679,0.075,0.987,0.025   c-0.487-0.149-0.935-0.19-1.396-0.43c-0.541-0.286-1.008-0.778-1.356-1.273c-0.353-0.511-0.259-1.033-0.421-1.598   c0.111,0.38,0.356,0.79,0.676,1.023c0.57,0.424,1.399,0.488,2.08,0.568c0.57,0.065,1.129,0.196,1.66,0.41   c0.42,0.172,1.075,0.417,1.355,0.787c-0.706-1.078-1.94-1.669-3.016-2.306c-0.102-0.062-1.166-0.652-0.889-0.864   c0.252-0.197,0.719-0.026,1.027-0.104c0.809-0.21,1.222-1.014,0.971-1.816c0.02,0.665-0.629,1.331-1.306,1.191   c-0.637-0.135-1.125-0.876-1.262-1.472c-0.15-0.655,0.096-1.343,0.603-1.781c2.457-2.147,5.589,1.078,5.727,3.577   c0.149,2.729-1.251,5.283-1.302,8.007c-0.044,2.397,0.62,4.786,1.877,6.823c1.267,2.058,3.122,3.745,5.321,4.747   c1.063,0.485,2.201,0.807,3.363,0.939c0.454,0.056,1.42-0.107,1.738,0.242c0.494,0.546-0.017,1.252-0.497,1.564   c-0.665,0.43-1.276,1.134-1.76,0.293c-0.188-0.259-0.272-0.567-0.488-0.822c-0.431-0.51-1.146-0.688-1.791-0.587   c1.06,0.17,1.421,0.507,1.776,1.544c-0.16-0.188-0.265-0.411-0.424-0.595c-0.525-0.659-1.446-0.472-2.164-0.43   c-0.619,0.043-1.162-0.202-1.625-0.566c0.741,0.949,1.663,0.594,2.665,0.756c0.792,0.123,0.952,0.681,1.354,1.238   c-0.28,0.02-0.555,0.051-0.82-0.046c-0.588-0.389-0.612-0.657-1.367-0.663c0.193,0.097,0.473,0.155,0.657,0.316   c0.63,0.872,0.999,0.547,1.921,0.859c-0.349,0.386-0.272,0.946-0.68,1.326c-0.408,0.382-0.768,0.429-1.311,0.438   c-0.826,0.011-1.107-0.461-1.589-1.047c-0.369-0.457-0.735-0.393-1.233-0.402c-0.914-0.028-1.23,1.401-0.717,2.01   c-0.186-0.519,0.106-1.145,0.718-0.824c0.61,0.321,0.884,0.861,1.64,0.94c0.676,0.072,1.359-0.085,2.042-0.04   c0.299,0.184-0.009,0.663,0.01,0.981c0.075,1.416,0.521,2.532,0.959,3.858c0.399,1.12,1.75,0.111,1.927,1.369   c0.112-1.562-1.044-1.729-1.787-2.853c-0.21-0.326-0.727-2.747,0.065-2.615c0.247,1.087,0.764,2.73,1.926,3.191   c0.55,0.217,0.815,0.023,1.264-0.267c0.361-0.236,0.874,0.095,0.9,0.5c-0.042-0.631-0.362-1.367-1.134-1.275   c-0.558,0.063-0.759,0.068-1.245-0.367c-0.527-0.467-1.337-1.649-0.916-2.374c0.44,0.653,0.893,1.667,1.613,2.053   c0.637,0.343,1.018-0.23,1.597-0.225c0.968,0.018,1.17-0.234,1.288-1.148c0.085-0.68,1.012-0.398,1.272-0.038   c-0.112-1.273-2.132-0.983-2.437,0.036c-1.038,0.116-1.821,0.056-2.609-0.776c-2.087-2.211,2.855-2.32,4.044-2.763   c1.021-0.381,2.078-1.146,2.375-2.252c0.142-0.528,0.078-1.084-0.075-1.599c-0.167-0.569,0.078-0.47,0.537-0.764   c0.219-0.137,0.428-0.283,0.635-0.434c2.058-1.515,3.579-3.667,4.488-6.046c0.548,0.307,1.229,0.338,1.84,0.265   c0.515-0.063,0.598,0.481,0.809,0.924c0.149,0.306,0.269,0.624,0.307,0.967c0.065,0.802-0.678,1.469-0.353,2.291   c-0.144-0.831,0.612-1.429,0.666-2.239c0.051-0.56-0.182-1.105-0.357-1.62c0.274,0.382,0.676,0.646,0.866,1.09   c0.396,1.079-0.137,2.337,0.953,3.171c-0.999-1.279,0-2.817-0.906-4.109c0.18,0.106,0.338,0.217,0.471,0.381   c0.315,0.444,0.699,1.307,1.363,1.283c-0.392-0.092-0.664-0.516-0.834-0.881c-0.265-0.618-0.5-0.93-1.03-1.397   c-0.034-0.033-0.064-0.072-0.094-0.104c-0.395-0.461-0.016-0.428,0.289-0.834c0.216-0.288,0.326-0.624,0.379-0.977   c0.239-1.569,0.149-2.731,1.399-3.922c0.598-0.569,1.101-1.084,1.42-0.056c0.165,0.531-0.084,0.975-0.307,1.446   c-0.461,0.977-1.147,2.692-0.006,3.48c-0.305-0.798-0.113-1.429,0.664-1.733c0.664-0.263,0.918-0.726,0.753-1.396   c-0.17-0.689,0.419-1.133,0.242-1.834c-0.11-0.432-1.06-1.303-0.546-1.562c0.416-0.203,0.924-0.376,1.374-0.482   c0.465-0.111,0.899,0.058,1.293-0.307c0.462-0.424,0.599-1.139,1.289-0.681c0.511,0.338,1.323,0.114,0.958-0.63   c0.467-0.248,1.317-0.336,1.5,0.344c0.568-1.379-2.191-1.141-2.708-1.08c-0.567,0.064-1.096,0.414-1.522,0.774   c-0.078,0.068-0.875,0.896-0.945,0.632C50,68.374,50.254,68.012,50.27,67.84c0.031-0.34-0.04-0.675-0.022-1.016   c0.085-1.186,0.769-0.475,1.43-0.927c0.487-0.336-0.013-1.102-0.376-1.303c-0.006-0.59,0.198-1.06,0.7-1.4   c-0.943,0.456-1.994,1.351-2.248,2.416c-0.151,0.64-0.496,3.169-1.498,3.077c-0.813-0.073-1.339-2.248-0.934-2.817   c0.281-0.395,0.858-0.562,0.937-1.107c0.074-0.514-0.625-0.725-1.007-0.594c-0.114-0.603,0.357-1.365,0.977-1.475   c-0.67,0.12-1.169,0.388-1.553,0.972c-0.367,0.556-0.184,0.99-0.322,1.555c-0.331,1.229-0.058,2.369,0.689,3.367   c1.003,1.334-4.197,4.669-4.956,2.82c-0.521-1.257-0.517-2.794-0.716-4.189c-0.19-1.36-0.382-2.721-0.424-4.093   c-0.076-2.383,0.428-5.582,3.426-5.685c2.292-0.078,4.49,1.715,6.299,2.91c2.282,1.497,4.564,3.168,7.172,4.037   c1.277,0.426,2.606,0.681,3.947,0.799c1.359,0.121,2.776-0.107,4.072,0.257c1.175,0.332,2.263,1.037,1.904,2.449   c-0.283,0.411-0.989,0.089-1.364,0.03c-0.512-0.078-1.016-0.08-1.464,0.218c0.348-0.132,1.048,0.224,1.34,0.453   c-1.743-0.864-2.299,2.303-4.138,1.896c0.697,0.38,1.529,0.443,2.074-0.227c0.54-0.661,1.436-1.462,2.317-0.741   c-0.756,0.193-1.672,0.627-1.805,1.496c0.812-0.973,2.025-0.329,2.808-1.253c0.388,1.226,1.504,1.868,2.626,2.272   c0.423,0.148,2.14,0.741,1.595,1.503c-0.244,0.345-0.918,0.204-1.262,0.178c-0.387-0.03-0.951,0.366-1.211,0.3   c-1.114-0.27-1.605,1.001-0.928,1.747c-0.208-0.355-0.208-0.879,0.313-0.904c0.425-0.012,0.448,0.228,0.709,0.469   c0.47,0.442,1.278,0.369,1.084-0.427c-0.235-0.968,0.919-0.188,1.265-0.102c0.649,0.162,1.383-0.213,1.459-0.921   c0.1-0.936,0.431-0.7,1.296-0.642c0.406,0.032,0.857,0.037,1.24-0.128c0.392-0.165,0.773-0.543,1.229-0.52   c0.721,0.034,1.371,0.149,1.297-0.893c-0.053-0.746,0.557-1.155,1.315-0.902c-1.182-0.394-1.866,0.15-2.891,0.694   c-0.41,0.219-2.007,0.816-2.407,0.443c0.014,0.009,1.194-1.21,1.328-1.307c0.349-0.24,1.305-0.298,1.399-0.789   c0.098-0.523-0.595-0.621-0.248-1.226c0.227-0.394,0.851-0.357,1.168-0.108c-0.63-0.935-1.764-0.173-2.324,0.297   c-0.687,0.571-0.423,2.359-1.747,2.345c-0.021-0.57-0.312-1.323,0.107-1.814c0.345-0.404,0.585-0.889-0.101-1.24   c0.22-0.283,0.752-0.545,1.109-0.421c-0.934-0.321-2.117,0.387-1.994,1.434c0.088,0.754,0.418,1.607-0.018,2.324   c-0.976,1.596-2.896-2.22-3.372-2.767c0.99-0.839,2.478-0.82,3.368-1.826c0.83-0.939,0.851-2.44,0.545-3.591   c-0.146-0.559,0.092-0.471,0.541-0.755c0.329-0.21,0.649-0.423,0.961-0.653c0.528-0.385,1.036-0.798,1.522-1.237   c0.95-0.854,1.82-1.806,2.565-2.849c1.524-2.129,2.57-4.595,3.06-7.17c0.107-0.546,0.854-0.441,1.356-0.759   c0.501-0.317,0.922-0.738,1.391-1.096c1.028-0.786,1.85-0.495,3.01-0.644c-0.357,0.79-1.227,1.46-0.82,2.463   c-0.04-0.587,0.467-1.256,1.047-1.365c0.859-0.163-0.445,1.443-0.517,1.607c-0.269,0.623-0.103,1.281,0.113,1.891   c0.14,0.395,0.523,1.068,0.236,1.482c0.545-0.78,0.15-1.5,0.134-2.348c-0.022-1.067,0.97-1.538,1.237-2.487   c0.096,0.475,0.029,1.011-0.12,1.471c0.708-0.562,0.763-1.525,0.541-2.337c-0.156-0.583-0.648-0.977-0.341-1.499   c0.242-0.419,0.414-0.884,0.498-1.36c0.316-1.672-1.35-4.197,0.211-5.544c1.039-0.9,1.695,0.864,2.077,1.536   c0.42,0.735,0.902,1.551,1.569,2.092c0.296,0.241,0.658,0.423,1.052,0.368c0.546-0.073,0.51-0.46,1.045-0.156   c0.456,0.263,1.565,0.666,1.888,0.006C97.052,43.926,96.268,43.983,95.945,43.22z M44.119,25.742   c0.094-1.833,2.042-3.041,3.719-2.313c-0.726-0.207-0.832-0.359,0,0c-3.913-1.114-4.345,5.601-0.332,5.021   C45.781,28.94,44.027,27.542,44.119,25.742z M48.477,26.777c-0.106,0.151-0.231,0.28-0.38,0.386   c-1.205,0.871-2.891-0.277-2.531-1.723c0.366-1.461,2.449-1.662,3.063-0.272C46.882,23.712,46.479,27.88,48.477,26.777z"/></g><text x="0" y="115" fill="#000000" font-size="5px" font-weight="bold" font-family="'Helvetica Neue', Helvetica, Arial-Unicode, Arial, Sans-serif">Created by JEREMIE SOMMET</text><text x="0" y="120" fill="#000000" font-size="5px" font-weight="bold" font-family="'Helvetica Neue', Helvetica, Arial-Unicode, Arial, Sans-serif">from the Noun Project</text></svg>