<svg enable-background="new 0 0 100 92" viewBox="0 0 100 92" xmlns="http://www.w3.org/2000/svg"><g fill="#fff"><path d="m24.6 25.6c3.8.3 4 2.9 4 2.9 1.4-.8 3-4.1 3-4.1s0 0-3-.2-4.9-1.7-6.5-1.2-1.3 2.2 2.5 2.6z"/><path d="m17.4 39.5c-.2.8-.4 1.3-.4 1.3-11.6 16.8-12.3 30.2-11.9 35.8.1 1.6 1.4 2.8 3 2.9 4.1.2 15-2.6 14-2.1 1-.5 1.7-1.5 1.8-2.6 1.1-15.4 1.6-21.3 3.7-23.2-.5-6.4-6.3-10.3-10.2-12.1z"/><path d="m92.8 23.7h-.6v-2.4c0-.4-.4-.8-.8-.8h-4c-.3 0-.5.1-.7.4-.3.5-.9 1.3-2.5 1.9v.9h-21.3c-.5-.7-1.3-1.2-2.2-1.2h-9.8c-1 0-2-.4-2.7-1l-1.1-1h-12.8c-3.1 12.2-12.1 14.6-15.5 15.1-.7.1-1.2.7-1.2 1.4v.3c4.2 1.8 11 6 11.7 13.3 3.1-.4 4.1 2.1 4.1 2.1.7 9 5 13.5 14.5 11.1 10.4-2.7 8.2-12.2 8.2-12.2l6-5.4c.9-.8 1.4-1.9 1.4-3v-5.6h8v-2.3h-3.9c-.8 0-1.5-.7-1.4-1.5 0-.3.1-.6.3-.8h26.4c1.2 0 2.2-1 2.2-2.2v-4.8c-.1-1.3-1.1-2.3-2.3-2.3zm-53.7 4.7c0-.4.3-.6.6-.6h2.5c.4 0 .6.3.6.6v13.8c0 .4-.3.6-.6.6h-2.5c-.4 0-.6-.3-.6-.6zm12.5 30.4c-4.3 4.4-14.5 3.6-14.8-2.5-.1-3.6 2.4-5.4 5.3-6.3-.1 2.8.5 7.5 5 9.2.5.2.9-.4.6-.8-1.2-1.7-2.8-4.9-2.3-9 2.2-.2 4.2.1 4.8.4 1.2.6 1.8 1.3 2.2 1.9 1.3 2.3 1 5.2-.8 7.1zm6.4-16.5c0 .3-.2.6-.6.6h-10.1c-.9 0-1.7-.8-1.7-1.7s.8-1.7 1.7-1.7h10.1c.3 0 .6.2.6.6zm0-5.9c0 .3-.2.6-.6.6h-10.1c-.9 0-1.7-.8-1.7-1.7s.8-1.7 1.7-1.7h10.1c.3 0 .6.2.6.6zm0-5.8c0 .3-.2.6-.6.6h-10.1c-.9 0-1.7-.8-1.7-1.7s.8-1.7 1.7-1.7h10.1c.3 0 .6.2.6.6z"/></g></svg>