<svg xmlns:xlink="http://www.w3.org/1999/xlink" xmlns="http://www.w3.org/2000/svg" stroke-width="0.501" stroke-linejoin="bevel" fill-rule="evenodd" version="1.1" overflow="visible" viewBox="0 0 96 120" x="0px" y="0px"><g fill="none" stroke="black" font-family="Times New Roman" font-size="16" transform="scale(1 -1)"><g transform="translate(0 -96)"><g><path d="M 10.501,0 L 10.5,11.248 L 10.498,11.248 L 10.498,13.499 L 10.5,13.499 L 10.5,36.533 C 6.4,37.301 4.663,38.756 2.908,39.946 L 0.072,41.868 L 3.408,42.648 C 21.415,46.86 37.401,65.962 43.158,73.794 L 48.001,80.581 L 52.836,73.803 C 59.653,64.791 74.818,46.634 92.578,42.651 L 95.962,41.892 L 93.091,39.946 C 91.43,38.82 89.733,37.317 85.498,36.53 L 85.498,31.499 L 85.499,31.499 L 85.499,29.248 L 85.498,29.248 L 85.498,26.999 L 85.499,26.999 L 85.499,24.748 L 85.498,24.748 L 85.498,0 L 10.501,0 Z M 82.498,3 L 82.498,3.748 L 13.5,3.748 L 13.501,3 L 82.498,3 Z M 29.248,5.999 L 29.248,11.248 L 13.5,11.248 L 13.5,5.999 L 29.248,5.999 Z M 82.498,5.999 L 82.498,11.248 L 66.753,11.248 L 66.753,5.999 L 82.498,5.999 Z M 63,11.999 L 63,12.748 L 33.001,12.748 L 33.001,11.999 L 63,11.999 Z M 33.75,12.749 L 33.75,15.749 L 38.251,15.749 L 38.251,12.75 L 39,12.75 L 39,15.749 L 44.251,15.749 L 44.251,12.749 L 45,12.749 L 45,15.749 L 51,15.749 L 51,12.75 L 51.749,12.75 L 51.749,15.749 L 57.001,15.749 L 57.001,12.75 L 57.75,12.75 L 57.75,15.749 L 62.25,15.749 L 62.25,12.75 L 62.999,12.75 L 62.999,15.749 L 63,15.749 L 63,16.498 L 62.999,16.498 L 62.999,19.499 L 63,19.499 L 63,20.248 L 62.999,20.248 L 62.999,23.999 L 62.25,23.999 L 62.25,23.998 L 57.75,23.998 L 57.75,23.999 L 57.001,23.999 L 57.001,23.998 L 51.749,23.998 L 51.749,23.999 L 51,23.999 L 51,23.998 L 39,23.998 L 39,23.999 L 38.251,23.999 L 38.251,23.998 L 33,23.998 L 33,23.249 L 33.001,23.249 L 33.001,12.749 L 33.75,12.749 Z M 29.248,13.499 L 29.248,24.748 L 13.5,24.748 L 13.5,13.499 L 29.248,13.499 Z M 82.498,13.499 L 82.498,24.748 L 66.753,24.748 L 66.753,13.499 L 82.498,13.499 Z M 33.75,16.498 L 33.75,19.499 L 38.251,19.499 L 38.251,16.498 L 33.75,16.498 Z M 39,16.498 L 39,19.499 L 44.251,19.499 L 44.251,16.498 L 39,16.498 Z M 45,16.498 L 45,19.499 L 51,19.499 L 51,16.498 L 45,16.498 Z M 51.749,16.498 L 51.749,19.499 L 57.001,19.499 L 57.001,16.498 L 51.749,16.498 Z M 57.75,16.498 L 57.75,19.499 L 62.25,19.499 L 62.25,16.498 L 57.75,16.498 Z M 33.75,20.248 L 33.75,23.249 L 38.251,23.249 L 38.251,20.248 L 33.75,20.248 Z M 39,20.248 L 39,23.249 L 44.251,23.249 L 44.251,20.248 L 39,20.248 Z M 45,20.248 L 45,23.249 L 51,23.249 L 51,20.248 L 45,20.248 Z M 51.749,20.248 L 51.749,23.249 L 57.001,23.249 L 57.001,20.248 L 51.749,20.248 Z M 57.75,20.248 L 57.75,23.249 L 62.25,23.249 L 62.25,20.248 L 57.75,20.248 Z M 29.248,26.999 L 29.248,29.248 L 13.5,29.248 L 13.5,26.999 L 29.248,26.999 Z M 46.5,26.999 L 46.5,29.248 L 31.499,29.248 L 31.499,26.999 L 46.5,26.999 Z M 64.502,26.999 L 64.502,29.248 L 48.751,29.248 L 48.751,26.999 L 64.502,26.999 Z M 82.498,26.999 L 82.498,29.248 L 66.753,29.248 L 66.753,26.999 L 82.498,26.999 Z M 29.248,31.499 L 29.248,34.033 L 23.034,34.033 C 19.177,34.033 16.672,34.487 14.854,35.158 C 14.349,35.343 13.901,35.546 13.5,35.753 L 13.5,31.499 L 29.248,31.499 Z M 46.5,31.499 L 46.5,34.033 L 31.499,34.033 L 31.499,31.499 L 46.5,31.499 Z M 64.502,31.499 L 64.502,34.033 L 48.751,34.033 L 48.751,31.499 L 64.502,31.499 Z M 82.498,31.499 L 82.498,35.752 C 82.097,35.545 81.65,35.343 81.147,35.158 C 79.329,34.487 76.824,34.033 72.968,34.033 L 66.753,34.033 L 66.753,31.499 L 82.498,31.499 Z M 23.249,37.033 L 23.249,40.261 C 22.754,40.072 22.254,39.886 21.749,39.706 L 21.748,37.061 L 21.196,37.073 C 21.762,37.047 22.373,37.033 23.034,37.033 L 23.249,37.033 Z M 25.499,37.033 L 25.499,41.17 C 25.005,40.961 24.505,40.755 24,40.555 L 24,37.033 L 25.499,37.033 Z M 27.748,37.033 L 27.748,42.174 C 27.254,41.942 26.754,41.716 26.25,41.494 L 26.25,37.033 L 27.748,37.033 Z M 29.998,37.033 L 29.998,43.28 C 29.984,43.273 29.971,43.266 29.958,43.26 C 29.477,43.012 28.991,42.769 28.499,42.532 L 28.499,37.033 L 29.998,37.033 Z M 32.249,37.033 L 32.249,44.496 C 31.755,44.216 31.255,43.942 30.749,43.673 L 30.749,37.033 L 32.249,37.033 Z M 34.499,37.033 L 34.498,41.167 L 34.446,41.172 L 34.372,41.174 L 34.321,41.185 L 34.277,41.189 L 34.222,41.207 L 34.161,41.22 L 34.113,41.24 L 34.066,41.255 L 34.017,41.281 L 33.963,41.305 L 33.918,41.335 L 33.875,41.359 L 33.834,41.392 L 33.783,41.427 L 33.744,41.467 L 33.708,41.496 L 33.673,41.538 L 33.628,41.585 L 33.6,41.627 L 33.571,41.663 L 33.539,41.721 L 33.504,41.776 L 33.488,41.816 L 33.467,41.854 L 33.446,41.92 L 33.42,41.987 L 33.412,42.03 L 33.401,42.065 L 33.395,42.126 L 33.381,42.205 L 33.382,42.254 L 33.379,42.292 L 33.384,42.349 L 33.386,42.422 L 33.397,42.472 L 33.401,42.518 L 33.419,42.575 L 33.432,42.633 L 33.452,42.679 L 33.467,42.729 L 33.495,42.78 L 33.517,42.831 L 33.546,42.874 L 33.571,42.92 L 33.606,42.963 L 33.639,43.011 L 33.676,43.047 L 33.708,43.087 L 33.754,43.125 L 33.797,43.166 L 33.835,43.191 L 33.875,43.224 L 33.94,43.259 L 33.988,43.291 C 34.16,43.379 34.33,43.468 34.499,43.558 L 34.499,45.829 C 34.191,45.638 33.881,45.45 33.568,45.263 L 33,44.948 L 33,37.033 L 34.499,37.033 Z M 36.746,37.033 L 36.746,41.167 L 35.25,41.167 L 35.25,37.033 L 36.746,37.033 Z M 38.996,37.033 L 38.996,41.167 L 37.497,41.167 L 37.497,37.033 L 38.996,37.033 Z M 41.246,37.033 L 41.246,41.167 L 39.747,41.167 L 39.747,37.033 L 41.246,37.033 Z M 43.496,37.033 L 43.496,41.167 L 41.997,41.167 L 41.997,37.033 L 43.496,37.033 Z M 45.747,37.033 L 45.747,41.167 L 44.247,41.167 L 44.247,37.033 L 45.747,37.033 Z M 47.997,37.033 L 47.997,41.167 L 46.498,41.167 L 46.498,37.033 L 47.997,37.033 Z M 50.246,37.033 L 50.246,41.167 L 48.748,41.167 L 48.748,37.033 L 50.246,37.033 Z M 52.496,37.033 L 52.496,41.167 L 50.997,41.167 L 50.997,37.033 L 52.496,37.033 Z M 54.747,37.033 L 54.746,41.167 L 53.246,41.167 L 53.247,37.033 L 54.747,37.033 Z M 56.997,37.033 L 56.996,41.167 L 55.497,41.167 L 55.498,37.033 L 56.997,37.033 Z M 59.248,37.033 L 59.247,41.167 L 57.747,41.167 L 57.748,37.033 L 59.248,37.033 Z M 61.498,37.033 L 61.497,41.167 L 59.998,41.167 L 59.999,37.033 L 61.498,37.033 Z M 63.748,37.033 L 63.747,41.167 L 62.248,41.167 L 62.249,37.033 L 63.748,37.033 Z M 65.998,37.033 L 65.997,41.167 L 64.498,41.167 L 64.499,37.033 L 65.998,37.033 Z M 68.249,37.033 L 68.248,42.175 C 67.742,42.413 67.242,42.655 66.747,42.901 L 66.747,41.236 L 66.907,41.167 L 66.747,41.167 L 66.749,37.033 L 68.249,37.033 Z M 70.499,37.033 L 70.498,41.171 C 69.993,41.386 69.493,41.605 68.999,41.829 L 69,37.033 L 70.499,37.033 Z M 72.748,37.033 L 72.747,40.263 C 72.242,40.456 71.743,40.655 71.249,40.857 L 71.25,37.033 L 72.748,37.033 Z M 73.499,37.036 L 73.498,37.044 L 73.499,37.036 C 74.032,37.042 74.53,37.058 74.998,37.082 L 74.997,39.443 C 74.492,39.618 73.992,39.797 73.497,39.98 L 73.499,37.036 L 73.499,37.044 L 72.968,37.033 C 73.148,37.033 73.325,37.034 73.499,37.036 Z M 21.176,37.074 L 20.997,37.087 L 20.997,37.082 C 21.056,37.079 21.115,37.076 21.176,37.074 Z M 20.997,37.082 L 20.997,37.087 L 20.997,37.082 L 20.998,39.442 C 20.503,39.271 20.003,39.104 19.498,38.942 L 19.497,37.204 C 20.055,37.143 20.516,37.107 20.997,37.082 Z M 75.377,37.114 L 74.998,37.087 L 74.998,37.082 C 75.198,37.093 75.394,37.105 75.377,37.114 Z M 75.749,37.137 L 75.748,37.141 L 75.749,37.137 C 76.369,37.18 76.827,37.231 77.249,37.291 L 77.248,38.707 C 76.743,38.863 76.242,39.024 75.748,39.189 L 75.749,37.137 L 75.749,37.141 L 75.377,37.114 C 75.507,37.121 75.631,37.129 75.749,37.137 Z M 19.652,37.183 L 18.748,37.305 L 18.748,38.706 C 18.386,38.594 18.021,38.484 17.654,38.377 L 17.248,38.266 L 17.248,37.578 L 17.112,37.606 L 17.066,37.62 C 16.871,37.662 16.929,37.647 16.988,37.632 C 17.707,37.448 18.578,37.291 19.652,37.183 Z M 77.734,37.366 L 77.249,37.303 L 77.249,37.291 C 77.416,37.315 77.577,37.339 77.734,37.366 Z M 78,37.413 C 78.61,37.524 79.114,37.649 79.555,37.785 L 79.982,37.929 L 79.966,37.933 L 79.499,37.791 L 79.498,38.061 L 78.346,38.377 C 78.229,38.41 78.114,38.445 77.998,38.479 L 77.999,37.421 L 77.756,37.371 C 77.839,37.385 77.921,37.399 78,37.413 Z M 17.066,37.62 L 16.498,37.793 L 16.498,38.06 L 16.018,37.929 L 16.445,37.785 C 16.563,37.748 16.686,37.713 17.066,37.62 Z M 85.718,39.643 L 85.717,39.65 L 85.718,39.643 C 86.454,39.812 87.058,39.997 87.58,40.194 L 88.591,40.637 L 88.403,40.689 C 88.233,40.744 88.063,40.8 87.894,40.857 L 87.895,40.337 L 87.582,40.199 L 87.17,40.071 L 87.169,41.109 C 86.682,41.284 86.198,41.467 85.717,41.659 L 85.718,39.643 L 85.718,39.65 L 85.701,39.646 L 85.716,39.643 L 85.718,39.643 Z M 10.305,39.647 L 10.501,39.69 L 10.501,39.749 L 10.767,39.749 L 11.003,39.8 L 11.004,42.021 C 10.522,41.815 10.038,41.618 9.553,41.43 L 9.553,39.848 L 8.828,40.073 L 8.828,41.155 C 8.439,41.012 8.048,40.875 7.657,40.744 L 7.37,40.662 L 7.376,40.663 L 7.376,40.659 L 8.402,40.205 C 8.912,40.011 9.489,39.833 10.305,39.647 Z M 84.992,39.801 L 84.992,41.955 C 84.504,42.159 84.02,42.371 83.54,42.591 L 83.541,40.123 C 83.799,40.064 84.059,40.006 84.32,39.949 L 84.992,39.801 Z M 13.174,40.29 L 13.175,43.011 C 12.696,42.779 12.214,42.554 11.729,42.338 L 11.728,39.959 C 12.215,40.066 12.697,40.176 13.174,40.29 Z M 82.814,40.293 L 82.814,42.93 C 82.329,43.162 81.846,43.402 81.365,43.65 L 81.365,40.654 C 81.843,40.53 82.326,40.41 82.814,40.293 Z M 15.351,40.845 L 15.352,44.128 C 14.871,43.868 14.388,43.615 13.902,43.37 L 13.902,40.468 C 14.39,40.59 14.873,40.715 15.351,40.845 Z M 80.638,40.847 L 80.638,44.033 C 80.152,44.293 79.669,44.561 79.189,44.836 L 79.188,41.255 C 79.666,41.115 80.149,40.979 80.638,40.847 Z M 87.894,40.857 L 87.895,40.876 L 87.17,41.143 L 87.169,41.109 C 87.41,41.023 87.652,40.939 87.894,40.857 Z M 17.53,41.47 L 17.53,45.378 L 17.273,45.216 C 16.877,44.982 16.479,44.753 16.079,44.529 L 16.078,41.045 C 16.567,41.183 17.051,41.324 17.53,41.47 Z M 26.111,41.434 L 26.121,41.438 C 26.164,41.456 26.207,41.475 26.25,41.494 L 26.25,41.5 L 26.111,41.434 Z M 78.461,41.472 L 78.462,45.259 C 77.976,45.547 77.493,45.843 77.015,46.144 L 77.014,41.929 C 77.492,41.773 77.974,41.621 78.461,41.472 Z M 65.997,41.562 L 65.997,43.282 C 65.491,43.543 64.992,43.809 64.498,44.079 L 64.498,42.214 L 65.997,41.562 Z M 85.717,41.659 L 85.717,41.679 L 85.19,41.873 C 85.365,41.801 85.54,41.729 85.717,41.659 Z M 19.706,42.17 L 19.706,46.727 C 19.226,46.414 18.742,46.107 18.255,45.808 L 18.255,41.695 C 18.744,41.849 19.227,42.008 19.706,42.17 Z M 85.19,41.873 L 85.181,41.877 L 85.165,41.883 C 85.173,41.88 85.182,41.876 85.19,41.873 Z M 85.165,41.883 L 84.993,41.963 L 84.992,41.955 C 85.049,41.931 85.107,41.907 85.165,41.883 Z M 76.29,42.171 L 76.291,46.607 C 76.197,46.668 76.103,46.729 76.01,46.791 C 75.617,47.049 75.227,47.311 74.839,47.577 L 74.839,42.682 C 75.317,42.508 75.801,42.337 76.29,42.171 Z M 21.882,42.951 L 21.882,48.204 C 21.402,47.865 20.919,47.533 20.431,47.206 L 20.431,42.421 C 20.92,42.593 21.403,42.77 21.882,42.951 Z M 63.747,42.54 L 63.747,44.498 C 63.241,44.784 62.742,45.076 62.248,45.372 L 62.248,43.192 L 63.747,42.54 Z M 83.54,42.591 L 83.541,42.624 L 82.815,42.955 L 82.814,42.93 C 83.056,42.815 83.297,42.702 83.54,42.591 Z M 74.112,42.953 L 74.112,48.082 C 73.781,48.316 73.452,48.552 73.126,48.792 C 72.963,48.911 72.8,49.03 72.662,49.135 L 72.662,43.521 C 73.139,43.327 73.623,43.138 74.112,42.953 Z M 13.902,43.37 L 13.903,43.38 L 13.176,43.04 L 13.175,43.011 C 13.419,43.129 13.661,43.249 13.902,43.37 Z M 24.058,43.818 L 24.058,49.798 C 23.774,49.583 23.489,49.369 23.201,49.157 L 22.609,48.741 L 22.609,43.231 C 23.097,43.422 23.58,43.618 24.058,43.818 Z M 66.015,43.273 L 66.04,43.26 L 66.067,43.246 C 66.05,43.255 66.032,43.264 66.015,43.273 Z M 29.958,43.26 L 29.998,43.282 L 29.998,43.28 C 30.249,43.409 30.5,43.541 30.749,43.673 L 30.749,43.699 L 29.958,43.26 Z M 47.173,48.907 C 47.214,49.021 47.282,49.126 47.377,49.213 C 47.531,49.353 47.729,49.416 47.922,49.406 C 48.115,49.416 48.313,49.353 48.468,49.213 C 48.562,49.126 48.63,49.021 48.671,48.906 C 50.59,46.849 52.845,45.121 55.197,43.417 L 57.1,43.417 L 56.652,43.709 C 53.737,45.683 50.854,48.326 48,51.536 L 47.164,50.612 C 44.391,47.603 41.789,45.379 38.81,43.467 L 38.727,43.417 L 40.645,43.417 C 42.997,45.121 45.252,46.85 47.173,48.907 Z M 47.922,47.517 C 46.456,46.004 44.834,44.672 43.17,43.417 L 52.671,43.417 C 51.009,44.672 49.387,46.005 47.922,47.517 Z M 61.497,43.525 L 61.497,45.83 C 60.991,46.144 60.492,46.463 59.998,46.787 L 59.998,44.287 C 60.499,44.01 60.998,43.755 61.497,43.525 Z M 81.365,43.65 L 81.366,43.671 L 80.639,44.063 L 80.638,44.033 C 80.88,43.903 81.123,43.775 81.365,43.65 Z M 71.934,43.821 L 71.935,49.68 C 70.692,50.627 69.483,51.607 68.31,52.608 L 68.31,48.332 L 69.759,47.399 L 69.76,51.416 L 70.417,50.867 L 70.487,50.814 L 70.487,46.931 L 70.576,46.874 L 70.487,46.873 L 70.486,44.449 C 70.963,44.235 71.446,44.025 71.934,43.821 Z M 36.746,44.83 L 36.746,47.284 C 36.253,46.951 35.755,46.623 35.25,46.301 L 35.25,43.964 C 35.762,44.248 36.26,44.535 36.746,44.83 Z M 26.235,44.778 L 26.235,46.744 L 25.855,46.743 C 25.981,46.832 26.108,46.921 26.235,47.012 L 26.235,51.516 L 25.977,51.301 C 25.584,50.983 25.186,50.668 24.785,50.356 L 24.785,44.128 C 25.274,44.34 25.757,44.557 26.235,44.778 Z M 59.247,44.72 L 59.247,47.288 C 58.74,47.631 58.24,47.98 57.746,48.334 L 57.746,45.686 C 58.247,45.341 58.748,45.019 59.247,44.72 Z M 69.76,44.78 L 69.76,46.871 L 68.31,46.866 L 68.309,45.474 C 68.787,45.238 69.27,45.007 69.76,44.78 Z M 79.189,44.836 L 79.19,44.844 L 78.996,44.947 C 79.061,44.91 79.125,44.873 79.189,44.836 Z M 78.996,44.947 L 78.985,44.954 L 78.463,45.276 L 78.462,45.259 C 78.639,45.154 78.817,45.05 78.996,44.947 Z M 28.411,45.838 L 28.411,46.75 L 26.96,46.746 L 26.96,45.12 C 27.449,45.354 27.933,45.594 28.411,45.838 Z M 38.996,46.305 L 38.996,48.875 C 38.502,48.511 38.003,48.152 37.497,47.8 L 37.497,45.298 C 38.007,45.623 38.506,45.958 38.996,46.305 Z M 67.585,45.838 L 67.585,46.864 L 66.134,46.859 L 66.134,46.603 C 66.611,46.343 67.095,46.089 67.585,45.838 Z M 77.015,46.144 L 77.015,46.17 L 76.29,46.617 L 76.291,46.607 C 76.53,46.451 76.772,46.297 77.015,46.144 Z M 30.14,46.755 L 29.136,46.752 L 29.136,46.214 C 29.473,46.392 29.808,46.572 30.14,46.755 Z M 56.996,46.218 L 56.996,48.879 C 56.489,49.253 55.99,49.633 55.496,50.018 L 55.496,47.377 C 55.997,46.969 56.497,46.582 56.996,46.218 Z M 20.325,47.135 L 20.276,47.104 L 20.277,47.105 L 19.706,46.745 L 19.706,46.727 C 19.913,46.862 20.12,46.998 20.325,47.135 Z M 41.246,48.038 L 41.246,50.607 C 40.897,50.327 40.545,50.05 40.19,49.776 L 39.747,49.454 L 39.747,46.852 C 40.252,47.231 40.751,47.625 41.246,48.038 Z M 20.277,47.105 L 20.325,47.135 C 20.36,47.158 20.396,47.182 20.431,47.206 L 20.431,47.212 L 20.277,47.105 Z M 36.969,47.436 L 36.746,47.294 L 36.746,47.284 C 36.82,47.335 36.895,47.385 36.969,47.436 Z M 36.969,47.436 L 36.979,47.443 L 36.976,47.441 C 36.974,47.439 36.971,47.438 36.969,47.436 Z M 37.497,47.8 L 37.497,47.819 L 36.976,47.441 C 37.15,47.56 37.324,47.679 37.497,47.8 Z M 28.41,48.632 L 28.411,53.334 C 27.933,52.921 27.45,52.511 26.96,52.104 L 26.96,47.538 C 27.44,47.891 27.924,48.256 28.41,48.632 Z M 74.839,47.577 L 74.84,47.604 L 74.112,48.107 L 74.112,48.082 C 74.353,47.912 74.595,47.744 74.839,47.577 Z M 54.746,48.005 L 54.746,50.612 C 54.24,51.019 53.74,51.431 53.246,51.85 L 53.246,49.351 C 53.746,48.881 54.246,48.432 54.746,48.005 Z M 43.495,50.066 L 43.496,52.489 C 43.003,52.06 42.504,51.636 41.997,51.218 L 41.997,48.681 C 42.496,49.121 42.994,49.581 43.495,50.066 Z M 67.585,48.798 L 67.585,53.233 C 66.33,54.327 65.12,55.443 63.957,56.565 L 63.958,51.4 C 64.445,51.011 64.929,50.64 65.41,50.287 L 65.41,55.198 L 66.135,54.546 L 66.134,49.767 C 66.544,49.48 66.952,49.205 67.358,48.945 L 67.585,48.798 Z M 63.223,49.124 L 62.73,49.501 C 58.518,52.83 54.142,57.371 49.602,62.927 L 47.98,64.965 L 47.621,64.533 C 42.296,58.17 37.85,53.556 32.478,49.131 L 34.103,49.13 C 36.506,50.693 38.749,52.384 40.863,54.18 L 43.975,56.983 L 48.001,61.505 L 52.024,56.983 L 55.136,54.18 C 57.252,52.381 59.498,50.688 61.906,49.124 L 63.223,49.124 Z M 72.662,49.135 L 72.663,49.149 L 72.312,49.417 C 72.369,49.361 72.499,49.258 72.662,49.135 Z M 30.587,50.374 L 30.587,55.274 C 30.11,54.836 29.626,54.401 29.136,53.967 L 29.136,49.2 C 29.617,49.581 30.101,49.972 30.587,50.374 Z M 72.312,49.417 L 71.936,49.705 L 71.935,49.68 C 71.98,49.647 72.024,49.613 72.312,49.417 Z M 52.496,50.07 L 52.495,52.494 C 51.989,52.936 51.489,53.383 50.996,53.835 L 50.996,51.598 C 51.496,51.068 51.996,50.559 52.496,50.07 Z M 45.746,52.397 L 45.747,54.528 C 45.254,54.064 44.754,53.604 44.247,53.151 L 44.247,50.812 C 44.741,51.314 45.24,51.841 45.746,52.397 Z M 32.763,52.233 L 32.763,57.331 C 32.288,56.869 31.805,56.408 31.313,55.948 L 31.312,50.981 C 31.794,51.389 32.278,51.806 32.763,52.233 Z M 63.231,51.99 L 63.231,57.272 C 63.096,57.404 62.962,57.537 62.829,57.67 C 62.475,58.022 62.125,58.375 61.781,58.727 L 61.781,53.233 C 62.268,52.802 62.751,52.388 63.231,51.99 Z M 52.807,52.225 L 52.784,52.245 L 52.785,52.243 C 52.792,52.237 52.799,52.231 52.807,52.225 Z M 52.785,52.243 L 52.496,52.507 L 52.495,52.494 C 52.592,52.41 52.688,52.326 52.785,52.243 Z M 50.245,52.406 L 50.245,54.534 C 50.135,54.638 50.026,54.742 49.917,54.847 L 49.872,54.889 L 48,56.992 L 48.748,56.151 L 48.747,54.105 L 48.854,53.981 C 49.318,53.438 49.782,52.913 50.245,52.406 Z M 68.31,52.608 L 68.311,52.624 L 67.773,53.071 C 67.951,52.916 68.13,52.762 68.31,52.608 Z M 34.94,54.206 L 34.94,59.506 C 34.514,59.07 34.08,58.631 33.637,58.191 L 33.49,58.048 L 33.489,52.879 C 33.972,53.312 34.456,53.755 34.94,54.206 Z M 67.783,53.064 L 67.586,53.241 L 67.585,53.233 C 67.648,53.179 67.71,53.125 67.773,53.071 L 67.783,53.064 Z M 47.145,53.981 L 47.997,54.973 L 47.997,56.988 L 48,56.992 L 46.128,54.889 L 46.498,55.304 L 46.498,53.236 C 46.712,53.479 46.927,53.727 47.145,53.981 Z M 28.68,53.568 L 28.69,53.576 C 28.839,53.706 28.987,53.837 29.136,53.967 L 29.136,53.979 L 28.68,53.568 Z M 50.996,53.835 L 50.997,53.867 L 50.246,54.548 L 50.245,54.534 C 50.494,54.3 50.744,54.067 50.996,53.835 Z M 61.055,53.886 L 61.055,59.474 C 60.907,59.627 60.761,59.78 60.616,59.933 C 60.274,60.293 59.937,60.652 59.604,61.01 L 59.604,55.251 C 60.091,54.781 60.575,54.325 61.055,53.886 Z M 37.118,56.291 L 37.118,61.804 C 36.699,61.35 36.27,60.893 35.831,60.432 L 35.667,60.265 L 35.667,54.889 C 36.151,55.349 36.635,55.816 37.118,56.291 Z M 31.226,55.867 L 31.259,55.898 C 31.277,55.914 31.295,55.931 31.313,55.948 L 31.314,55.951 L 31.226,55.867 Z M 58.88,55.962 L 58.88,61.796 C 58.759,61.929 58.639,62.061 58.52,62.193 C 58.148,62.604 57.784,63.012 57.428,63.416 L 57.428,57.439 C 57.915,56.932 58.399,56.439 58.88,55.962 Z M 63.957,56.565 L 63.958,56.586 L 63.231,57.284 L 63.231,57.272 C 63.47,57.036 63.712,56.8 63.957,56.565 Z M 39.294,58.49 L 39.294,64.224 C 38.842,63.709 38.375,63.184 37.893,62.652 L 37.843,62.598 L 37.843,57.011 C 38.328,57.497 38.812,57.99 39.294,58.49 Z M 63.231,57.284 L 62.829,57.67 L 63.231,57.284 Z M 56.704,58.203 L 56.704,64.244 C 56.649,64.306 56.595,64.368 56.542,64.431 C 56.099,64.944 55.669,65.449 55.253,65.945 L 55.253,59.783 C 55.74,59.242 56.223,58.715 56.704,58.203 Z M 61.781,58.727 L 61.782,58.744 L 61.055,59.485 L 61.055,59.474 C 61.294,59.225 61.536,58.976 61.781,58.727 Z M 41.469,60.807 L 41.469,66.777 C 41.008,66.221 40.524,65.647 40.019,65.059 L 40.019,59.249 C 40.504,59.762 40.988,60.282 41.469,60.807 Z M 54.526,60.599 L 54.526,66.819 C 54.021,67.431 53.538,68.027 53.077,68.603 L 53.077,62.273 C 53.563,61.702 54.046,61.144 54.526,60.599 Z M 59.604,61.01 L 59.605,61.025 L 58.88,61.805 L 58.88,61.796 C 59.118,61.535 59.359,61.272 59.604,61.01 Z M 43.646,63.254 L 43.646,69.478 C 43.196,68.902 42.712,68.295 42.196,67.661 L 42.196,61.61 C 42.683,62.152 43.166,62.7 43.646,63.254 Z M 52.35,63.135 L 52.35,69.52 C 51.833,70.177 51.35,70.803 50.9,71.391 L 50.9,64.899 C 51.386,64.298 51.87,63.71 52.35,63.135 Z M 57.428,63.416 L 57.429,63.429 L 56.704,64.247 L 56.704,64.244 C 56.941,63.97 57.182,63.693 57.428,63.416 Z M 45.822,65.837 L 45.822,72.364 L 46.549,73.382 L 46.549,66.734 C 46.743,66.976 46.937,67.22 47.13,67.464 L 47.999,68.518 L 47.999,75.414 L 48,75.416 L 45.587,72.035 C 45.234,71.555 44.841,71.03 44.409,70.465 L 44.373,70.419 L 44.373,64.101 C 44.86,64.674 45.343,65.253 45.822,65.837 Z M 39.853,64.867 L 39.874,64.891 L 39.894,64.914 C 39.88,64.898 39.866,64.882 39.853,64.867 Z M 40.019,65.059 L 40.019,65.062 L 39.894,64.914 C 39.936,64.963 39.977,65.011 40.019,65.059 Z M 50.174,65.803 L 50.174,72.369 L 50.419,72.026 L 48,75.416 L 48.724,74.401 L 48.724,67.648 L 48.887,67.439 C 49.318,66.884 49.747,66.339 50.174,65.803 Z M 55.253,65.945 L 55.254,65.954 L 54.812,66.473 C 54.957,66.299 55.104,66.122 55.253,65.945 Z M 54.812,66.473 L 54.791,66.5 L 54.723,66.582 C 54.752,66.546 54.782,66.509 54.812,66.473 Z M 54.723,66.582 L 54.527,66.824 L 54.526,66.819 C 54.592,66.74 54.657,66.661 54.723,66.582 Z M 41.549,66.874 L 41.469,66.779 L 41.469,66.777 C 41.495,66.809 41.522,66.842 41.549,66.874 Z M 41.549,66.874 L 41.602,66.937 L 41.597,66.932 C 41.581,66.912 41.565,66.893 41.549,66.874 Z M 53.077,68.603 L 53.078,68.605 L 52.351,69.527 L 52.35,69.52 C 52.586,69.221 52.829,68.915 53.077,68.603 Z M 50.9,71.391 L 50.901,71.396 L 50.419,72.026 C 50.574,71.819 50.735,71.608 50.9,71.391 Z" fill="#000000" fill-rule="evenodd" stroke-width="0.5" stroke="none" marker-start="none" marker-end="none" stroke-miterlimit="79.8403193612775"/></g></g></g><text x="0" y="111" fill="#000000" font-size="5px" font-weight="bold" font-family="'Helvetica Neue', Helvetica, Arial-Unicode, Arial, Sans-serif">Created by Denis Sazhin</text><text x="0" y="116" fill="#000000" font-size="5px" font-weight="bold" font-family="'Helvetica Neue', Helvetica, Arial-Unicode, Arial, Sans-serif">from the Noun Project</text></svg>