<svg enable-background="new 0 0 146 146" viewBox="0 0 146 146" xmlns="http://www.w3.org/2000/svg"><ellipse cx="71.5" cy="73.4" fill="#fff" rx="66.4" ry="66.4" transform="matrix(.7071 -.7071 .7071 .7071 -30.9558 72.0442)"/><path d="m71.5 9c35.5 0 64.4 28.9 64.4 64.4s-28.9 64.4-64.4 64.4-64.4-28.9-64.4-64.4 28.9-64.4 64.4-64.4m0-4c-37.8 0-68.4 30.6-68.4 68.4s30.6 68.4 68.4 68.4 68.4-30.6 68.4-68.4-30.6-68.4-68.4-68.4z"/><path d="m44.5 27.1c-3.4 2.5-12.6 11.8-5.9 26.1 7.6 16.8 19.4 39.6 22.7 45.5l16-7.6z" fill="#fff"/><path d="m79 129c-1.7-.8-2.5-.8-2.5-1.7-.8-1.7-.8-3.4 0-5.9.8-3.4 1.7-6.7-.8-11.8l-5.9-11-10.1 5.1-.8-1.7s-14.3-27.8-23.6-47.2c-9.3-20.2 9.3-32 9.3-32l1.7-.8 49.7 98.6v.8s-1.7 10.1-13.5 8.4c-1.8 0-2.6-.8-3.5-.8zm-34.5-101.9c-3.4 2.5-12.6 11.8-5.9 26.1 7.6 16.8 19.4 39.6 22.7 45.5l16-7.6z"/><path d="m69.7 94.5c-5.1-7.6-9.3-16-13.5-23.6-2.5-4.2-5.1-7.6-6.7-11.8-1.7-4.2-3.4-8.4-4.2-13.5 3.4 3.4 5.9 7.6 8.4 11 2.5 4.2 4.2 8.4 5.9 12.6 3.4 8.4 6.8 16.8 10.1 25.3z"/><text font-family="'SuisseBPIntl-BoldItalic'" font-size="19.2819" transform="matrix(.3309 .6561 -.8929 .4504 49.6908 18.6005)">TIMELINE 10 SEC.</text></svg>