<svg enable-background="new 0 0 512 640" viewBox="0 0 512 640" xmlns="http://www.w3.org/2000/svg"><path d="m412 51.7c-2.3-5.7-10.1-6-12.9-.6-45 88-96.5 172.5-153.9 252.9l-84.2 117.8-32.5-23.2c-6.2-4.4-14.9-3-19.3 3.2l-6.7 9.3c-4.4 6.2-3 14.9 3.2 19.3l32.5 23.2-10.9 15.3-63.8 89.3c-5.1 7.1-3.5 17 3.7 22l28.7 20.5c7.1 5.1 17 3.5 22-3.7l63.8-89.3 10.9-15.3 32.5 23.2c6.2 4.4 14.9 3 19.3-3.2l6.7-9.3c4.4-6.2 3-14.9-3.2-19.3l-32.5-23.2 136.7-191.4c22.4-31.4 41.7-64.9 57.5-100.2 16.6-37 17.5-79.3 2.4-117.3zm-296.7 518.7c-1.2 1.7-3 2.7-4.9 3s-3.9-.1-5.6-1.3l-13.3-9.5c-3.3-2.4-4.1-7.1-1.7-10.5 2.4-3.3 7.1-4.1 10.5-1.7l13.3 9.4c3.3 2.5 4.1 7.1 1.7 10.6zm21.6-30.4c-1.2 1.7-3 2.7-4.9 3s-3.9-.1-5.6-1.3l-13.3-9.4c-3.3-2.4-4.1-7.1-1.7-10.5 2.4-3.3 7.1-4.1 10.5-1.7l13.2 9.5c3.5 2.3 4.3 7 1.8 10.4zm21.8-30.3c-1.2 1.7-3 2.7-4.9 3s-3.9-.1-5.6-1.3l-13.2-9.4c-3.3-2.4-4.1-7.1-1.7-10.5 2.4-3.3 7.1-4.1 10.5-1.7l13.2 9.5c3.3 2.3 4 7 1.7 10.4zm238.7-376.9c-16 41.3-43.7 89.7-82.4 144l-96.6 135.2-12.2-8.7 96.6-135.3c38-53.2 65.2-100.6 80.8-140.7 1.5-3.9 5.8-5.8 9.7-4.3 3.7 1.6 5.6 5.9 4.1 9.8z" fill="#fff"/></svg>