<svg xmlns="http://www.w3.org/2000/svg" xmlns:xlink="http://www.w3.org/1999/xlink" version="1.1" x="0px" y="0px" viewBox="0 0 512 640" style="enable-background:new 0 0 512 512;" xml:space="preserve"><path d="M470.1,11.6c-1.3-6-9-7.6-12.6-2.7c-58.9,79.4-123.5,154.3-193.4,224.2L161.7,335.5l-28.2-28.2c-5.4-5.4-14.2-5.4-19.6,0  l-8.1,8.1c-5.4,5.4-5.4,14.2,0,19.6l28.2,28.2l0,0l-13.3,13.3l-77.6,77.6c-6.2,6.2-6.2,16.2,0,22.3L68,501.3  c6.2,6.2,16.2,6.2,22.3,0l77.6-77.6l13.3-13.3l28.2,28.2c5.4,5.4,14.2,5.4,19.6,0l8.1-8.1c5.4-5.4,5.4-14.2,0-19.6l-28.2-28.2  l166.3-166.3c27.3-27.3,51.8-57.2,73.2-89.4C470.9,93.1,478.8,51.5,470.1,11.6z M92.2,474.4c-1.5,1.5-3.4,2.2-5.3,2.2  c-1.9,0-3.8-0.7-5.3-2.2L70,462.8c-2.9-2.9-2.9-7.7,0-10.6s7.7-2.9,10.6,0l11.6,11.5C95.1,466.7,95.1,471.4,92.2,474.4z M118.5,448  c-1.5,1.5-3.4,2.2-5.3,2.2c-1.9,0-3.8-0.7-5.3-2.2l-11.6-11.5c-2.9-2.9-2.9-7.7,0-10.6s7.7-2.9,10.6,0l11.5,11.5  C121.5,440.3,121.5,445.1,118.5,448z M144.9,421.7c-1.5,1.5-3.4,2.2-5.3,2.2s-3.8-0.7-5.3-2.2l-11.5-11.5c-2.9-2.9-2.9-7.7,0-10.6  c2.9-2.9,7.7-2.9,10.6,0l11.5,11.5C147.8,414,147.8,418.7,144.9,421.7z M442.4,89.2c-22.6,38.1-57.9,81.3-105,128.5L219.9,335.1  l-10.6-10.6l117.5-117.5c46.2-46.2,80.8-88.5,102.8-125.5c2.1-3.6,6.7-4.8,10.3-2.6C443.3,81,444.5,85.6,442.4,89.2z"/><text x="0" y="527" fill="#000000" font-size="5px" font-weight="bold" font-family="'Helvetica Neue', Helvetica, Arial-Unicode, Arial, Sans-serif">Created by Hamza Wahbi</text><text x="0" y="532" fill="#000000" font-size="5px" font-weight="bold" font-family="'Helvetica Neue', Helvetica, Arial-Unicode, Arial, Sans-serif">from the Noun Project</text></svg>