<svg xmlns="http://www.w3.org/2000/svg" viewBox="0 0 60 75" x="0px" y="0px"><title>Stationary - Solid - 014 - Pad</title><g data-name="Desktop Pencil Sharpener"><path d="M1,53a1,1,0,0,0,0,2H5v4a1,1,0,0,0,1,1H59a1,1,0,0,0,1-1V1a1,1,0,0,0-1-1H6A1,1,0,0,0,5,1V5H1A1,1,0,0,0,1,7H5V9H1a1,1,0,0,0,0,2H5v2H1a1,1,0,0,0,0,2H5v2H1a1,1,0,0,0,0,2H5v2H1a1,1,0,0,0,0,2H5v2H1a1,1,0,0,0,0,2H5v2H1a1,1,0,0,0,0,2H5v2H1a1,1,0,0,0,0,2H5v2H1a1,1,0,0,0,0,2H5v2H1a1,1,0,0,0,0,2H5v2H1a1,1,0,0,0,0,2H5v2H1a1,1,0,0,0,0,2H5v2ZM15,6a1,1,0,0,1,1-1H54a1,1,0,0,1,1,1v8a1,1,0,0,1-1,1H16a1,1,0,0,1-1-1Zm0,12a1,1,0,0,1,1-1H54a1,1,0,0,1,1,1v4a1,1,0,0,1-1,1H16a1,1,0,0,1-1-1ZM7,5h4a1,1,0,0,1,0,2H7ZM7,9h4a1,1,0,0,1,0,2H7Zm0,4h4a1,1,0,0,1,0,2H7Zm0,4h4a1,1,0,0,1,0,2H7Zm0,4h4a1,1,0,0,1,0,2H7Zm0,4h4a1,1,0,0,1,0,2H7Zm0,4h4a1,1,0,0,1,0,2H7Zm0,4h4a1,1,0,0,1,0,2H7Zm0,4h4a1,1,0,0,1,0,2H7Zm0,4h4a1,1,0,0,1,0,2H7Zm0,4h4a1,1,0,0,1,0,2H7Zm0,4h4a1,1,0,0,1,0,2H7Zm0,4h4a1,1,0,0,1,0,2H7Z"/></g><text x="0" y="75" fill="#000000" font-size="5px" font-weight="bold" font-family="'Helvetica Neue', Helvetica, Arial-Unicode, Arial, Sans-serif">Created by Creaticca Creative Agency</text><text x="0" y="80" fill="#000000" font-size="5px" font-weight="bold" font-family="'Helvetica Neue', Helvetica, Arial-Unicode, Arial, Sans-serif">from the Noun Project</text></svg>