<svg xmlns="http://www.w3.org/2000/svg" viewBox="0 0 100 125" x="0px" y="0px"><title>languageManifestoKit</title><g><path d="M38,22.5a6.5,6.5,0,1,0,6.5,6.5A6.51,6.51,0,0,0,38,22.5Zm0,10a3.5,3.5,0,1,1,3.5-3.5A3.5,3.5,0,0,1,38,32.5Z"/><path d="M28.17,34.49H28c-5.52,0-14.5,13.05-16.25,15.67a1.5,1.5,0,0,0-.25.83,6.35,6.35,0,0,0,5,6.36V76a6.32,6.32,0,0,0,6.5,6.5c1.53,0,5.5-1.17,5.5-6.5V51.21a24.74,24.74,0,0,1,4-7.4h0a5.8,5.8,0,0,0,.64-6.08A5.63,5.63,0,0,0,28.17,34.49Zm2,7.48a26.63,26.63,0,0,0-4.59,8.64,1.51,1.51,0,0,0,0,.38V76c0,3.18-1.93,3.48-2.5,3.5a3.33,3.33,0,0,1-3.5-3.5V56a1.5,1.5,0,0,0-1.5-1.5,3.24,3.24,0,0,1-3.47-3.08c4-5.92,10.64-13.92,13.47-13.92h.12A2.6,2.6,0,0,1,30.44,39,2.78,2.78,0,0,1,30.13,42Z"/><path d="M68.53,29A6.5,6.5,0,1,0,62,35.5,6.51,6.51,0,0,0,68.53,29ZM62,32.5a3.5,3.5,0,1,1,3.5-3.5A3.5,3.5,0,0,1,62,32.5Z"/><path d="M88.28,50.16C86.53,47.54,77.55,34.49,72,34.49h-.18a5.62,5.62,0,0,0-5,3.23,5.8,5.8,0,0,0,.64,6.08,24.75,24.75,0,0,1,4,7.4V76c0,5.33,4,6.5,5.5,6.5a6.32,6.32,0,0,0,6.5-6.5V57.35a6.35,6.35,0,0,0,5-6.36A1.5,1.5,0,0,0,88.28,50.16ZM82,54.49a1.5,1.5,0,0,0-1.5,1.5V76A3.34,3.34,0,0,1,77,79.49c-.59,0-2.52-.32-2.52-3.5V51a1.51,1.51,0,0,0,0-.38A26.63,26.63,0,0,0,69.89,42a2.78,2.78,0,0,1-.31-3,2.6,2.6,0,0,1,2.33-1.52H72c2.83,0,9.47,8,13.47,13.92A3.25,3.25,0,0,1,82,54.49Z"/></g><text x="0" y="115" fill="#000000" font-size="5px" font-weight="bold" font-family="'Helvetica Neue', Helvetica, Arial-Unicode, Arial, Sans-serif">Created by Brandon Shields</text><text x="0" y="120" fill="#000000" font-size="5px" font-weight="bold" font-family="'Helvetica Neue', Helvetica, Arial-Unicode, Arial, Sans-serif">from the Noun Project</text></svg>