<svg enable-background="new 0 0 98 122.5" viewBox="0 0 98 122.5" xmlns="http://www.w3.org/2000/svg"><g fill="#fff"><path d="m53.8 99.6v-8.1h-49v8.1c0 7.3 4.6 13.3 10.3 13.3h44.3c-3.4-2.8-5.6-7.7-5.6-13.3z"/><path d="m85.8 8.5c-4.1 0-7.4 4.3-7.4 9.5v16h14.8v-16c0-5.2-3.3-9.5-7.4-9.5z"/><path d="m80 8.5h-54.5c-3.9 0-7 4-7 8.9l-.4 71.5h36.7c.6 0 1 .5 1 1.3v9.4c0 7.3 4.6 13.3 10.3 13.3s10.3-5.9 10.3-13.3v-81.6c0-3.8 1.4-7.3 3.6-9.5zm-50.1 18.9h15.5c.6 0 1 .5 1 1.3s-.4 1.3-1 1.3h-15.5c-.6 0-1-.5-1-1.3 0-.7.4-1.3 1-1.3zm33.5 49h-33.5c-.6 0-1-.5-1-1.3s.4-1.3 1-1.3h33.5c.6 0 1 .5 1 1.3s-.4 1.3-1 1.3zm0-15.4h-33.5c-.6 0-1-.5-1-1.3s.4-1.3 1-1.3h33.5c.6 0 1 .5 1 1.3s-.4 1.3-1 1.3zm0-15.5h-33.5c-.6 0-1-.5-1-1.3s.4-1.3 1-1.3h33.5c.6 0 1 .5 1 1.3s-.4 1.3-1 1.3z"/></g></svg>