<svg xmlns="http://www.w3.org/2000/svg" xmlns:xlink="http://www.w3.org/1999/xlink" version="1.1" x="0px" y="0px" viewBox="0 0 98 122.5" style="enable-background:new 0 0 98 98;" xml:space="preserve"><g><path d="M53.8,79.2v-6.3h-49v6.3c0,5.7,4.6,10.3,10.3,10.3h44.3C56,87.3,53.8,83.5,53.8,79.2z"/><path d="M85.8,8.5c-4.1,0-7.4,3.3-7.4,7.4v12.4h14.8V15.9C93.2,11.8,89.9,8.5,85.8,8.5z"/><path d="M80,8.5H25.5c-3.9,0-7,3.1-7,6.9l-0.4,55.5h36.7c0.6,0,1,0.4,1,1v7.3c0,5.7,4.6,10.3,10.3,10.3s10.3-4.6,10.3-10.3V15.9   C76.4,12.9,77.8,10.2,80,8.5z M29.9,23.2h15.5c0.6,0,1,0.4,1,1s-0.4,1-1,1H29.9c-0.6,0-1-0.4-1-1S29.3,23.2,29.9,23.2z M63.4,61.2   H29.9c-0.6,0-1-0.4-1-1s0.4-1,1-1h33.5c0.6,0,1,0.4,1,1S64,61.2,63.4,61.2z M63.4,49.2H29.9c-0.6,0-1-0.4-1-1s0.4-1,1-1h33.5   c0.6,0,1,0.4,1,1S64,49.2,63.4,49.2z M63.4,37.2H29.9c-0.6,0-1-0.4-1-1s0.4-1,1-1h33.5c0.6,0,1,0.4,1,1S64,37.2,63.4,37.2z"/></g><text x="0" y="113" fill="#000000" font-size="5px" font-weight="bold" font-family="'Helvetica Neue', Helvetica, Arial-Unicode, Arial, Sans-serif">Created by James</text><text x="0" y="118" fill="#000000" font-size="5px" font-weight="bold" font-family="'Helvetica Neue', Helvetica, Arial-Unicode, Arial, Sans-serif">from the Noun Project</text></svg>