<svg enable-background="new 0 0 283.5 286.6" viewBox="0 0 283.5 286.6" xmlns="http://www.w3.org/2000/svg"><path d="m144.6 141h-.3l-.2-.3.3-.3.2.1c.1.2.1.2 0 .5zm11.8 0c-.1.1-.1.1-.1.1h.1s.1 0 0-.1zm-11.1 6.7h-.3v.2c.2.1.2.1.3.1.1-.1.2-.1.2-.1h.1l-.1-.1zm11.5-4.3c0-.1 0-.1 0-.1-.1.1-.1.1 0 .1zm1.1 2.9c.2-.1.2-.1.2-.1l.1-.3c-.1 0-.1 0-.1-.1-.1 0-.1 0-.2.1l-.2.2-.1.4c.2-.1.2-.2.3-.2zm-2.3-3.1c.2 0 .2 0 .2-.1v-.1l-.2-.2c-.2 0-.2 0-.2.1v.2zm2.8-1.4c-.1.1-.2.1-.1.2.2-.1.2-.2.1-.2zm-16.3 4.3v.1c.1-.1.1-.1 0-.1zm-11.1-2 .2-.2s0 0 0-.1c-.1 0-.1 0-.1 0h-.2l-.3.2h.2c.1.1.2.1.2.1zm11.6.6-.2.1c0 .1 0 .1.1.1s.1 0 .2 0c0-.1.1-.1.1-.1l.1-.1h-.1zm1.1 1.5-.3.3c0 .1.1.2.1.2.2 0 .2 0 .4-.1 0-.2.1-.3.2-.3l.1-.2h-.2zm-.2-4.8v-.4c-.2-.1-.2-.1-.3-.1l-.1.2.1.2c.2.1.3.1.3.1zm6.9-1.9c0-.1 0-.1 0-.2h-.1c0 .2.1.2.1.2zm-3.7 1.5c0-.2-.1-.2-.1-.2 0 .2 0 .2.1.2zm-1 0c.1.2.1.1.1.1l.1-.2h.2-.3zm1.3 1.2c-.2-.1-.2 0-.2.1.1 0 .2 0 .2-.1zm6.6 2.6.1-.2-.3-.2-.2.2.1.2c.2.1.3 0 .3 0zm-20.8-1.2h-.2c0-.1 0-.1-.1-.1v.3h.1c.2-.2.2-.2.2-.2zm.1 5.6c-.2.1-.2.1-.1.2.1-.1.1-.2.1-.2zm0 .3c-.1.1-.1.2-.1.2l.2.4c.1 0 .1 0 .2.1.1 0 .1-.1.1-.1v-.2l-.3-.5s0 .1-.1.1zm.4-1.7-.1-.2h-.2c-.1.1-.1.2 0 .2l.1.1zm25.5-5.1c.1-.1.1-.1.1-.1h-.2c0-.1-.1-.1-.1-.2zm-26.6.5-.1.1-.2.2-.1.4c.1.1.1.1.2.1.2-.1.2-.1.2-.2-.1-.2-.1-.3 0-.3zm-.3 2-.2-.2-.3.3.3.3h.3c0-.2 0-.3-.1-.4zm-1.2 1.3c-.1.1-.1.4.3.8l.6-.1.3-.7-.8-.3zm1.7-3.6c-.1 0-.2.1-.1.2.1-.1.1-.2.1-.2zm1.2 4.1h-.4c-.1.1-.1.1-.1.1v.1l.2.1h.6c0-.1-.1-.2-.1-.2-.2-.1-.2-.1-.2-.1zm-1.6-7.2-.6.5.2.4c.1.2.2.2.7.1l.2-.5zm.4 8.6c-.1.1-.1.1-.1.1h.2c0 .1.1.1.1.2zm4.8-2.5h-.2l-.1.2c0 .2 0 .2.1.2h.1l.3-.2c-.1-.2-.1-.2-.2-.2zm-1.4 2.5-.1-.1v.1.2l.1.2c.1 0 .1 0 .1-.1 0-.2 0-.2 0-.2s-.1 0-.1-.1zm2.3-2.5v.1c.1-.1.1-.1 0-.1zm-.4.9.2.2c.2 0 .3-.1.3-.2v-.2l-.4-.1zm-2 5.1h.1c-.1 0-.1 0-.1 0zm-.4-11.9h-.5c0 .1.1.2.1.2.1.1.1.1.1.1h.4c.1-.1.1-.1.1-.1 0-.1 0-.1 0-.1zm-.6.3c0-.2 0-.2-.1-.2 0 .2 0 .2.1.2zm-.9-.1c.1.1.1.1.1.1l.1-.2h.2l-.3-.1zm1.5 12.2h-.1l-.1.2.2.1.2-.1c-.1-.1-.1-.1-.2-.2zm-.5-5.3-.1.2c-.1 0-.1 0-.2 0l.3.1.1-.1c0-.3 0-.3-.1-.2zm-.9 0c0 .2 0 .2.1.2.1-.2 0-.2-.1-.2zm20.3-8.5-.1-.2c-.2 0-.3 0-.3.1l-.1.2.2.2zm3.4 2.9c-.4-.3-.2-.4-.4-.3l-.4.2.2.6.7-.2zm.2 4.3c0-.1 0-.1-.1-.1l-.1-.1-.4-.1c.1.1.1.2.1.2.1.1.1.1.1.1h.4c-.1 0-.1 0 0 0zm-1.2 1.1-.1.4.2.2c.3-.1.3-.2.3-.3v-.3zm1 2.9c.2.1.2 0 .2 0-.2 0-.2 0-.2 0zm-2-.1v.1l.2.1.1-.2-.1-.1c-.1 0-.2 0-.2.1zm2.9.6h-.5l-.1.8.9.2v-.4c-.3-.5-.1-.6-.3-.6zm-1.6.3-.2-.1-.2.3.3.2.2-.1c0-.2 0-.3-.1-.3zm-1.3.5-.1.2.1.2c.2.1.2.1.3 0v-.1l-.1-.3c-.1-.1-.2-.1-.2 0zm.5-9.1h-.2l-.1.3.3.1.2-.2c-.1-.2-.1-.2-.2-.2zm4 5c-.1-.3-.3-.4-.4-.4h-.3l-.1.5.5.1zm6.7-3.8v.1c.1-.1.1-.1 0-.1zm29.8 21c.9-.7 1.8-1.4 2.7-2.1-5.1-6.5-12.1-11.6-20.1-14.8l-.5 2.9c6.8 3.2 12.8 7.9 17.2 13.6-.9.7-1.8 1.4-2.7 2.1 8.4 4.4 15.4 11.1 19.8 19-1.1.7-2.3 1.3-3.6 1.9 3.9 6.4 7.1 13 9.6 19.9-15.7 4.6-33.6 7.2-52.7 7.4-3.4 5.7-7 9.7-9.7 12.7-.9 1-2.1 2.3-2.8 3.2.1.2.3.5.4.8.6 1.1.7 2.3.3 3.5-.3 1-.9 1.8-1.7 2.3.3.2.6.5.8.7.9.8 1.4 1.9 1.5 3.1s-.3 2.3-1.1 3.2l-.1.1c.1 1-.2 1.9-.8 2.8-.7 1-1.7 1.6-2.8 1.9-.1 0-.2 0-.2 0-.1 0-.1 0-.2 0-.5.1-1.1 0-1.6-.1.7 5.4 1.1 15.2-1.8 27.6-.5 2-2.3 3.5-4.3 3.5-.3 0-.7 0-1-.1-1.2-.3-2.1-1-2.8-2-.6-1-.8-2.2-.6-3.4.3-1.5.6-3 .9-4.4-.6.4-1.3.6-2.1.6h-.1c-2.4 0-4.4-1.9-4.5-4.3-.2-6.7.1-12.4.9-16.9h-.1c-1.5 0-2.9-.7-3.7-2-.9-1.4-.9-3.2-.2-4.6-.5-.2-1-.6-1.4-1-1.7-1.8-1.6-4.6.2-6.3.2-.2.4-.4.6-.6-1.2-.4-2.2-1.3-2.7-2.6-.5-1.1-.4-2.4.1-3.4-.4-.5-.9-1.1-1.4-1.6-2.7-3-6.3-7.1-9.7-12.7-19-.2-36.8-2.8-52.5-7.4 2.5-6.9 5.7-13.6 9.6-19.9-1.2-.6-2.4-1.2-3.6-1.9 4.4-7.9 11.4-14.6 19.8-19-.9-.7-1.8-1.4-2.7-2.1 4.5-5.7 10.4-10.4 17.2-13.6l-.5-3c-8 3.2-15 8.3-20.1 14.8.9.7 1.8 1.4 2.7 2.1-8.4 4.4-15.4 11.1-19.8 19 1.2.7 2.3 1.3 3.6 1.9-4 6.5-7.3 13.4-9.8 20.5-1.7-.5-3.3-1.1-4.9-1.7 2.5-7.3 5.9-14.4 10-21.1-1.2-.6-2.4-1.2-3.6-1.9 4.4-7.9 11.4-14.6 19.8-19-.9-.7-1.8-1.4-2.7-2.1 5-6.4 12-11.6 19.9-14.7h.1s0 0 0-.1c1-.4 1.9-.7 2.9-1.1-5.1-1.6-9.8-3.6-14.3-5.9l.4-.3c0-.4-.2-.6-.3-.6h-.4l-.2.6c-.2-.1-.4-.2-.5-.3l.1-.2v-.3h-.3v.2c0 .1 0 .1.1.2-6.1-3.3-11.6-7.1-16.2-11.2l15.7-15.7h.1c.1 0 .2-.1.3-.3l-.1-.1.1-.1c4.3 6.4 9.8 12.7 16.5 18.6.3-2 .7-4.1 1.1-6.3.2-1.3.5-2.5.8-3.8-26.3-16.2-25.3-48.4-25.3-48.8 0-3.8-2.8-5.2-4.4-5.6-.2-.1-.4-.3-.5-.5 0-.2 0-.5.2-.6 2.4-2 25.8-42.8-8.2-57-.3-.1-.5-.4-.4-.8s.4-.5.7-.5c.6.1 1.1.1 1.6.2 27.8 4.3 35.9 20 36.2 20.7.1.2.1.5-.1.7-14.1 14.3-4.5 27.8-4.4 28 .2.2.2.6 0 .8-4.3 5.1-6.5 11-6.5 17.1 0 8.8 5.4 17.9 15.2 24.4.1 0 .2-.1.2-.1.2.3.5.5.8.7 1.8 1.2 3.8 2.2 5.9 3.2h.1v-1.9c2.6-2.4 5.7-4.3 9.1-5.7 1.1-5.9 8.4-10.5 17.3-10.5 9 0 16.4 4.7 17.3 10.8 3.2 1.4 6 3.2 8.5 5.5v1.8h.3c14.2-6.4 22.1-17.5 22.1-28.2 0-6.1-2.3-12-6.5-17.1-.2-.2-.2-.6 0-.8.1-.1 9.7-13.6-4.4-28-.2-.2-.2-.5-.1-.7.4-.4 8.5-16.1 36.3-20.4.4-.1 1-.1 1.6-.2.3 0 .6.2.7.5s-.1.6-.4.8c-34.1 14.2-10.6 55.1-8.3 57 .2.2.3.4.2.6 0 .2-.2.4-.5.5-1.6.5-4.4 1.8-4.4 5.6 0 .5 1.1 32.8-25.5 49 .3 1.2.6 2.4.8 3.6.4 2.2.8 4.3 1.1 6.3 6.7-5.9 12.2-12.2 16.5-18.6l4.2 4.2s0 .1.1.2h.1l.5.5-.2.1-.1.1v.1h.1l.2-.1s0 0 .1-.1v-.1l1.3 1.3v.4l.5.1 9.5 9.5c-5.3 4.8-11.8 9.1-19.1 12.7l-.1.1c-3.8 1.8-7.8 3.5-12.1 4.9 9.4 3 17.6 8.6 23.4 16-.9.7-1.8 1.4-2.7 2.1 8.4 4.4 15.4 11.1 19.8 19-1.1.7-2.3 1.3-3.6 1.9 4.1 6.7 7.5 13.8 10 21.1-1.6.6-3.2 1.1-4.9 1.7-2.5-7.1-5.8-14-9.8-20.5 1.2-.6 2.4-1.2 3.6-1.9-4.6-8.1-11.5-14.8-19.9-19.2zm7.1-34c-.1-.1-.1-.1-.2-.2-.1 0-.1 0-.2 0 0 0-.1 0-.1.1l.2.1zm1.6-9.2.1.1s.1 0 .1-.1v-.1h-.1c-.1 0-.1 0-.1.1zm-.4.4.1-.1v-.2h-.2v.1c-.1.1 0 .2.1.2zm-.7 0c0-.1 0-.1 0 0zm-.6-2.8s-.1 0-.2 0l.2.4.2.1s.1 0 .1-.1 0-.1 0-.1l-.2-.3s0 0-.1 0zm-.2-.2s.1.1.2 0c-.1 0-.1-.1-.2 0zm-.4-.5.2.2c-.1-.1-.1-.1-.2-.2l.2-.1s0 0-.2.1zm-19.2 17.9s0 0-.1 0zm.8.9v-.1s0 0-.1 0l-.1.2s.1 0 .2-.1zm.2-4.5h-.1l-.1-.1s0 0-.1.1l.1.1zm1.2 9.2-.2.1-.1.1v.1h.1.1c.1-.1.1-.1.1-.3 0 .1 0 .1 0 0zm.1-7.2s0 0-.1-.1c0 0 0-.1-.1-.1l-.2.3v.2s0 .1.1.1.1 0 .1-.1zm-.1-1.4c.1-.1.1-.2.1-.3h-.1l-.1.1zm.8 6 .1-.1s0-.1-.1-.1h-.1l.1.2c-.1 0-.1 0 0 0zm0-9.3c0 .1 0 .1.2.2h.2l-.1-.3-.1-.2-.1-.1v.1c0 .1 0 .1-.1.3zm.4 1.2-.2.1c-.1 0-.1.1-.1.3h.2l.2-.3zm.5-1.7.2-.4-.3-.2c-.1-.1 0 0-.3.2l-.1.2zm-.7 10.7c-.1.1-.1.1 0 0 0 .1 0 .1 0 0zm.1-.5-.2-.1v.2l.2-.1c-.1.1-.1.1 0 0zm.8-7.4-.2-.3-.7.2.2.5.4.1c.4-.2.4-.4.3-.5zm.2-1.9-.2-.2h-.2s0 0-.1 0v.1l.2.1h.1zm.1-1.4-.2-.1-.1.2.1.1c.1 0 .2 0 .2-.2zm1 4.9s-.1-.1-.2 0c.1.1.1.1.2 0zm.4.5-.2-.1s.1 0 .2.1l-.2.1h.1zm2.8 2.1-.4-.1-.1.2c-.1.1-.1.2.1.4l.2-.1zm-.2-1.5-.2.1s-.1 0-.1.1v.1l.3.1s0 0 .1-.1c0 0 .1-.1.2-.1zm.2-4 .1-.2s0-.1-.2-.1l-.1.1v.1c0 .1.1.1.2.1zm-.2 4.3-.2.2-.1.2v.1l.1-.1c0-.1 0-.1.2-.1.1-.1.1-.1.1-.2.1 0 0 0-.1-.1zm1.2 1.9-.4-.2-.5.6.5.5.5-.1c.1-.6.1-.7-.1-.8zm0-8.4s0-.1 0-.2l-.5.2-.1.2s0 .1.1.1.1 0 .2 0l.3-.2s0 0 0-.1zm0 3.4.3.2c.1.1 0 0 .3-.3l.1-.3-.6-.2zm-.3.1c-.1.1 0 .1.1.1-.1 0-.1 0-.1-.1zm-.5-.9v.3h.1c.1 0 .1 0 .2-.2l-.1-.1zm1 3.4-.1-.2-.3-.1-.1.3.2.1c.1 0 .2 0 .3-.1zm1-.8-.1-.4c-.4-.1-.6-.1-.6.1l-.2.3.5.5zm0-2.3s0 .1.1.1c0 0 0-.1-.1-.1zm.2.5c0-.1 0-.1 0 0zm.1-1h.1s0 0-.1-.1h-.1v.2s.1-.1.1-.1zm0 5.1c-.1-.1-.1-.1-.1.1 0 0 .1 0 .1-.1zm.8.6-.6-.2-.2.4c-.1.1 0 0 .3.4l.3.1zm-.3-1.8h.2v-.2h-.1s-.1 0-.2.1zm.6 1-.1-.3-.3.1v.2c0 .1 0 .1.2.2zm-.2-1.8h.2c0-.1-.1-.1-.2 0v-.2c0-.1 0-.1 0 .2zm.9 1.2-.1-.2h-.2s-.1 0-.1.2l.2.2c.2 0 .2 0 .2-.2zm-.1-1.4s-.1 0-.1.1.1 0 .1-.1zm.6.1c-.1 0-.1 0-.1-.1h-.3s0 0-.1.1c0 0 0 .1-.1.2l.4.1.1-.1c.1-.1.2-.1.1-.2zm3.3-1.1c0-.1 0-.1 0 0zm.1-2-.1-.1v.1l.1.1h.1c-.1 0-.1 0-.1-.1zm.4-.2c0-.1-.1-.2-.2-.2l-.1.1.1.1zm.4-.4c0 .1 0 .1 0 0zm.7-11.9.1.2.2-.1v-.1s-.1-.1-.2-.1zm0 2.3-.1-.2-.1-.1h-.1v.1s.1 0 0 .2h.3c-.1.1 0 .1 0 0zm-.5-2.3s0 0 .1.1c0 0 0 .1.1.1l.2-.4v-.2s0 0-.1-.1c-.1.1-.1.1-.1.1zm0 .4s0-.1-.1-.1c0 0 0 .1.1.1zm-.2.4-.1.1h-.1s0 0 .1.1h.1zm-.4-2.8v.2c0 .1.1.2.3.2l.1-.2-.1-.3zm-1.4.1-.1.1s0 0 .1-.1l-.1-.1c.1 0 .1.1.1.1zm-.1 4s0 .1.1.1l.2-.1s0-.1-.1-.1zm.2.9.1.1c.1 0 .1 0 .2-.1l-.1-.2h-.3zm.1-5.4h-.2l-.1.1.1.1s.1 0 .2.1c.1 0 .1 0 .2-.1.1 0 .1-.1 0-.1zm-.4-1.4-.2.1.1.1h.1c.2-.1.2-.1 0-.2zm-.1 0h.1v-.1s-.1 0-.1.1zm-.1.9.2.2.3-.4-.3-.3-.3.2c-.1 0 0-.1.1.3zm.1.6s-.1-.1-.1 0c0 0 .1.1.1 0zm-.1 5.1c.1 0 .1 0 0 0zm-1.6-8.4.2.2h.1.2l-.2-.2h-.3c.1-.1.1-.1 0 0zm.4 1.9-.2-.3-.6.3.2.5.4.1c.3-.3.3-.5.2-.6zm-.7-1-.2.1c-.1 0-.1.1-.1.3h.2l.2-.2zm-.4-1.4c0 .1.1.2 0 .3 0 .1 0 .1.2.2h.1l-.1-.3-.1-.2zm-.2 4s0-.1.1-.1h.1s0 0 0-.1h-.1zm-.1.5s0-.1-.1-.1c0 0 0 0 .1.1zm-.5-1.2.2.1.1-.1s0-.1 0-.2h-.1zm0 1.5c0 .1 0 .1.1.2 0 0 0 0 .1-.1l.2-.3s0 0-.1-.1c0 0 0-.1-.1-.1zm-4 8c0 2.4 2 4.4 4.4 4.4s4.4-2 4.4-4.4-2-4.4-4.4-4.4-4.4 2-4.4 4.4zm-.1 9.1-.1.3.1.2s0 0 .1.1h.1v-.2s0 0-.1-.1c0-.2-.1-.2-.1-.3zm-.4-.8v.2l.1.1c.1-.1.1-.1.1-.2l-.1-.1zm-.1 5.1v.1s.1.1 0 .2c0 .1 0 .1.2.1v.1h.2v-.1c0-.1 0-.1-.1-.2l-.1.1-.1-.1zm-.3-3.6-.2-.1c-.1-.1-.1-.1-.1-.1h-.1v.2h.2c.1 0 .1.1.1.2.1.1.1.1.3.1.1 0 .1 0 .1-.1zm-.4-2.8.1.2s.1 0 .1-.1v-.1l-.1-.1s-.1 0-.1.1zm-.1 1c.1 0 .1 0 0 0zm-.4-5.8c-.1 0 0 0 0 0zm-.2-1c.1.1.1.1.1.1h.1v-.2zm0 6.1.2-.1.1-.2-.2-.1-.1.1c-.1.1-.1.2 0 .3zm-.4.4-.3-.4-.3.2c-.1.1 0 0 .1.4l.2.2zm-.6-6.1s0 .1.1.1l.1-.3v-.1s0 0-.1-.1c0 0 0 0-.1 0v.2c-.1.1-.1.1 0 .2zm.1 5.4h.1v-.1s0 0-.1.1zm-.4-6.2c0 .1 0 .1.1.1l.2-.2.1-.2v-.1l-.1.1s0 .1-.2.1c0 0 0 0-.1.2zm-.2 4.2s0 .1.2.1l.1-.1v-.1s0-.1-.2-.1zm-.3-.6.1.1h.2v-.2h-.1c-.1-.1-.2 0-.2.1zm-.1-.9s0 0 .1.1h.1c-.1 0-.2 0-.2-.1zm-.5-2.1.1.2.3.1.1-.3-.2-.1c-.1 0-.2 0-.3.1zm-.9.7.1.4c.4.1.5.1.6-.1l.2-.3-.5-.4zm0 2.1s0-.1-.1-.1c0 0 0 .1.1.1zm-.3.6h.1v-.2s0 .1-.1.2l-.1-.1s0 0 .1.1zm-.2 3.8.1-.1h.1s0 0 0-.1h-.1zm-.2.4s0 .1.1.1c0 0 0-.1-.1-.1zm-.2-7.7h.1s.1 0 .1-.1l-.1-.1h-.2zm-.4.6h.1l.1.1s0 0 .1-.1l-.1-.1zm0 5.7.4.1.1-.1s0 0 0-.1c-.1 0-.1 0-.1-.1h-.3s0 0-.1.1c0-.1 0 0 0 .1zm-.2-.1s.1 0 .1-.1c-.1-.1-.1-.1-.1.1zm-.3-5.5s.1 0 .1-.1c0 0-.1 0-.1.1zm-.6-.1c.1.1.1.1 0 0l.4.1s0 0 .1-.1c0 0 0-.1.1-.2h-.4l-.1.1c-.1 0-.1.1-.1.1zm-.4 9.7.1.1.2-.1-.1-.2h-.1c-.1.1-.1.1-.1.2zm-.4-3s0 .1.1.1l.1-.2v-.2-.1l-.1.1s0 .1-.1.1zm-.8-2.2.2.2s.1-.1.1-.2l-.1-.1h-.1c-.1-.1-.1 0-.1.1zm-.4.3-.3.1v.2c0 .1 0 .1.2.2l.1-.1zm-.3-.4v-.1zm-.8-1.6.1.1s0 0 0-.1l-.1-.1h-.1c.1 0 .1 0 .1.1zm-.3.3c0 .1 0 .1.1.2l.1-.1-.1-.1zm-.4.3s.1 0 0 0c0-.1 0-.1 0 0zm-85.3 4.8c.1 0 .1-.1 0-.2-.1 0-.1 0 0 .2zm-1.1-10.9.2-.1.1-.1.1-.1h-.1s-.1 0-.2 0c-.1.1-.1.1-.1.3-.1 0-.1 0 0 0zm.1 3.8c-.1 0-.1 0 0 0 .1.1.1 0 0 0zm-.6 4.7h.3s0-.1-.1-.2h-.2v.2c-.1-.1-.1 0 0 0zm-.2.8.1.1c.1 0 .1.1.3-.1v-.2l-.2-.1zm-.1 1s0 0 0-.1h-.1s0 0 .1.1zm-.3-3.2-.2.2v.1s0 .1.1.2l.3-.3v-.2s0-.1-.1-.1c-.1.1-.1.1-.1.1zm-.2-4.6c-.1.1-.1.2 0 .2h.1l-.1-.2c.1.1 0 0 0 0zm-.2 5.1s-.1.1.1.2c0-.1 0-.2-.1-.2zm.1-6c.1 0 .1 0 0 0 0-.1 0-.1 0 0zm-.2.5c.2-.1.1-.1 0 0zm-2.3 9.2s-.1 0-.2 0l.2.2.2.1h.1s0 0 0-.1l-.1-.2c-.1 0-.1 0-.2 0zm-.2-3.5v-.1c-.1 0-.1 0 0 .1zm-.8-.8.1.2c0-.1 0-.1-.1-.2l.2-.1s0 0-.2.1zm-1.1-14.1h.2s0-.1-.2 0c-.1-.1-.1 0 0 0zm-.2.5c.1.1.1.1.3.1v-.1l-.1-.1zm-.2.6c-.1-.1-.1 0 0 0zm-2.1 1h-.2l-.2.1-.1.1h.1s.1 0 .2.1c.1 0 .1 0 .2-.1s.1-.1 0-.2zm-.6-2.1.4.1.1-.1s0 0 0-.1c-.1 0-.1 0-.1-.1h-.3s0 0-.1.2c.1-.1.1-.1 0 0zm-.2-.1s.1 0 0 0c.1-.1 0-.1 0 0zm-.7-.1.3.1h-.1l-.2-.1c.1-.1.1-.1 0 0zm-.1 1.9s0 .1 0 0v.2h.1l.1-.1zm-.3-1.1.3.1v-.2h-.1c0-.1-.1-.1-.2.1zm-.1 0c-.1.1-.1.1 0 0v.4h.1.2zm.1.7s.1.1.2 0c0 0-.1 0-.2 0zm-.2-4.4-.2-.1-.1.2s0-.1.1-.1zm-.3-1.6c-.1.1-.1.1 0 .2l.1.1.2-.1-.1-.1c0-.1 0-.1.2-.2 0-.1 0-.1 0-.3 0-.1-.1-.1-.2-.1l-.1.3zm0 2.2c-.2-.1-.2-.1 0 0zm-.3 1.7c-.4-.1-.6-.1-.6.1l-.2.3.5.5.4-.4zm-1-1.4.3.2c.1.1 0 0 .3-.2l.1-.2-.5-.2zm-.1-1.5c.1 0 .1 0 0 0 0-.1 0-.1 0 0zm-.2 3.7-.1.3.2.1c.1 0 .2 0 .3-.1l-.1-.2zm0-2.1c-.1.1 0 .1 0 0 0 .1 0 .1 0 0zm-.4-.9v.3h.1c.1 0 .1 0 .2-.2l-.1-.1zm-.3 4.4-.2.1s.1 0 .2-.1v.2s0 0 0-.2zm-.5-1.2c0 .1 0 .1.1.2h.1l.1-.2s0 0-.1-.1c0 0 0-.1-.1-.1zm-.1 1.2c.1-.1.1-.2.3-.2.1-.1.1-.1.1-.2s0-.1-.1-.1l-.2.2zm-.1.2s.1 0 0 0c0-.2 0-.1 0 0zm-.3-2.2h.2s0-.1 0-.2l-.1-.1h-.1c-.1.2-.1.2 0 .3zm0 1.2-.5.1v.3c0 .1 0 0 .3.1h.3zm-.4-.7c.1.2.2.2.3.1v-.2l-.1-.2zm-.3.5v.2h.2l.1-.1c-.1-.1-.1-.1-.1-.1zm-.1.2c0-.1-.1-.1 0 0zm-.1 3.4s0 .1.2 0c-.1 0-.1 0-.2 0zm-1.5-2.2-.1-.3h-.3v.2c0 .1 0 .2.2.2zm.6 1.8c0-.1 0-.2-.2-.2l-.1.1.1.2zm.3-1.2.3-.3c-.1-.4-.2-.5-.3-.5h-.3l-.2.6zm.4 1 .1.3v-.1l.1-.1c-.1-.1-.1-.1-.2-.1zm.5 1.2c0-.1 0-.1 0 0l-.1-.4s0 0-.1 0c0 0-.1 0-.2 0l.1.4.1.1c.1 0 .2 0 .2-.1zm2.7 13.2-.1-.3-.6.1.1.5.4.2c.2-.2.3-.3.2-.5zm-.6-2.2c0 .1 0 .1.1.2h.1v-.3l-.1-.2-.1-.1v.1c.1.1.1.1 0 .3zm0 1.2c-.1 0-.1.1-.1.3h.2l.3-.2-.2-.2zm1.1-.7-.2-.2h-.1s0 0-.1 0v.1l.1.2h.1c.1-.1.1-.1.2-.1zm.3-1.2-.2-.1-.1.1.1.1c.1 0 .2 0 .2-.1zm.2 4.6s0-.1-.2 0c0 0 .1.1.2 0zm0-.6.1.2.4-.3-.3-.4-.3.1s.1 0 .1.4zm.3-.7.1.1h.1c.1-.1.1-.1 0-.2l-.1-.1zm.1-.2c0-.1 0-.1 0 0-.1 0-.1 0 0 0zm.1-2.5c.1 0 .1-.1 0 0zm.2 4.1-.3-.1h-.2-.1l.1.1s.1 0 .2.2h.3c0-.1 0-.1 0-.2zm0-6.7-.1-.3s0 0-.1 0c0 0-.1 0-.2 0l.1.4.1.1h.1c0-.2 0-.2.1-.2zm.7 6.1-.3.1-.1.1v.1h.1.2s0 0 .1-.1c0-.1 0-.1 0-.2zm-.4-.5h.2l.1-.2-.2-.1-.1.1c-.1 0-.1 0 0 .2zm.9-.2c-.1-.1-.1-.1-.2 0v.2s.1 0 .2-.2zm1.1-6.2s-.1-.1-.2.1c.1 0 .2 0 .2-.1zm.6 1.8s0 0-.1-.1c0 0-.1-.1-.2-.1l-.1.5.1.2h.1c0-.1 0-.1.1-.1zm0-1.3c0-.1 0-.1 0-.2l-.3-.3s0 0-.2.1c0 0-.1 0-.2.1l.4.4h.2s.1 0 .1-.1zm.1 6.6c-.1-.1-.1 0 0 0 0 .1 0 .1 0 0zm.9.7-.1-.6h-.5v.4c0 .1 0 0 .3.2zm-.2-3.9.1.1s.1 0 .2-.1v-.2s-.1 0-.1.1zm.1-3.7s0-.1-.1-.1c0 0 0 .1.1.1zm-.3 6.3v.1c0 .1.1.1.2.1l.1-.2-.1-.2zm.1-6.2s0-.1-.1-.1l-.3.3v.1s0 0 .1.1h.1l.2-.2c.1-.1.1-.1 0-.2zm.6 7.9s-.1 0-.1.1.1 0 .1-.1zm0-2.3-.1-.1h-.1v.2l.2.1c0-.1 0-.1 0-.2zm0-6.2-.2.2.2-.2c0 .1 0 .1 0 0zm.1-2.4c0-.1-.1-.2 0-.3.1-.4.2-.8.2-1.2 0-2.4-2-4.4-4.4-4.4s-4.4 2-4.4 4.4c0 2.3 1.8 4.2 4 4.4s0 .1.2 0h.3c1.9 0 3.6-1.2 4.1-2.9zm.3 6.8.1-.1s0-.1-.1-.2h-.2l-.1.2zm0 2.6c.1-.1.1-.1 0 0zm.3 1.6-.1-.1h-.2.1l.2.1c-.1.1-.1.1 0 0zm.5-4.1-.1.1s0 0 .1-.1zm.3 1.7-.2.2.2.1.2-.1c-.1-.1-.2-.2-.2-.2zm0-2.6-.1-.2-.5.3.3.4.3-.1c.2-.1.1-.1 0-.4zm.2-.7s-.1-.1-.2 0zm.8 4.8h-.3l-.2.1c-.1 0-.1 0-.2 0v.1l.2.1.1-.1s.1 0 .3.1c.1 0 .1 0 .3-.1-.1-.1-.1-.2-.2-.2zm.4-1.1-.3.2-.1.2v.1h.1l.2-.2s0 0 0-.2c.1.1.1 0 .1-.1zm.4.6c0-.1 0-.1-.1-.2 0 0-.1 0-.2 0v.3l.1.2.1.1v-.1c0-.1 0-.2.1-.3zm.1-1.7-.2-.1-.3.2.2.3.2-.1c.1.1.1 0 .1-.3zm.1-.6-.1-.6-.4-.2c-.4.3-.4.4-.3.6l.2.3zm.7 3-.2-.3-.3.2.1.2c0 .1.1.2.4.2zm.3-4.6-.1.1h-.1v.1h.1zm.2 1 .1-.1-.1-.1-.1.1s-.1.1.1.1zm.2 3.9.7-.1.2-.5c-.3-.4-.5-.5-.6-.4l-.4.2zm1 1.5-.1-.1s-.1-.1-.2 0v.1h-.1-.2l-.1.1h.1s.1 0 .2.1c.1 0 .1 0 .2-.1l.1.1zm.5-3.7.3-.2-.4-.5-.5.3.2.4c.1.1 0 0 .4 0zm.4 3.3c0-.1-.1-.1-.1-.1v-.2s0 0-.1 0v.1zm.5.3s-.1-.1-.2.1c0 0 .1 0 .2-.1zm.6.6c0-.1 0-.1 0-.2l-.3-.3s0 0-.2.1c0 0-.1 0-.2.1l.4.4h.2s0 0 .1-.1zm.1-1.6c-.1 0-.1 0 0 0 0 .1 0 .1 0 0zm.1-2.9-.1-.1-.2.2c.1 0 .1 0 .3-.1-.1.2 0 .2 0 0zm.4 2.3-.1-.1-.1.2.1.1s.1.1.2 0zm.2-.6h-.2v.1h.2c0 .1 0 0 0-.1zm4.4 2.4-.1-.2s-.1 0-.1.1v.1h.2c0 .1 0 .1 0 0zm.5-.2-.1.2.2.1.1-.1c-.1-.1-.1-.1-.2-.2zm.2-5.7-.3.1-.2.1-.1.1h.1s.1-.1.2 0c.1 0 .1 0 .2-.2.2 0 .2 0 .1-.1zm.5 5.9c-.1.1 0 0 0 0zm75.8-11.3c0 .1.1.1.2 0l.1-.2-.1-.2s-.1 0-.2.1zm-.3 3.9-.2-.1h-.1l.1.1c.1 0 .1 0 .1.2.1.1.1.1.3.1.1 0 .1 0 .1-.1zm-.5-4.5c-.1 0-.1.1 0 .3h.2l.2-.2-.2-.2zm18.2-32.5c0-.1.1-.2.1-.2 0 .1 0 .1-.1.2zm-69.3-.3c0 4.6 4.6 8.5 10.8 9.6v2.4c1.1.1 2.1.1 3.2.1h.2c1 0 2-.1 2.9-.1v-2.4c6.5-.9 11.4-4.9 11.4-9.7 0-2.3-1.2-4.4-3.1-6.1 0 .1.1.1.1.3l-.7.1-.2-.2s-.1-.1 0-.2c.1 0 .1 0 .2-.1h.5c-2.6-2.2-6.6-3.5-10.9-3.5-.2 0-.4 0-.6 0v.1c0 .1-.1.1-.3.1l-.1-.2c-7.5.3-13.4 4.6-13.4 9.8zm22.5 11.1c-.3.1-.6.2-.9.3v.3c1.1-.1 2.2-.3 3.3-.4v-.1h-2.4zm-16.5 0h-2.9v.1c1.1.2 2.2.3 3.3.5v-.5c-.1 0-.2-.1-.4-.1zm68.1-30.3c0-.3 0-.5.1-.7 0 .2 0 .5-.1.7zm-24.7 54.1.1-.1-.1-.3v.2l-.1.1s0 .1.1.1zm0-.8c0-.1 0-.1-.2-.1 0 0 0 .1.2.1zm-6.5 22.6c.1 0 .2-.1.3-.1-2.2 1-4.6 1.8-7.4 2.6 2.1 0 4.1.9 5.7 3.1 2.1 3 2.2 3.5-1.3 2.6-8-1.9-19.5 8.2-22.4 5.5-1.4-1.3-.7-3.1 1.3-3.6 2.6-.6 7.3-4.6 12.1-6.6-5.1 1-10.8 1.5-16.9 1.5s-11.8-.6-16.9-1.6c4.8 1.9 9.5 6 12.1 6.6 1.9.5 2.6 2.3 1.3 3.6-2.9 2.8-14.5-7.4-22.4-5.5-3.5.9-3.4.3-1.3-2.6 1.6-2.2 3.6-3.1 5.7-3.1-2.7-.7-5.2-1.6-7.4-2.6.1 0 .2.1.3.1l-.1.3v.1c-2.3 8-2.9 13.6-2.6 18 .7 1.6 1.6 3.2 3 5 2.1 2.8 1.8 6.1 1.3 10.1.8 2.2 1.6 4.6 2.1 7.4 1.8 9.8 5.5 16.7 9.1 21.9 1.5 1.2 3.1 2.1 4.5 2.8 0-.2.1-.4.3-.6.4-.4 1.1-.4 1.6 0 3.4 3.6 4 4.2 9.3 4.2h.5c5.3 0 5.9-.6 9.3-4.2.4-.4 1.1-.5 1.6 0 .2.2.3.4.3.6 1.3-.6 2.6-1.4 4-2.4 3.7-5.2 7.5-12.2 9.4-22.2.6-3 1.4-5.5 2.3-7.9-.4-3.8-.6-7 1.4-9.7 1.2-1.6 2.1-3 2.7-4.4.4-4.5-.2-10.3-2.6-18.6zm-19.7 69c-.1 0-.2 0-.3.1-2.1 1.8-3.9 2.3-8.3 2.3-.1 0-.4 0-.5 0-4.4 0-6.2-.5-8.3-2.3-.1 0-.2 0-.3-.1-.8-.3-2-.7-3.3-1.4.9 1 1.7 2 2.5 2.8 1.1 1.3 2.2 2.5 3.1 3.6.1 0 .3 0 .4-.1h.3c1.2-.1 2.3-.2 3.5-.2 2.8 0 5.5.4 8 1.2 1-1.4 2.3-2.9 3.8-4.5.7-.8 1.5-1.7 2.3-2.6-1.2.6-2.2.9-2.9 1.2zm24.3-74.2c-1.1-.9-2.4-1.7-3.9-2.4s-.1 0-.1.2c-.1 0-.1.1-.2 0 0 0-.1 0-.1-.1l.2-.1h.1c-.8-.4-1.6-.7-2.4-1.1-1.8 2.9-3.4 5.2-4.4 6v.1h.1l-.1.3h-.2c-.1 0-.1-.1-.1-.2-.2.1-.3.1-.4.1-.7-.3.1-3.6 1.3-7.7-1.6-.5-3.4-.9-5.2-1.3l-.1.5c-.5.2-.7.1-.8-.1l-.2-.4.2-.2c-.7-.1-1.5-.3-2.2-.4 0 0 0 .1-.1.1v-.1c-3.8-.6-7.9-1-12.1-1.1-.6 6.5-1.5 13-2.6 13s-2-6.5-2.6-13c-2.8.1-5.6.3-8.2.6l.1.1c0 .1 0 .1.2.1.1.1.1.1.1.3 0 .1 0 .1-.1.1l-.2-.2-.1-.2v-.1c-4.5.5-8.6 1.4-12.2 2.5 1.3 4 2 7.2 1.3 7.6-.7.3-2.8-2.5-5.1-6.2-2.4 1-4.5 2.2-6.1 3.4 2.9 2.3 7.4 4.2 12.9 5.6l-.2-.2.1-.3.4.1v.2c0 .1-.1.2-.3.2 1.4.4 2.9.7 4.5 1l-.1-.4.5-.1.1.3v.3c3 .5 6.1.9 9.4 1.1l-.1-.1v-.1s.1-.1.2 0l.1.2c1.9.1 3.7.2 5.7.2 8.7 0 16.9-1.2 23.3-3.2 0 0 0-.1 0-.2s0-.1 0-.3l.6.2c3.6-1.2 6.8-2.8 9.1-4.6zm-62.8-17.3v3.3h3.3v-3.3zm2.6-4.4c-.9-.3-1.8-.6-2.6-1v1zm-2.6 12.1v3.3h3.3v-3.3zm21.7-4.4v-3.3h-3.3v3.3zm18.5 0v-3.3h-3.3v3.3zm15.2-3.3v3.3h3.3v-3.3zm3.3-4.4v-.9c-.8.3-1.6.6-2.4.9zm-3.3 12.1v3.3h3.3v-3.3zm-62 4.4c0-.1 0-.1-.1-.1h-.1l.2.1v.2l.1.1v-.1c-.2 0-.2-.1-.1-.2zm-.6-10.5c.1 0 .1 0 .2-.1l-.1-.2h-.2l-.1.2zm0 .7c-.1 0-.1 0 0 .1zm.1-1.5c0-.1 0-.1-.1-.1h-.1l-.1.1s0 .1.1.1zm23.3 98c.3-.2.7-.5 1.1-.6 1.1-.5 2.3-.8 3.4-1.1-.7-.8-1.4-1.7-2.3-2.6-5.1-5.7-12.8-14.3-15.9-30.6-.8-4-2-7.1-3.2-10.2-2.8-7.2-5.5-14.1-.6-31.4l.1-.3c-1.5-.8-2.8-1.6-4-2.4l-.5 1.5c-5.3 18.8-2.2 26.7.7 34.3 1.2 3 2.3 5.8 2.9 9.4 3.3 17.6 11.9 27.1 17 32.8.5.3.9.8 1.3 1.2zm3.5 5.6c.4-.1.7-.3 1.1-.4 4.9-3.1 10.2-4.3 14.7-4.1-4.8-1.8-11.1-2.2-17.4.3-1.2.5-1.7 1.8-1.3 2.9.5 1.2 1.8 1.8 2.9 1.3zm.2 8.2c.6 0 1.1-.2 1.5-.6 5.4-5.1 12.8-6.3 17.2-4.8 1.2.4 2.5-.3 2.9-1.4.4-1.2-.3-2.5-1.4-2.9-5.5-1.8-14.7-.8-21.7 5.8-.9.9-1 2.3-.1 3.2.4.5 1 .7 1.6.7zm9.9 5.4c-.2 0-.3 0-.4.1-.1 0-.2 0-.2 0-.1 0-.3.1-.4.1s-.1 0-.2.1c-.1 0-.3.1-.5.1-.1 0-.1 0-.2.1-.2.1-.4.1-.5.2h-.1c-.2.1-.4.2-.6.3 0 0 0 0-.1 0-.7.3-1.4.8-2.2 1.3-.8 3.7-1.3 9.3-1.1 17.5 0 1.2 1 2.2 2.3 2.2h.1c1.2 0 2.2-1.1 2.2-2.3-.4-11.5 1-17.2 1.9-19.7zm5.3 1.2c-.1 0-.1 0 0 0-.1-.1-.2-.1-.3-.2-.1 0-.2-.1-.3-.1-.1-.1-.2-.1-.3-.2-.1 0-.2-.1-.3-.1-.1-.1-.2-.1-.4-.1-.1 0-.1-.1-.2-.1-.1-.1-.3-.1-.4-.1s-.1 0-.2-.1c-.2 0-.3-.1-.5-.1h-.1c-.2 0-.3-.1-.5-.1h-.1c-.2 0-.4 0-.6 0h-.1c-.2 0-.4 0-.6 0 0 0 0 0-.1 0 .5 2.6 2.3 13.4-1.1 28.6-.3 1.2.5 2.4 1.7 2.7.2 0 .3.1.5.1h.4c.9-.1 1.6-.8 1.9-1.7 3.1-13.6 2.3-23.7 1.6-28.5zm4.6-5c-5.3-3.6-10.5-3.9-16.2-1.1-.2.1-.4.2-.6.3-.3.1-.5.3-.8.4-.1.1-.2.1-.3.2-.4.2-.7.4-1.1.7-1 .7-1.3 2.1-.6 3.1.4.7 1.2 1 1.9 1 .4 0 .9-.1 1.2-.4 5.3-3.5 9.4-3.6 14-.5 1 .7 2.4.4 3.1-.6.8-1 .5-2.4-.6-3.1zm1.6-3.1c-.6-.6-1.4-1.1-2.2-1.6-.4 0-.7-.1-1.1-.2-1.4-.4-3.5-.6-6-.2 3 .2 6 1.3 9 3.3.4.3.7.6 1 .9.1-.8-.1-1.7-.7-2.2zm23.5-90.1-.5-2.1c-1.1.9-2.5 1.8-4 2.7l.1.5v.1c4.9 17.4 2.3 24.2-.6 31.4-1.2 3.1-2.4 6.2-3.2 10.2-3.1 16.3-10.8 24.9-15.9 30.6-1.3 1.5-2.4 2.7-3.3 3.9 1.5.6 2.8 1.4 3.9 2.3.7-.9 1.7-2 2.7-3.1 5.1-5.7 13.7-15.2 17-32.8.7-3.6 1.8-6.4 2.9-9.4 3.1-7.7 6.2-15.6.9-34.3zm3.1-19-.1-.1h-.1-.1l.1.1s.1 0 .1.1c0 0 0 0 .1-.1zm-15.4 19.7c-.1.2-.1.2 0 .2.2-.2.1-.2 0-.2zm-4.9-3.6-.4.1c0 .1 0 .2.1.2.2.1.2.1.3 0 .1-.2.2-.2.2-.2l.2-.1-.2-.1zm-73.7-8.5-.1-.1s.1 0 .1.1zm70.9 9.5h-.5c-.2 0-.4.1-.5.7l.4.4.7-.2zm3-2.5.1-.2-.2-.1-.1.1s-.1.1 0 .2v.3l.2.4c.1 0 .2 0 .2-.1.1-.2.1-.2 0-.4-.2 0-.3-.1-.2-.2zm3.7 4.7v.2l.2-.1c.1 0 .1.1.2.1zm-2.9-1.2v.6c0 .2.1.4.8.5l.5-.5-.2-.8zm-12.8-4.5v.2l.2-.1c.1 0 .1.1.2.1zm2.4 1.3c-.1-.1-.1-.1-.1 0l-.2.1-.2.5h.2.2l.1-.4c0-.1 0-.1 0-.2zm-.5.8c.1.1.2 0 .2 0-.1-.1-.2-.1-.2 0zm.6-7.1-.1.2.2.1.1-.1s.1-.1 0-.2zm-.8 7.7c0-.1.1-.1.1-.2l-.1.2v.1c.2 0 .2 0 .1 0zm-1.6-3-.2-.1c0-.1 0-.1 0-.2l-.1.3.1.1c.2-.1.2-.1.2-.1zm3.7-.1h-.2l-.5.4c.1.1.2.1.2.2.2.1.2.1.2.1l.4-.3c0-.1 0-.1.1-.2-.1-.2-.1-.2-.2-.2zm-3-2.5-.2-.1-.5.1c0 .1.1.2.1.2.1.1.1.1.1.1l.4-.1c0-.1 0-.1.1-.2.1.1 0 0 0 0zm1.2 3.8c.1-.1.1-.1 0-.2l-.1-.2-.6-.2v.3.2l.5.2c0-.1 0-.1.2-.1zm-1-.6c-.1.2-.1.2 0 .2.1-.1 0-.2 0-.2zm6.5 6.5c.1.1.2 0 .2 0-.1-.1-.2 0-.2 0zm.1-4.9c0-.1 0-.2 0-.2h-.1c0 .2.1.2.1.2zm.2 4.1.1.1c0 .1-.1.1-.1.2l.2-.2zm0-10.4-.3.1c-.1.1-.1.2 0 .2h.2l.1-.1c.1-.1.1-.2 0-.2zm-.5 11.5-.1.4v.2c.1.1.1.1.1 0l.2-.1.2-.5c-.1 0-.2 0-.2 0-.2 0-.2 0-.2 0zm-1.1-3.4c.1 0 .2 0 .1-.1 0 .1-.1.1-.1.1zm.3-1.7-.2.7h.4c.4-.2.5 0 .5-.2v-.5zm-.6 1.2c0 .2 0 .2.1.2 0-.2-.1-.2-.1-.2zm.6-3.1h-.2l-.2.1c-.1.1-.1.2 0 .2h.1l.3-.1c0-.1 0-.2 0-.2zm-1.6 3.1c.1.2.1.2.1.1l.1-.2h.2l-.3-.1zm5.1-1.9v-.2l-.2-.1-.2.3.1.1c.1 0 .2 0 .3-.1zm-20.5-54.9 1-.8-.3-.6c-.1-.3-.4-.4-1.1-.2l-.2.8zm2.6-4.8h.3l.1-.5-.4-.1-.2.2c0 .3.1.4.2.4zm.6 6.2c.2.1.2.2.2.2l.5-.1c0-.1 0-.1.1-.1-.1-.1-.1-.2-.2-.2l-.3-.1-.6.1c.2.1.2.2.3.2zm-2.3-.8c.3.3.5.3.6.2l.4-.2-.2-.5-.6.1zm6.5-3.5c.2-.2.2-.3.2-.4l-.1-.2-.4.1.1.4zm-6.4-.8.6-.3-.3-.9-1 .2.2.5c.4.5.3.6.5.5zm1.3.1-.1-.1c-.1.1-.1.2-.1.2.2-.1.2-.1.2-.1zm3.9 1.9h.2c-.2 0-.2 0-.2 0zm-.2-1.4.2-.4c-.1-.2-.2-.2-.2-.2l-.2.1v.3c.1.2.2.3.2.2zm-.9 5.2c.4 0 .4 0 .5-.2 0-.3.1-.4.2-.4h.3v-.4l-.2-.1c-.1 0-.1 0-.2.2l-.4.2-.4.4c0 .2 0 .3.2.3zm-.8-2.9.3-.1.1-.3h-.4l-.1.2c-.2-.1-.1 0 .1.2zm-.6 9c-.2.1-.3.2-.2.3l.1.2h.4v-.2c.2-.1.2-.1.3-.2 0-.2 0-.3.1-.3l.1-.2-.2.1-.3.2-.1.2zm0-7.2c.1-.1.1-.1.1-.1l.1-.3-.1-.5c-.1.1-.2.2-.2.3-.1.2-.1.2-.1.2l.2.4c0-.1 0-.1 0 0zm-4.2-6c-.2.1-.2.2-.2.2.2 0 .3-.1.2-.2zm-3.5 4.5c0-.2-.1-.3-.1-.3-.1.3 0 .3.1.3zm1.2 3.2v-.3l-.5-.1-.1.5.2.2c.4-.1.4-.2.4-.3zm-.4 91.9c.2.6.8.9 1.4.7.1 0 .5-.2 1.3-.2h.9c.1 1.4 1.7 2.3 3.9 2.3s3.7-1 3.9-2.4h.7c.9.1 1.3.2 1.4.2.6.2 1.2-.1 1.4-.6.2-.6-.1-1.2-.6-1.4s-1.1-.3-2-.4c-2-.2-2.9.6-3.6 1.2-.5.4-.7.6-1.2.5 0 0 0 0-.1 0-.6 0-.9-.2-1.3-.6-.7-.5-1.6-1.3-3.5-1.1-.8.1-1.4.2-1.9.4-.6.2-.9.8-.7 1.4zm.4-95.2c-.1-.2-.1-.2-.1-.2l-.1.2c-.1 0-.2 0-.3 0l.4.1zm-2.6.1.2.2.8-.1c-.1-.2-.1-.2-.1-.3-.1-.2-.1-.2-.1-.2h-.6c-.1.1-.1.1-.2.1zm1.2 7.5c.2.2.2.2.2.1v-.3c.1 0 .2-.1.3-.1l-.5.1zm1.9-6 .1-.2c-.1-.2-.2-.2-.3-.2l-.2.1v.4zm.7 9v.3l.2.2c.2-.1.3-.2.2-.3l-.1-.2zm.8-14c-.1-.1-.1-.1-.1-.1v.1zm-.4 7.3c-.1-.2-.1-.2-.2-.2l-.1.1c.2.2.2.2.3.1zm-1.4 2.1.5-.2c.5-.5.7-.3.5-.6l-.3-.7-1 .3zm5.9-3c.3 0 .4.1.4.2l.2.1v-.2l-.1-.4-.4-.4c-.2 0-.2.1-.2.2 0 .3 0 .3.1.5zm-1.3 8.5c-.2.1-.2.1-.2.2l.1.7.2.2h.2l.2-.3-.1-.9c-.2.1-.3.1-.4.1zm7.1-12.6c.2-.6.4-.5.2-.7l-.5-.4-.6.6.7.8zm-9.3 12c.1.2.1.2.1.1-.1-.1-.1-.1-.1-.1zm2.3-1.4c-.3.1-.3.1-.2.2l.3.1v.3l.1-.5zm-.2 1.7c.3 0 .3-.1.3-.2-.2 0-.3.1-.3.2zm1.1-6.9.2.7.4.2c.3-.3.3-.5.2-.7m14.1 1.3c0-.2 0-.3-.1-.3l-.2-.1-.2.3.3.2zm.5-1.1c-.1 0-.2 0-.2.1l.1.1c.1-.1.1-.2.1-.2zm-22.5-2.7h-.3l-.2.3c0 .2 0 .3.1.3h.1l.4-.3c0-.2-.1-.3-.1-.3zm21.1 4.5-.1-.3c-.2-.1-.2 0-.2 0v.2l.1.1c.2.1.2 0 .2 0zm-19.9.4c.1.3.2.3.3.2-.2-.2-.3-.3-.3-.2zm.5 3.3-.2.1-.1.2c0 .2.1.2.1.2h.1l.2-.3c.1-.2 0-.2-.1-.2zm16.8-9.2c-.2.1-.2.2-.2.2.2 0 .2-.1.2-.2zm.2 1.2c.1 0 .1 0 .2.1.1 0 .2-.1.2-.1v-.3l-.4-.6c-.1.1-.2.2-.2.2-.1.2-.1.2-.1.2zm-28.1 74.8c-.2 1.9 1.3 3.7 3.2 3.8 1.9.2 3.5-1.2 3.8-3 1.7.9 1.9 2.2 1.9 2.3 0 .6.5 1 1.1 1h.1c.6 0 1.1-.6 1-1.2 0-.2-.3-3.7-5.5-5-6.2-1.5-8.6.1-11.3 2l-.2.1c-.5.3-.6 1-.3 1.5s1 .6 1.5.3l.2-.1c1.5-1 2.7-1.8 4.6-2.1-.1.2-.1.3-.1.4zm26-78.7.4-.9-1.1-.5-.4.5c-.2.2-.2.5.4 1.1zm-3.6-1.1c-.1-.1-.2-.1-.2-.1v.1zm5.8 2 .3-.2-.2-.3h-.2c-.1.2-.1.3-.1.3zm-1.1 1h.3c0 .1.1.1.1.2l-.1-.4h-.2c-.2.2-.2.2-.1.2zm-5.4.7.1.2c.2.1.2 0 .2 0l-.1-.2c0-.1.1-.1.1-.2zm4.4 8.7c-.1 0-.2.1-.2.1l.2.1c.1 0 .2-.1.2-.1v-.1zm-3.7-9.5c.2.2.3.1.3 0-.2-.1-.3-.1-.3 0zm3.3 11.5c.1-.1.1-.1.1-.1zm0-1.3-.1.2c.1.2.2.2.2.2h.2v-.3zm-26.9 51.4c0 .2.1.2.1.2-.1-.2-.1-.2-.1-.2zm4-3.1c0 .1 0 .1.2.2l.2-.1v-.2h-.3zm-.3 1.1c-.1.1-.1.1-.1.2v.3h.1c.1 0 .1-.1.1-.1l.1-.2-.1-.4c-.1.1-.1.1-.1.2zm0 1.3-.3-.3c-.1 0-.2.1-.1.1 0 .2 0 .2.1.3.2 0 .3.1.3.1l.2.1v-.2zm.1-.7-.2-.1-.4.1c.1.1.2.1.2.2.1.1.2.1.2.1l.3-.1c0-.1 0-.1.1-.1-.2 0-.2-.1-.2-.1zm1.7-2.1c.1 0 .1 0 0 0zm-.4 2.1-.3.1-.3.3c0 .1.1.2.2.2.3 0 .3 0 .4-.1 0-.2.1-.3.2-.3h.2v-.3l-.1-.1c-.1.1-.2.1-.3.2zm-1.9-4.7-.3-.1-.2.1c0 .2.1.3.2.3h.2zm-1.7 2.8c-.1-.2-.3-.3-.8-.1l-.2.6.5.6.7-.6zm-.8-2.6c-.2 0-.2.1-.1.2.1 0 .1-.1.1-.2zm-.4.6c.1.1.1.1.1.1 0-.1 0-.1-.1-.1zm2.2.5c.1-.1.2-.1.2-.1h-.1c-.1.1-.1.1-.1.1zm3.9 0-.3.1.1.3.2.1c.2-.1.2-.2.1-.3zm-4.6 2.7-.1.3c.2.2.3.2.4.2l.3-.1-.1-.4zm7.3-6.9c-.1 0-.1.1-.1.1h.1c0-.1 0-.1 0-.1zm.5.9.7-.1-.1-.3c-.3-.3-.2-.4-.3-.3l-.4.2zm.1-3.4.1-.2c-.2-.2-.3-.2-.4-.1l-.2.1.1.4zm-1.5 4c-.2 0-.2 0-.2.1v.2l.2.1c.1 0 .2 0 .2-.1zm3.8-4.2h.1v-.2h-.2l-.1.1c.1.1.2.1.2.1zm-11.6 5.4-.1-.3h-.1c-.1.1-.1.1-.1.1h.2c.1 0 .1.1.1.2zm8.3-1.9h-.2l-.1.3.3.1.2-.1c0-.2-.1-.3-.2-.3zm-2.3-2.7c.1 0 .1 0 0 0zm.1-1.4v.2l.1.1s.1 0 .2-.1l-.1-.2zm.4 10.3.1.1h.2l-.1-.2c0-.1.1-.1.1-.2zm1.2-9.7v-.3c-.1 0-.1 0-.1 0-.1 0-.1.1-.1.1l-.1.2.1.3c.1-.1.1-.1.1-.2.1-.1.1-.1.1-.1zm-.7 9.1c.1.1.2.1.2 0-.1-.1-.2-.1-.2 0zm.3-1.4-.4-.3-.5.5.5.6.2-.2c.2-.5.4-.5.2-.6zm-14.7-.5v.2c.1-.2 0-.2 0-.2zm-.4-2.9v.1l.2.1.1-.2-.1-.1c-.2 0-.2 0-.2.1zm5.2 4.6c-.1-.1-.1-.2-.1-.2h-.4c-.1.1-.1.1-.1.1v.1l.2.1h.6c-.2 0-.2 0-.2-.1zm17.6 55.4c.2 1.4.6 3 1.1 4.7 1.2 4.3 2.5 3.9 2.5 3.9s1.3.4 2.5-3.9c.5-1.8.8-3.4 1.1-4.7-1.6.2-2.9.2-3.5.2s-2 0-3.7-.2zm-22.2-59.6-.2.1v.1h.1l.1-.1c0-.1 0-.1 0-.1zm4.8 4.2c0 .2 0 .2.1.2 0-.2 0-.3-.1-.2zm0 1.5h-.2l-.1.2c0 .2 0 .2.1.2h.1l.3-.2c-.1-.1-.1-.2-.2-.2zm11.3-7.4-.1-.2-.2.1v.1c0 .1 0 .1.2.1zm-1.8 4c-.1-.1-.1-.1-.2-.1v.1zm32.2 49s.1 0 .1.1c.3.2.7 0 .9-.3s0-.7-.3-.9c-.4-.2-2.6-2-3.3-3s-.3-1.6-2.2-1.7c-5.7-.4-5.7-.7-9.3-1.3-5.5-.9-6.4 1.1-6.6 1.6-.2-.6-1.1-2.5-6.6-1.6-3.6.6-3.6.9-9.3 1.3-1.9.1-1.5.7-2.2 1.7-.7 1.1-2.9 2.9-3.3 3-.3.2-.5.5-.3.9.2.3.5.5.9.3 0 0 .1 0 .1-.1-.3.6-.6 1.3-.8 1.9-.5 1.6-.5 3.2-.2 4.6.1.3.4.6.8.5.1 0 .1 0 .2-.1.1.3.3.6.4.9 1.5 3.1 2.6 3.8 2.2.4-.3-2.1.3-4.2 1.2-6.2 0 0 1.8-5.1 7.7-3.8 5.2 1.2 9.2-.1 9.2-.1s4 1.3 9.2.1c5.9-1.4 7.7 3.8 7.7 3.8.9 2 1.5 4.1 1.2 6.2-.5 3.4.7 2.7 2.2-.4.1-.3.3-.6.4-.9.1 0 .1.1.2.1.3.1.7-.1.8-.5.3-1.4.2-3-.2-4.6-.2-.6-.5-1.3-.8-1.9zm-47.7-52.1v.1-.1c.1 0 .1 0 0 0zm50.7 23.2-.2-.1c-2.7-1.9-5.1-3.5-11.4-2-5.2 1.2-5.5 4.8-5.5 5 0 .6.4 1.1 1 1.2h.1c.6 0 1.1-.4 1.1-1 0 0 .1-1.3 1.9-2.3.3 1.8 1.9 3.2 3.8 3s3.4-1.9 3.2-3.8c0-.1 0-.2 0-.3 1.8.3 3 1.1 4.6 2.1l.2.1c.5.3 1.2.2 1.5-.3.3-.6.2-1.3-.3-1.6zm-53.3-23.3c-.1 0-.1 0-.2 0-.1.1-.1.2-.1.1l-.1.1h.1.2l.2-.1s0-.1-.1-.1zm11.7-2.4h.2l.1-.2v-.6c-.2 0-.2.1-.3.1-.2.1-.2.1-.2.1v.5c.1 0 .1 0 .2.1zm4.3 5.8.1-.3c-.1-.2-.1-.2-.2-.2l-.1.1v.2c.1.2.1.3.2.2zm-6.5 1.6-.1.2c-.1 0-.1 0-.2 0l.3.1.1-.1c-.1-.2-.1-.2-.1-.2zm1.5-6.8h.4c0-.1 0-.1.1-.1 0-.1 0-.1 0-.1l-.2-.1h-.5c0 .1.1.2.1.2 0 .1.1.1.1.1zm-1.2-.1c.1.1.1.1.1.1l.1-.2h.2l-.3-.1zm.1 7.9-.1.3h.2l.1-.1c-.1-.2-.2-.2-.2-.2zm.8-7.8c0-.2 0-.2-.1-.2 0 .1 0 .2.1.2zm33.6 55.7c0 .6-.5 1.1-1.1 1.1h-1.2c-1.7 2.4-7.4 3.5-12.4 3.5s-10.6-1.1-12.3-3.5h-1.5c-.6 0-1.1-.5-1.1-1.1s.5-1.1 1.1-1.1h27.3c.7 0 1.2.5 1.2 1.1zm-6.1 1.1h-17c1.8.7 4.7 1.3 8.5 1.3s6.7-.6 8.5-1.3zm-24.1-53.6c.2 0 .2 0 .2-.1v-.2l-.2-.1c-.2 0-.2 0-.2.1v.1zm-.7-2.5h.2c.1-.1.1-.1.1-.2l-.1-.2-.6-.3c-.1.2-.1.2-.1.3v.2zm-1.6-2.5c-.2 0-.2.1-.2.1.2.1.2 0 .2-.1zm.2 6.2c.3.3.2.4.4.3l.4-.2-.2-.6-.7.2zm42.9-37.1.3-.2v-.1s0-.1-.2-.2h-.3l-.1.2c0 .2.1.2.3.3zm0 7-.1-.4-.5-.4-.3.5.3.3c.1.1.2.2.6 0zm2.2-9.9.7-.1s0 0 .1-.3c0-.1 0-.2 0-.4l-.9.2-.2.3s-.1.1 0 .2c.2 0 .2 0 .3.1zm-.1 5.6.3-.4-.9-.6-.6.7.4.5c.4.2.2 0 .8-.2zm.8 5.8.3.1.1-.3-.2-.1c-.1-.1-.2-.1-.3.1zm2.8-15.3c0 .1 0 .1.3-.1v-.2l-.5-.2c.1.1.2.1.2.2zm-4.6 13.5.9-.5.1-.8c-.7-.5-.9-.4-1.1-.2l-.5.5zm4.4 1c-.1.1-.1.1-.2.2l.7.3.3-.1s.1 0 .1-.2c-.1-.1-.1-.1-.1-.2l-.5-.3c-.1.2-.1.2-.3.3zm-2.8 2.5c-.1.1 0 .2.3.4l.3-.2v-.5l-.5-.1zm-2.6-9 .2.1c.1 0 .2 0 .4-.2l-.1-.3h-.4zm.2 1.3s0 .1.2.2c0 0 0-.1 0-.2zm.8 7.8c0 .1.1.1.3 0v-.1c-.2-.1-.2-.1-.3.1zm4.5-15.3c.1-.1 0-.2-.2-.3 0 .1 0 .2.2.3zm-10.4 11c.1 0 .1.2 0 .5.1.2.1.2.4.3.1.1.2 0 .3-.1l-.2-.6-.3-.3c0-.2-.1-.2-.2-.2h-.2l-.1.4zm1.3 5.1.6 1.1 1 .1c.5-.8.5-1.1.3-1.3l-.5-.5zm.1-1.3.4-.6-.5-.4-.3.3c-.1.1-.2.3 0 .7zm-3.4-5.5.1-.2-.2-.3c0 .1 0 .2.1.2l-.2.2s0 .1.2.1zm2.8-1.4s0 0-.2-.1c0 .1 0 .1.2.1zm-1.9 9.6v.2c.1 0 .1.1 0 .3 0 .1 0 .1.2.3l-.1.1.4.2.1-.2c.1-.1.1-.2-.1-.4h-.2v-.3l-.2-.3zm2.5-10.8s.1 0 .3-.1l.1-.2-.1-.2s-.1 0-.3.1zm1.1 2.5v-.2l-.4-.1-.1.3.2.2c.3 0 .3-.1.3-.2zm-.5 2.1c.1-.1.1-.1.1 0l.2-.3s0 0-.1-.2c0-.1 0-.1-.1-.3l-.3.5v.3c.2-.1.2-.1.2 0zm6.1-4c-.1 0-.1.1.1.3.1-.1.1-.2-.1-.3zm-6.4 4.5.4.2s0 0 .3-.1c.1 0 .2 0 .4-.1l-.5-.3h-.3s-.1 0-.2.1c0 .1 0 .1-.1.2zm.3 1c.2-.1.2-.1.3-.3.1-.1 0-.2-.1-.3l-.5.2-.3.3-.1.2.2-.1c.1-.1.2-.1.5 0zm-24.9-3c.1-.2 0-.2 0-.2l-.2.1c-.1 0-.1-.1-.2-.1l.2.3zm23.3-3.4.2-.3-.4-.3-.2.2c-.1.1-.1.2 0 .4zm18.1 3.5s.1 0 .1-.2l-.2-.2s-.1 0-.1.2zm.8-.4v-.2c0-.1 0-.1-.2-.2l-.1.2v.3zm-1.7-13.9c.1 0 .2 0 .2-.3l-.2-.2-.3.1.1.4zm1.1-3.9.2-.1s0-.1-.1-.1h-.2l-.1.1s0 0 .2.1zm0 .4-.1.3.1.1c.1 0 .1 0 .2-.1l-.1-.2zm-.7 4.6s0-.1-.1-.2h-.1c0 .1 0 .1.2.2zm17-17.8c.2.2.2.2.2.1v-.3c.1 0 .2-.1.3-.1l-.5.1zm-14.8 30.2s-.1 0-.1.1v.1c.1-.1.1-.1.1-.2zm15.1-55.7c.2 0 .2 0 .2.1l.1.1v-.1l-.1-.2-.3-.2c-.1 0-.1.1-.1.1.1.1.2.1.2.2zm1.5 28.1-.2.1-.1.2c0 .2.1.2.1.2h.1l.2-.2c0-.3 0-.4-.1-.3zm-13.4-54.7.1.2c-.1.1-.1.1-.2.2l.3-.2-.1-.2c-.1 0-.1 0-.1 0zm2.3 3.8-.2.4c.1.2.2.3.2.2l.2-.1v-.3c-.1-.1-.2-.2-.2-.2zm-13.8 72.4s0 0 .2-.1v-.2h-.4c.1.1.1.1.2.1zm-2.9 11.8.2.4.1.1s.2 0 .2-.3l-.1-.3-.2-.1c0-.1-.1 0-.2.2zm.1-8.1s.1 0 0-.2h-.2l-.2.4c.1 0 .1-.1.2-.2zm.7 6c.1.1.2 0 .2-.2 0 0-.1 0-.2.2zm-.9-.4v-.3s0-.1-.2.1v.2l.4.1c0-.1-.1-.1-.2-.1zm1.7-13.4c.1-.1.1-.2.1-.3h.3c.1 0 .1 0-.1-.2h-.2zm-.8 2.4c.1-.1.1-.1.2-.2l.3-.6s0-.1-.2-.2c-.1-.1-.1-.1-.3-.2l-.4.8.1.3c.1 0 .2.1.3.1zm1.2 1.1c-.1-.1-.1 0-.2.2.1 0 .2 0 .2-.2zm5.5-1.5-.3.3-.1.3v.2l.2-.1c0-.1.1-.1.3-.1.1-.1.1-.1.2-.3-.1-.2-.2-.2-.3-.3zm-.4-5.1c.1 0 .1 0 .2-.2 0 0 0-.1 0-.2l-.3.1-.2.1-.1.1h.1c.1.1.1.1.3.1zm-.3 2.8h.3c.1-.1.2-.1.4.1.2 0 .2 0 .5-.2.1-.1.1-.2 0-.3h-.6l-.4.2zm1.2-4 .2-.2v-.1s-.1-.1-.2-.1l-.2.1-.1.2c.1.1.1.1.3.1zm-7.1 7.7.5.2s0 0 .2-.1c0 0 .1-.1.2-.2l-.6-.3-.3.1s-.1 0-.1.2c.1-.1.1-.1.1.1zm8.7-9.1c-.1 0-.1 0 0 0 0 .1 0 .1 0 0zm-38.8 21.1c0 .2 0 .3.1.3l.2.1.2-.3-.3-.2zm.7 2.2c-.2.2-.1.3 0 .3.1-.2.1-.3 0-.3zm1.4-3.7c-.2-.2-.2-.1-.2-.1v.3c-.1 0-.2.1-.2.1l.4-.1zm-2.3 1.2.3.1.7-.4c-.1-.1-.2-.2-.2-.2-.2-.1-.2-.1-.2-.1l-.5.3c0 .1 0 .1-.1.3-.1 0 0 0 0 0zm42.1-21.4s0-.1-.1-.1l-.1.1zm1.3.7v-.3l-.4-.2-.3.4.2.2c.1.1.2.1.5-.1zm-37.6 25.9h-.2v.3h.3l.2-.2c-.1-.1-.2-.1-.3-.1zm.1-1c.2-.1.2-.1.1-.1 0 .1-.1.1-.1.1zm37.2-26.3.4-.1h.1s0-.2-.2-.3l-.3-.1-.2.2c-.1 0-.1.1.2.3zm-38.9 22.3.3.2c.1 0 .1-.1.1-.2-.1-.2-.1-.2-.2-.3-.2 0-.3 0-.3-.1l-.2-.1v.2zm-3.1 2.9.5.3h.2c.1-.1.1-.1.1-.2l-.1-.3-.6-.4c-.1.2-.1.2-.1.3zm3.2-6.6.3-.4c-.1-.3-.2-.3-.2-.3l-.2.1v.3c0 .3.1.3.1.3zm-3.1 2.9c-.1-.2-.2-.2-.2-.2.1.3.2.3.2.2zm-52.7-15.5c.2.4.5.8.8 1.2h.8v-1.5l-.7-.2c-.3-.1-.6 0-.9.5zm7.4-76.9c-.1-.2-.1-.2-.1-.2l-.1.2c-.1 0-.2 0-.3 0l.4.1zm40.8 89.3c.2-.3.2-.3.1-.4-.2-.2-.2-.3-.2-.4l-.1-.2-.1.2-.1.4.1.5c.1.1.2 0 .3-.1zm9-3.8.2-.2c0-.1-.1-.2-.1-.2l-.1.1-.1.2c0 .1 0 .1.1.1zm-9.1 2.6c.2-.1.1-.2.1-.3-.2.2-.2.3-.1.3zm.7 3.7.4-.2c-.1-.4-.2-.5-.4-.5l-.4-.1-.2.5zm48.1-27.8-.2-.3c0 .1 0 .1.1.2l-.2.2s0 0 .2.1zm-32 19.5s.1 0 .1-.2c-.1-.1-.1-.1-.1-.2l-.5-.2s0 0-.2.2c-.1.1-.1.1-.2.2l.7.3zm-1-.7c-.1 0-.2 0-.2.2.1 0 .2 0 .2-.2zm-.6 4.2c.1-.1.1-.1.2 0l.5-.3s0 0 0-.2c0-.1 0-.1-.1-.3l-.6.4-.1.3c0-.1 0 0 .1.1zm6.6-1.1.2.4.9-.5-.4-.8-.6.2c-.2 0 0 0-.1.7zm-4.9-.5.2.1s.1 0 0-.2l-.2-.1-.2.3c.1 0 .2-.1.2-.1zm-.7.1-.2.5c.1.1.1.1.2.1 0 0 0 .1.1.1s.1-.1 0-.2c.3-.1.3-.2.4-.3-.1-.3 0-.4 0-.5l.1-.3-.2.1zm.5-1.7-.2-.1-.2.2.2.3.2-.1s.1-.1 0-.3zm6.1.6c0-.1-.1-.1-.2-.1 0 .1 0 .1.2.1zm-13.7 4c0-.2 0-.2 0-.2l-.1.1c0 .1 0 .1.1.1zm12.5-1.3c0-.1-.1-.1-.3-.1 0 .1.1.2.3.1zm-1.4-3.4-.2-.6h-1.2v1l.7.4c.7-.3.8-.6.7-.8zm-9.4 2.1c-.1-.1-.1-.1-.1-.1v.1zm.6 13-.2.1-.1.1h.2s.1-.1.3 0c.1 0 .1 0 .2-.2 0 0 0-.1 0-.2zm.5-8.6.2-.1v-.2s0-.1-.2-.1l-.2.2v.1c0 .1 0 .1.2.1zm-1.9-4.6v-.2h-.3v.2l.1.1c.2 0 .2 0 .2-.1zm4.6 9.3.2-.1s0-.1-.1-.2h-.2l-.1.1s0 .1.2.2zm-5.8 4.5c.2 0 .2-.1.2-.1v-.1l-.2-.2c-.2 0-.2.1-.2.1zm.4-9.5c.3-.2.3-.3.3-.4l-.1-.3-.5.1.1.5zm2-1.8s0 0-.2-.1c0 0 0 0 .2.1zm3.6 7.6v-.2l-.2-.1-.1.3.1.1s.1 0 .2-.1zm-.4.8c-.1 0-.1 0 0 0 0 .1 0 .1 0 0zm-2-12.3.3-.2.1-.3v-.2l-.2.1c0 .1-.1.1-.3.1-.1.1-.1.1-.1.3 0 .1.1.1.2.2zm1.4.3c.2-.1.2-.1.2-.1 0-.2 0-.2.1-.2l.1-.1h-.1l-.2.1-.1.3c-.1 0 0 0 0 0zm18.1 2.8s.1.1.2 0v-.1c-.1 0-.1 0-.2.1zm19.6-63.5c0-.1-.1-.2-.1-.2l.1.4h.2c.2-.2.1-.2.1-.2zm.8-25.3.2-.4c-.1-.1-.1-.2-.2-.1-.2.1-.2.1-.3.2 0 .2 0 .3-.1.3l-.1.2h.2zm-.6 20.5.2.4c.4-.1.5-.2.5-.4l.1-.4-.5-.2zm-.6 4c.2-.1.2-.2.2-.2-.3 0-.3.1-.2.2zm.9-16-.1.7c.1.1.1.1.1.3.2.1.2.1.3 0l.3-.2.1-.9c-.2 0-.3 0-.4.1-.3 0-.3 0-.3 0zm-.6-3.3c-.2.1-.2.2-.2.2.3-.1.3-.2.2-.2zm2.8 14.7c.3.2.3.2.4.1.2-.2.3-.2.4-.2l.2-.1-.2-.1-.4-.1-.5.1c0 .2 0 .2.1.3zm-.4-1c0-.1 0-.2 0-.2l-.1-.2-.5-.2c0 .2.1.2.1.3.1.2.1.2.1.2l.4.1c-.1 0-.1 0 0 0zm-.9-2.2-.2.1v.2c.1.2.1.2.2.2h.1l.2-.3c-.2-.2-.2-.2-.3-.2zm1 34v.3zm-.4-7.5-.1.3.4.1.1-.2c0-.1 0-.2-.1-.3zm-.8-36.7.3.1.8-.4c-.1-.2-.2-.2-.3-.3-.2-.2-.2-.2-.2-.2l-.6.3c0 .1 0 .1-.1.2 0 .2.1.3.1.3zm1.3 22.8.3-.1-.1-.5-.5.1-.2.3c.3.2.4.3.5.2zm-2.2-22.9c.1 0 .2-.1.2-.1l.1-.3-.3-.6c-.1.1-.2.2-.2.2-.1.1-.1.2-.1.2l.3.6c-.1-.1-.1-.1 0 0zm-.2 60.1v-.6h-.6l-.1.4c0 .2 0 .3.4.5zm-1.3-2.2h.4s0 0 .2-.2c0-.1.1-.1.2-.2l-.5.1-.3.3c0-.2 0-.2 0 0 0-.1 0-.1 0 0zm.6-41c-.1 0-.1 0-.2-.1-.1 0-.2.1-.2.1l-.1.3.4.7c.1-.1.2-.2.2-.2.1-.2.1-.2.1-.2zm.8 39.7s.1 0 .2-.1l.1-.2-.1-.2s-.1 0-.3.1zm.2 7.2.4-.1v-.2c0-.1 0-.2-.3-.2l-.2.2zm-1.1.2c.1 0 .1-.1-.1-.3-.1.1-.1.2.1.3zm.9-1.1c-.1.1-.1.1-.2 0l-.5.4s0 0 .1.2c0 .1 0 .1.1.3l.6-.5v-.3c0 .1 0 0-.1-.1zm-.6-64.7-.1-.4h-.2c-.1.2-.1.2-.1.2h.2c.1 0 .2.1.2.2zm-.8 22.8-.2.3c0 .1.1.2.2.1.2-.1.2-.1.3-.2 0-.2 0-.3.1-.3l.1-.2h-.2zm3.7 43.8c0-.1-.1-.2-.3-.1 0 .1.1.2.3.1zm-.2-20.2.2.2c0-.1-.1-.1-.2-.2zm-3.1 11.8.2-.3-.4-.2-.2.2c-.1.1-.1.2.1.4zm8.9-3.1c0 .1.1.1.2 0 0 0-.1 0-.2 0zm-9.8 5.7c.3.1.3 0 .4 0 .1-.3.2-.3.3-.3l.2-.2h-.2-.4l-.4.3c0 .1 0 .2.1.2zm3.6 11.2h.2v-.1s0 0-.2.1zm2.2-56.8c-.1-.2-.2-.1-.3-.1.2.2.3.2.3.1zm-5.6 51.3-.2-.1s-.1 0 0 .2l.2-.1.2-.2c-.1 0-.1.1-.2.2zm6.8-4.2c.1 0 .2 0 .2-.2-.1-.1-.1 0-.2.2zm-6.6 6.3-.1-.1v.2c.1 0 .1.1 0 .3 0 .1 0 .1.2.3.1.1.1 0 .2-.1l-.1-.4zm3.3-3.3-.1.1.2.3c0-.1 0-.2-.1-.2l.2-.2c.1.1.1.1-.2 0zm-50.3 26.7.2-.1c.1 0 .1.1.2.1l-.3-.3-.2.1c.1.2.1.2.1.2zm56.8-33.8h-.2l-.3.3.3.2.3-.1c0-.3 0-.3-.1-.4zm.5-4.6-.2-.4-.9.5.4.8.6-.2c.3-.1 0-.1.1-.7zm-6.7 9.3c0-.8-.2-1-.5-1l-.6-.1-.5 1.1.9.4zm3.2 5.1c.1 0 .2 0 .2-.1l-.1-.1c-.1.1-.1.1-.1.2zm-.1-10.2c-.1 0-.1.1 0 .3l.4.1h.1s.1-.1 0-.3l-.2-.2zm-2.3-41.9.1.2c.2.1.2 0 .2 0l-.1-.2c0-.1.1-.1.1-.2zm4.2 33.3h-.3l-.2.3c0 .3 0 .3.1.3h.1l.4-.3c.1-.2 0-.3-.1-.3zm-3.9-10.2c0 .1.1.1.2 0 0-.1-.1-.1-.2 0zm.2 8.5c-.1 0-.2.1-.3.2l.6.7.3.1s.1 0 .2-.1c-.1-.1-.1-.1 0-.3l-.4-.5c-.1-.1-.2-.1-.4-.1zm-.5-.2c0 .1.2.1.3-.1 0-.1-.1-.1-.3.1zm.5-23h.2-.2c0-.1 0 0 0 0zm.3-23.8c-.2-.2-.2-.2-.2-.1v.3c-.1 0-.2.1-.3.1l.5-.1zm-1.3.7c-.1-.3-.2-.3-.3-.2.1.2.3.3.3.2zm-.2 11.6.3.1c.2-.2.2-.3.2-.4l-.1-.2-.4.1zm1.2-.2c-.1 0-.1.1 0 .3h.2l.2-.2-.3-.2zm.5-.1c-.1-.1-.2-.1-.2-.1v.1c.2.1.2.1.2 0zm.1 1.6c.2-.6.4-.5.2-.6l-.5-.4-.6.5.6.7zm6.3 29.5c.1.2.1.2.1.1s0-.1-.1-.1zm-3-15.8v-.2l-.2-.2c-.2-.1-.2 0-.3 0v.1l.1.3c.3.1.3.1.4 0zm2.7 9.6c0-.2-.1-.3-.1-.2-.1.2 0 .3.1.2zm-.2 15.4s.1 0 .1-.2h-.1c-.1 0-.1 0 0 .2zm-2.5-5.5c0-.2-.1-.3-.1-.3-.1.2 0 .3.1.3zm-.7-5.2.1.4.2.2.2.1v-.2c-.1 0-.1-.1 0-.3 0-.1 0-.1-.2-.3-.2-.1-.2 0-.3.1zm3.7-.2c0 .1.1.2.1.2l-.1-.4h-.2c-.2.2-.1.2-.1.2zm-8 25c-.1 0-.1 0-.3 0l.2.7.2.2h.2c0-.1 0-.1.1-.2l-.1-.6c-.1 0-.1 0-.3-.1zm6.2-19.8c-.1-.2-.1-.2-.1-.2l-.1.2c-.1 0-.2 0-.3 0l.4.1zm0 3.4v-.3l-.5-.1-.1.5.2.3c.3-.2.4-.3.4-.4zm.5-1.7.1-.2c-.1-.2-.2-.2-.3-.2l-.2.1v.4zm1 2.3c-.1-.2-.1-.2-.1-.2l-.1.1c.1.1.2.2.2.1zm-1.2-13.6.1-.2h.2l-.4-.1-.1.2c.2.1.2.1.2.1zm-2.6 10 .8-.1c-.1-.2-.1-.2-.1-.3-.1-.2-.1-.2-.1-.2h-.2-.1-.2c-.1.1-.1.1-.2.1v.2zm-.2 14.7c.1 0 .2 0 .2.1l.1.2s0 .1.2-.2l-.1-.2zm.1-68.4h.4v-.3l-.2-.2c-.2.1-.3.2-.3.3zm.4 15.9c0-.1 0-.2 0-.3l-.3.2c.1.1.2.1.3.1zm-.1 49.7c0-.1-.1-.1-.2 0zm0-5.2-.2.4.4.2.2-.2c.1-.1.1-.2-.1-.4zm-.6 12.6c0 .2.1.3.1.3h.2l.2-.3-.3-.1zm.4-41.6h.1v-.3h-.2l-.1.1c.1.2.1.2.2.2zm-.2.9c.1-.1.1-.1.1-.1l-.1.1c0-.1 0-.1 0 0zm.1 2.4.2.1.2-.3-.3-.2-.2.1c0 .2 0 .3.1.3zm.4-4c.1 0 .2-.1.2-.1l-.1-.1-.1-.1c-.1 0-.2.1-.2.1zm2.2 27.1c0-.1 0-.2-.1-.2l.2-.2s0-.1-.2-.1l-.1.2zm-3.7-17.6v.4c.2.1.3.2.3.2l.1.2v-.2-.3l-.2-.4c-.1 0-.2 0-.2.1zm.4 20.4v-.4-.1s-.1 0-.3.1l-.1.3.1.2c.1.1.2.1.3-.1zm-.6-46.2c-.1-.2-.1-.2-.1-.2 0 .2 0 .2.1.2zm3.9 44.9.5-.2c.5-.6.7-.3.5-.6l-.3-.7-1 .3zm-3.1-23.7c-.2 0-.2 0-.2.1.1-.1.2-.1.2-.1zm-.5-36c-.1-.2-.1-.2-.1-.2 0 .2 0 .2.1.2zm-.4 65.9.1-.3-.2-.3-.4.2.1.2c.1.1.1.2.4.2zm-1.9 12.9c0 .1 0 .2.1.3l.2-.1.1-.3-.3-.1zm.2-49.2-.1-.2h-.3c-.2.1-.3.2-.3.2l.1.1.4.2c.2-.1.2-.2.2-.3zm.2 37s.1 0 .2-.2l-.1-.1c0 .1 0 .1-.1.3zm.7-9.4s0-.1-.2-.2c-.1-.1-.1-.1-.3-.2l-.2.9.2.3c0 .1.1.1.2.1.1-.1.1-.1.2-.2zm-.1 9.8-.1.6c-.1.3 0 0 .6.4h.5v-1zm1.7-12.1s0 0-.1-.2c0-.1 0-.1-.1-.3l-.5.5v.3s0 .1.1.2c.1-.1.1-.1.2 0zm6.3-14.8.1-.3c.1 0 .2 0 .3-.1h-.5l-.1.2c.2.3.2.3.2.2zm-.5 3.1h.2l.2-.3-.1-.9c-.2.1-.3.1-.4.1-.2.1-.2.1-.2.2l.1.7c.2.1.2.1.2.2zm2-3.5c0-.3-.1-.3-.2-.3 0 .4.1.4.2.3zm-2.7 9.9c.2-.1.2-.2.2-.2-.2.1-.2.2-.2.2zm-.2-5.5h.5c.1-.1.1-.1.2-.1 0-.1 0-.2 0-.2l-.2-.2h-.7c.1.2.1.2.1.3 0 .2.1.2.1.2zm-4.4-5.7c.3-.1.4 0 .5 0l.3.1-.1-.2-.3-.3-.5-.2c-.2.1-.2.2-.1.3 0 .3 0 .3.2.3zm-.4 15.9c-.1 0-.1.1.1.3.1-.1.1-.2-.1-.3zm5.9-13.8v.3l.1-.5-.2-.1c-.3.1-.3.1-.2.2zm-.3 1.3c.3 0 .3-.1.3-.2-.2 0-.3.1-.3.2zm-4-40.9.2-.1.1-.2c0-.2-.1-.2-.1-.2h-.1l-.2.2c0 .3.1.3.1.3zm-47.6 92 .3-.1v-.3h-.2c-.1 0-.2 0-.2.2zm-58.7-84.3c-.1.2-.1.2 0 .2 0-.2 0-.2 0-.2zm-1.9 6.1.7.7.9-.9-.3-.6c-.1-.2-.4-.3-1.1 0zm1.8 18.1h-.3c-.2.1-.3.2-.2.3l.1.1.4.2c.3-.1.3-.2.2-.3zm-2-27.4c.1 0 .2-.1.2-.1l.2-.2.1-.6c-.2.1-.2.1-.3.2s-.2.1-.2.1l-.1.4c.1.1.1.1.1.2zm1.6 36.3.1.2c0 .1.1.1.3.1l.1-.2-.2-.2zm-.1-7.4-.1.4c.3.3.4.3.5.2l.3-.2-.2-.5zm-1.2 8.5c.1.1.1.1.2.1v-.1c-.1 0-.2 0-.2 0zm.6 4.6h.2c-.2-.1-.2-.1-.2 0zm-.2-11.3.2.2c0 .1-.1.2-.1.2l.2-.3-.1-.2c-.3.1-.3.1-.2.1zm-.4 27.5h.2c.1-.1.1-.1.1-.2l-.3-.1c-.1.1-.1.1-.1.2zm.2-.9v-.2c-.1-.1-.2-.1-.3-.1l-.1.1.2.3zm.2-14.8h.2l.1-.3-.3-.1-.1.1s0 .1.1.3zm2.9-39.1c-.2 0-.3.1-.3.1v.1l.3.3c.2 0 .3-.1.3-.1l-.1-.2zm1.7-3.1c.1-.2 0-.3 0-.2-.1.2 0 .2 0 .2zm0 8.3c-.1.2-.1.3 0 .3h.1l.3-.1c.1-.2.1-.3 0-.3h-.2zm-2.1-10.6h.7c.3 0 .5-.2.6-1l-.6-.5-1 .3zm1.3 12.1.1.4c.1 0 .1 0 .1.1.1-.1.1-.1.1-.2l.1-.3-.1-.5c-.1.1-.1.2-.2.3-.1.2-.1.2-.1.2zm-1.4-17.6.1-.3-.2-.2c-.2-.1-.3-.1-.4 0v.1l.1.4c.3.1.4 0 .4 0zm-.4 1.9.1.2c.2 0 .3-.1.3-.2v-.2l-.3-.1zm-2.1 37.4c-.2-.1-.3 0-.3.1.2.1.3 0 .3-.1zm4.6-19.4c0 .2.1.2.1.2 0-.2-.1-.3-.1-.2zm-2.5-7.7c.1.3.2.3.3.3h.3l.1-.5-.4-.1zm2.1 7-.4-.3c-.1 0-.2.1-.1.2.1.3.1.3.2.4.3 0 .4.1.4.2l.2.1v-.2zm0-18.4c.2.1.3 0 .3 0-.2-.1-.3-.1-.3 0zm-.8 19.2c.1.2.1.2.1.2l.1-.2h.2zm2.9-9.9.2.1.2-.2c.1-.2.1-.3 0-.3h-.1l-.4.1c.1.1.1.2.1.3zm-5.7 42.9.1.2c.2 0 .2 0 .2-.1l-.1-.2c0-.1.1-.1.1-.2zm5.1-44.4-.1.2.4.3.2-.3-.1-.3c-.3-.1-.4 0-.4.1zm-.4-1.3.9.1.2-1h-.5c-.6.3-.7 0-.6.3zm-4.9 45.2c.1-.3.2-.3.3-.3l.2-.2h-.2-.4l-.5.2c0 .2 0 .2.1.2.4.2.4.2.5.1zm-.8-11.9.2-.2.2-.7c-.2 0-.2 0-.3 0-.2 0-.2.1-.2.1l-.1.6c.1.1.1.1.1.2zm-.2 23.2c.1-.1.1-.1.1-.2-.1.2-.1.2-.1.2zm2.8-50.1c-.2.1-.2.2-.2.2.2-.1.2-.1.2-.2zm4.2-8.7c-.2 0-.2 0-.2.1.2 0 .2 0 .2-.1zm-6.5-3.1-.1-.1c-.2.1-.2.1-.2.2.2-.1.2-.1.3-.1zm4.6-1.5h.2l.2-.6c-.1-.1-.1-.1-.1-.2-.1-.1-.2-.1-.2 0l-.2.2-.2.7c.2-.1.2-.1.3-.1zm-.4 1.6-.2-.2c0-.1.1-.2.1-.2l-.3.2.1.2zm2.9 3.8c0-.2-.1-.3-.1-.3-.1.2 0 .3.1.3zm-8.7 18.4c-.2-.1-.3-.1-.3-.1v.1l.1.4c.2.1.3.1.3.1l.1-.3zm.5 27.5.4.1c0-.1 0-.1.1-.1 0-.1-.1-.2-.1-.2l-.2-.2-.5-.1c.1.2.1.2.2.3.1.2.1.2.1.2zm-.3-39.8h.3c0 .1.1.1.1.2l-.1-.4h-.2c-.1.2-.1.2-.1.2zm0 7.6h.2l.2-.6c-.1-.1-.1-.1-.1-.2-.1-.1-.2-.1-.2 0l-.2.2-.2.7c.2 0 .2 0 .3-.1zm1.4 8.9v-.2c-.1-.1-.2-.1-.2-.1v.2c.1.1.2.1.2.1zm-1.4-8.5c-.2-.1-.3-.1-.3 0 .2.1.3.1.3 0zm-.3 9.1h.2v-.1c-.2.1-.2.1-.2.1zm1 20.9-.2-.2-.3.2.2.3h.3c.1-.2.1-.3 0-.3zm.1-37.2c-.2.1-.2.2-.1.2.2 0 .2-.1.1-.2zm-.4 15.9.3-.1-.2-.2h-.2c.1.2.1.2.1.3zm-1 21.8.1-.4c-.1-.2-.2-.2-.2-.1l-.1.2.1.2c0 .1.1.1.1.1zm.1-11.2c.2-.2.1-.3 0-.3-.1.1-.1.2 0 .3zm.7-30.1-.2.3.3.2.1-.1c.1 0 .1-.1 0-.3v-.5l-.2-.6c-.2 0-.3 0-.3.1-.1.3-.1.3 0 .5.2.2.3.3.3.4zm.1-2.1.5-.2c0-.2 0-.2-.1-.3-.3-.1-.3-.1-.5 0-.1.3-.2.3-.3.3l-.2.1.2.1zm1.4 6 .2.4c.5.4.3.5.6.4l.5-.3-.3-.8zm-2.3 43.8c-.1 0-.1 0-.2 0-.1.1-.1.1-.1.2v.3l.6.5c.1-.2.1-.2.1-.3.1-.2.1-.2.1-.2zm-.6.3c-.2 0-.3.1-.3.2v.2l.3.1.1-.3zm.2 10.9v.2c.1-.2.1-.2 0-.2zm1-14.3-.1-.4h-.6v.6l.3.3c.3-.2.4-.3.4-.5zm1.4 22.2-.2-.1-.3.1c-.2.2-.2.3-.2.3h.1.5c.2-.1.2-.3.1-.3zm-1.3-18.4c-.2.1-.2.2-.1.3.2-.1.1-.2.1-.3zm.8 1.2c.1-.2.1-.2 0-.2l-.2.1c-.1-.1-.1-.1-.2-.2l.2.4zm-5.3-5.9-.1-.6h-.9l-.1 1h.5c.5-.4.6-.1.6-.4zm1.3 11c.1.1.1.1.2.1-.1-.1-.2-.1-.2-.1zm-2.4-17.9c-.1-.2-.2-.2-.3-.2v.1l-.1.4c.1.2.2.2.3.2l.1-.2zm1.4 17.9-.3.1.1.3.2.1c.2-.1.2-.2.1-.3zm.1-12.2c0 .2 0 .3.1.2 0-.1 0-.1-.1-.2zm.4-8.4.2-.3-.2-.9c-.2.1-.3.1-.3.2-.2.1-.2.2-.2.2l.2.7c.1.1.1.1.2.2 0 0 .1 0 .1-.1zm4.7 34.2v.4c.3.2.4.1.5 0l.2-.2-.3-.4zm-6.3-13.7v.5l.1-.3c0-.2 0-.2-.1-.2zm17.4 11.7.1-.2-.1-.3c-.1-.2-.2-.2-.3-.1v.1.4c.2.2.3.2.3.1zm-18-36c-.2.1-.1.2-.1.3.2-.2.2-.2.1-.3zm18.2 39.3h-.2l-.2.2c-.1.2 0 .3 0 .3h.1l.3-.2c.1-.2.1-.3 0-.3zm-9.9-28.5-.6-.2-.4.7.8.5.2-.4c0-.5.2-.5 0-.6zm47.9 48.8c-.1.3.1.5.8.8l.6-.5-.1-1-1.2.1zm-47.3-22.2.2-.1c.1-.2 0-.3-.1-.3l-.2-.1-.2.3zm-4-59.6c-.1-.2-.1-.2-.2-.2l-.1.2c-.1 0-.2 0-.2 0zm-4.4 23.2h.2c.1-.1.1-.1.1-.1v-.3l-.5-.5c-.1.1-.1.2-.1.3-.1.2-.1.2-.1.2zm4.7-14.4c-.1-.2-.2-.2-.2-.1.1.1.1.1.2.1zm-.3-20.3-.7-.1-.4.3c.2.4.4.5.6.5h.5zm.5 15.4-.2-.2c0-.1.1-.2.1-.2l-.3.3.1.2c.3-.1.3-.1.3-.1zm-1.1 11.5.2-.3-.1-.3c-.1 0-.1 0-.2 0-.1.2-.1.2-.1.3.1.1.1.2.2.3zm-.4-1.7.4-.1-.1-.3-.2-.1c-.2.2-.2.3-.2.3zm1.2-.3-.2.3c.1.2.1.2.2.2l.2-.1v-.2c-.1-.2-.2-.2-.2-.2zm3-29.9.3.1.3-.4-.4-.3-.3.1c-.1.4 0 .5.1.5zm-2.5 18 .1-.2c-.1-.2-.2-.2-.3-.2l-.2.1.1.4zm3.1-9.8.3.2.2-.4-.2-.2c-.1-.1-.2-.1-.4.1zm-.6-3.5v.4l.6.1.1-.6-.2-.4c-.4.2-.5.4-.5.5zm-.9 2c0 .1 0 .2.1.2l.2.2.5.1c-.1-.2-.1-.2-.2-.3-.1-.2-.1-.2-.1-.2zm-1.4-6.2h.8l.1-1.1-1.2-.2v.6c.3.7 0 .8.3.7zm-1.8 37.2.3-.2c.1 0 .2.1.3.1l-.3-.4-.3.2zm0-13 .3.1.3-.4-.3-.3-.4.1c-.1.3 0 .5.1.5zm-1.5 33.1c.2.1.3 0 .3-.1-.2 0-.3 0-.3.1zm-.9-25.2.1.2.1-.2v-.4l-.2-.5c-.2 0-.3 0-.3.1-.1.3-.1.3 0 .5.3.1.3.2.3.3zm-.1 6.8c.1.1.1.2.2.2h.3l.6-.7c-.2-.1-.3-.1-.3-.2-.3-.1-.3-.1-.3-.1l-.5.5zm-1.2 10.7.1.3c.3 0 .4 0 .4-.1l.1-.2-.4-.2zm2.5-19.9c-.1-.2-.2-.1-.2-.1.1.1.2.2.2.1zm-.1 8.3c-.2-.2-.3-.2-.3-.1.2.2.3.1.3.1zm6.1-21.5-.2.4c.3.2.5.2.6.1l.3-.2-.2-.5zm-4-18.5c-.3 0-.3.1-.3.2.3 0 .3-.1.3-.2zm-1.1 38.9c-.3-.1-.3-.1-.3 0l.1.3c-.1.1-.2.1-.2.2l.4-.2zm1-39.8.1-.5-.2-.1c-.3.2-.3.2-.2.2l.3.1zm3.9 76.2c.2-.2.1-.2.1-.3-.2.2-.2.3-.1.3zm34 22.6-.3-.1-.6.3c.1.1.2.2.2.2.1.1.2.1.2.1l.5-.3c0-.1 0-.1 0-.2.1.1.1 0 0 0zm-.6-1.8c.2-.1.3-.2.2-.3-.3.1-.3.2-.2.3zm-.5 2.4c.1.2.2.2.2.2 0-.3-.1-.3-.2-.2zm.1-4.2c.3.1.3.1.3.1l-.1-.3c.1-.1.2-.1.2-.2l-.4.2zm1.1-3.4c-.1.2 0 .2 0 .2l.2-.1c.1 0 .1.1.2.1l-.3-.3zm-13.7-1.1v.3c.3.2.4.2.5.1l.2-.2-.3-.4zm13.7 3.4c.1.2.3.2.3.1-.2-.2-.3-.2-.3-.1zm3.1 4.4-.2-.3-.9-.1c0 .2 0 .3.1.4.1.2.1.3.1.3l.7.1c.1-.1.1-.1.3-.1 0-.2 0-.3-.1-.3zm-1.1 6.5c.1.1.2.1.2.1-.2-.1-.2-.1-.2-.1zm-2.8-14.5-.1-.3h-.6v.5l.3.2c.4-.2.5-.3.4-.4zm2.8 13.6c-.2.2-.1.2-.1.3.2-.2.2-.3.1-.3zm1.9.5.4-.5-.6-.7-.8.6.3.4c.7.2.6.4.7.2zm-4.9-8.7-.1-.5h-.2c-.2.2-.2.2-.1.2h.3c.1.2.1.3.1.3zm-8.7-6.1v.2c.1.1.2.1.3.1l.1-.1-.1-.3zm.4.9c0 .1 0 .1 0 0 .1.1.1 0 0 0zm.9 2.1c.1.2.2.3.3.3h.2v-.4h-.3zm-.1 1.4c.1-.1.2-.1.2-.1l-.2.1c0-.1 0 0 0 0zm10.6-.8c.1-.1.1-.1.1-.2l-.1-.3-.6-.4c-.1.2-.1.2-.1.3v.2l.5.3s0 0 .2.1zm-43.4-93.5c-.2-.1-.2 0-.2 0v.1l.2.3c.2.1.3 0 .3 0v-.2zm28.9 90.4c.1-.1.2-.1.2-.1zm6 8.2-.4-.2c-.1.1-.2.1-.1.2.1.2.1.2.2.3.2 0 .3 0 .3.1l.2.1v-.2zm-1.3-6.8c-.2 0-.2.1-.2.1v.1l.2.2c.2 0 .2-.1.2-.1zm5.2-2.2-.3.1-.1.3c0 .3.1.3.2.3h.1l.3-.4c0-.2-.1-.3-.2-.3zm.3 10.5c.2.1.2.1.2.1v-.2c.1 0 .1-.1.2-.1zm-4.4-6.8c.2-.1.2-.1.2 0h.1l-.1-.1-.2-.1h-.3c-.1.1-.1.1 0 .2zm6.1 4c-.2.2-.2.2-.2.2l.3.6c.1 0 .1 0 .2.1.2 0 .2-.1.2-.1l.1-.3-.4-.8c-.1.2-.1.3-.2.3zm11.5 4.3c.2.1.2.1.2 0-.1 0-.2 0-.2 0zm-.2-6.1c.1-.1.1-.2 0-.2-.1.1-.1.2-.1.2zm1.2 6.9-.6-.1-.3.8.9.4.1-.5c-.1-.5.1-.5-.1-.6zm-3.3.8v-.5c-.2-.2-.3-.2-.3-.1l-.1.2.1.2c.2.3.3.2.3.2zm3.7 1.1c.2.1.3 0 .3-.1-.2 0-.3 0-.3.1zm-1.6-8.7.1.2c0 .1.1.1.3 0v-.2l-.2-.2zm.2 1.4.1-.3c-.2-.2-.3-.2-.4-.2l-.2.1.1.4zm1.1-4.2-.1-.7-.9-.4-.5 1 .4.4c.3.1.6.1 1.1-.3zm-1.6 5.4h.2c.2-.1.2-.1.2-.2v-.1l-.3-.2c-.2.1-.2.1-.2.2zm1.2-3.1-.4.5.5.6.7-.6-.3-.3c-.4-.2-.3-.4-.5-.2zm.7 2.1-.2.1-.2.5c.2 0 .2-.1.3-.1.2-.1.2-.1.2-.1l.2-.4c-.1 0-.1 0 0-.1-.3 0-.3 0-.3.1zm-7.5 4.3.4.2c.2-.1.3-.2.2-.2l-.1-.2h-.3c-.3 0-.3.1-.2.2zm.1 2.7c-.1.1-.1.2 0 .2.1-.1.2-.2.1-.2zm-.1-1.2.2-.1-.1-.5-.4.1-.1.3c.2.3.3.3.4.2zm1.6-8.5c-.2.1-.2.1-.2.1.1-.1.2-.1.2-.1zm-.7-1.5c.1 0 .1 0 .2-.3l-.2-.1-.3.1.1.3zm-4.8-.2c.1-.2.1-.3 0-.3-.1.2 0 .3 0 .3zm9.1-1v-.4c-.3-.1-.5-.1-.6.1l-.2.3.3.4zm-.7 12.6c.2-.1.2-.1.1-.1s-.1 0-.1.1zm-1.6 1.3c0 .1.1.2.3.2l.2-.2-.1-.3-.4.1zm2-3.5-.3.3.2.3h.3c.1-.3.1-.4 0-.4zm-2.5-10.9.4.2c.1-.1.1-.2.1-.2-.1-.2-.1-.2-.3-.3-.3.1-.3.1-.4 0h-.2l.1.2zm.4.9c-.1.1-.1.1-.1.2v.3l.3.4c0-.2.1-.2.1-.3 0-.2 0-.2 0-.2l-.2-.3c-.1 0-.1 0-.1-.1zm-17.2-2.9c.1-.1.1-.1.1-.2l-.1-.1h-.2c-.1.1-.1.1-.1.1zm-22.5-4.5.2.4c.5-.1.6-.2.6-.4l.1-.4-.6-.3zm2.5-2.3-.5-.3c0 .2.1.3.1.4.1.2.1.3.1.3l.4.2c.1-.1.1-.1.1 0 0-.1 0-.2 0-.2zm-.7-3.1.2-.6c.1-.3 0-.5-.8-.9l-.7.4v1zm-4.9-3.6.6.5c.1-.2.1-.2.1-.3.1-.2 0-.2 0-.2l-.5-.3c-.1 0-.1 0-.2 0-.1.1-.1.1-.1.2zm5.7 0c0-.2 0-.2 0-.2v.2c-.1 0-.1 0 0 0zm-3.7 1.3c.1-.2.1-.2 0-.2l-.2.1c-.1-.1-.1-.1-.2-.2l.2.3zm2.9 3.5-.6-.3-.4.2c0 .4.2.5.3.6l.4.1zm2.6-2.5c.2.1.2.1.2 0v-.1c-.1 0-.2 0-.2.1zm-.7-.9.6.2.4-.8-.9-.5-.2.5c.1.5-.1.5.1.6zm-.3-1.9c-.2-.1-.3 0-.3.1.3 0 .3-.1.3-.1zm.3-1c0 .1-.1.2-.1.2l.2-.4-.1-.2c-.2 0-.2.1-.2.1zm-2 8.6c-.2.3-.2.3-.2.4.2.2.2.3.2.4l.1.2.1-.2.1-.4-.1-.5c-.1 0-.1 0-.2.1zm2.7-1.8c-.1 0-.1.1 0 .4l.3.1.3-.2-.3-.3zm-11.2-18.2c-.2.1-.2.1-.3 0h-.2l.1.1.2.1h.3c.1-.1.1-.1-.1-.2.1 0 .1 0 0 0zm-4.8-22.4c-.1.2 0 .2 0 .2l.2-.1c.1.1.1.1.2.2l-.2-.3zm.6 15.1c0 .2.1.3.2.2 0-.2-.1-.2-.2-.2zm.4-4.2h-.2l-.2.2c-.1.2-.1.3 0 .3h.1l.2-.2c.1-.2.1-.3.1-.3zm-1.4-3.7c-.2.2-.2.4-.1.4l.2.2.4-.2-.2-.4zm-2-3.1.2.2c0 .1-.1.2-.1.2l.2-.3-.1-.2c-.2 0-.2.1-.2.1zm-.4 1.2c.2.1.3.1.3 0-.2-.2-.3-.1-.3 0zm6.6 13.3.2.2c0 .1-.1.2-.1.2l.2-.3-.1-.2c-.3.1-.3.1-.2.1zm1.6-2.4-.5-1.2-.6.1c-.3 0-.5.2-.5 1l.7.5zm1.5 6-.1.4c.1.1.1.1.2.1.2-.1.2-.1.2-.3-.1-.2-.1-.3 0-.3v-.2l-.1.1zm2.2 18.4c.1-.2.1-.3 0-.3h-.1c0 .2 0 .3.1.3zm-5.7-20.5c-.2 0-.2.1-.2.1l-.1.6c.1.1.1.1.1.2.1.1.2.1.2 0l.2-.2.2-.7c-.2 0-.3 0-.4 0zm11.7 21.4c-.2 0-.2 0-.3.1-.2.1-.2.1-.2.1l-.2.3c.1 0 .1 0 0 .1h.2l.2-.1zm3 .1c-.1-.1-.1-.1-.2-.1v.1c.2.1.2.1.2 0zm7.6 5.7c-.2.2-.1.3-.1.3.3-.2.2-.3.1-.3zm-2.4 6.6c.1.1.2.1.2.1-.2-.1-.2-.1-.2-.1zm-.4-10.1c-.3 0-.4.3-.4 1.1l.7.4.9-.5-.6-1.1zm-.2 3.6.2.2v.2l.2-.4-.1-.1c-.3 0-.3.1-.3.1zm.1 1.1c-.2-.1-.3 0-.3.1.2.1.3 0 .3-.1zm-.5.5-.1.6c.1.1.1.1.1.2.1.1.2 0 .2 0l.2-.2.1-.7c-.2 0-.2 0-.3 0-.1.1-.2.1-.2.1zm0 5-.3.1.1.3.2.1c.2-.2.2-.3.1-.3zm5.1-11.6c0-.1.1-.1.1-.2l-.2.3.1.1c.2 0 .2-.1.2-.1zm-.8 8v-.2.2l-.3.1-.1.4c.1.1.1.1.2 0 .2-.1.2-.2.2-.3-.1-.1-.1-.1 0-.2zm.1-2.3-.2.1c-.1-.1-.1-.1-.2-.2l.2.3.2-.1c.1-.1.1-.1 0-.1zm-1-6.9-.2-.2h-.5c.1.1.2.2.2.2.1.2.2.2.2.2h.4c0-.1 0-.1.1-.1-.1 0-.2-.1-.2-.1zm-7.6 3.4c.1.2.2.2.2.1l.1-.2c.1 0 .2 0 .2-.1h-.4zm1.1-.4c0 .2.1.2.2.2 0-.2-.1-.2-.2-.2zm.8-2.9v-.3l-.4-.2-.1.4.1.3c.3 0 .4-.1.4-.2zm-4.3 2.2-.4-.2-.6.1c-.1.2-.1.3 0 .3.3.2.3.2.5.2.2-.2.4-.2.4-.2l.2.2.3-.3-.1-.2c-.1.1-.1.1-.3.1zm14.6 5.5-.2-.1-.3.1c-.2.2-.2.3-.2.3h.1.4c.2-.2.2-.3.2-.3zm-9.7-6.5-.9.1v1l.5-.1c.5-.4.6-.2.6-.4zm3.7-2.2v-.4c-.1-.2-.2-.2-.3-.1l-.1.2.1.2c.2.1.3.1.3.1zm-7-3.8c-.1.3-.1.4 0 .4l.2.2.4-.3-.2-.3zm7.9 7-.1-.4h-.6v.6l.3.3c.4-.2.5-.4.4-.5zm-4-1.4c0-.2 0-.2-.1-.2l-.1.1c.1.1.1.1.2.1zm3 5.1v.2l.4.1.1-.3-.2-.2c-.3 0-.3.1-.3.2zm.8-.6c-.1 0-.1 0-.2 0-.1.1-.1.1-.1.2l.1.3.6.5c.1-.2.1-.2.1-.3.1-.2 0-.2 0-.2zm-3.8 7.4-.1.3c.1.1.2.2.2.2l.1-.3c-.1-.2-.2-.3-.2-.2z" fill="#fff"/></svg>