<svg xmlns:dc="http://purl.org/dc/elements/1.1/" xmlns:cc="http://creativecommons.org/ns#" xmlns:rdf="http://www.w3.org/1999/02/22-rdf-syntax-ns#" xmlns:svg="http://www.w3.org/2000/svg" xmlns="http://www.w3.org/2000/svg" xmlns:sodipodi="http://sodipodi.sourceforge.net/DTD/sodipodi-0.dtd" xmlns:inkscape="http://www.inkscape.org/namespaces/inkscape" preserveAspectRatio="xMidYMid" viewBox="0 0 12 23.75" version="1.1" x="0px" y="0px"><defs><style>

      .cls-2 {
        fill: #000000;
      }
    </style></defs><path d="M1.498,18.178 C1.255,18.178 1.010,18.119 0.781,17.995 C0.054,17.598 -0.215,16.687 0.182,15.960 C0.182,15.960 8.442,0.798 8.442,0.798 C8.839,0.070 9.749,-0.197 10.478,0.199 C11.205,0.595 11.474,1.506 11.077,2.234 C11.077,2.234 2.816,17.395 2.816,17.395 C2.544,17.894 2.029,18.178 1.498,18.178 Z" class="cls-2" fill-rule="evenodd"/><path fill-rule="evenodd" class="cls-2" d="M1.498,18.178 C1.255,18.178 1.010,18.119 0.781,17.995 C0.054,17.598 -0.215,16.687 0.182,15.960 C0.182,15.960 8.442,0.798 8.442,0.798 C8.839,0.070 9.749,-0.197 10.478,0.199 C11.205,0.595 11.474,1.506 11.077,2.234 C11.077,2.234 2.816,17.395 2.816,17.395 C2.544,17.894 2.029,18.178 1.498,18.178 Z"/><text x="0" y="34" fill="#000000" font-size="5px" font-weight="bold" font-family="'Helvetica Neue', Helvetica, Arial-Unicode, Arial, Sans-serif">Created by Shital Patel</text><text x="0" y="39" fill="#000000" font-size="5px" font-weight="bold" font-family="'Helvetica Neue', Helvetica, Arial-Unicode, Arial, Sans-serif">from the Noun Project</text></svg>