<svg xmlns="http://www.w3.org/2000/svg" xmlns:xlink="http://www.w3.org/1999/xlink" version="1.1" x="0px" y="0px" viewBox="0 0 100 125" style="enable-background:new 0 0 100 100;" xml:space="preserve"><style type="text/css">
	.st0{fill-rule:evenodd;clip-rule:evenodd;}
</style><path class="st0" d="M74.8,76.9l-3.5-1.2c-1.4,2.7-2.2,4.2-3.4,5.8c1,0.4,2,0.8,2.7,1.4C72.1,81.6,74.1,78.6,74.8,76.9L74.8,76.9z   M74.8,23.1l-3.5,1.2c-1.4-2.7-2.2-4.2-3.4-5.8c1-0.4,2-0.8,2.7-1.4C72.1,18.4,74.1,21.4,74.8,23.1L74.8,23.1z M25.2,23.1l3.5,1.2  c1.4-2.7,2.2-4.2,3.4-5.8c-1-0.4-2-0.8-2.7-1.4C27.9,18.4,25.9,21.4,25.2,23.1L25.2,23.1z M33,13.4c0.5,0.3,1.8,0.6,2.5,1  c2.3-2.2,4.3-3.8,7-4C40.2,8.9,36,10.9,33,13.4L33,13.4z M20.9,5c2.5,4.5,8.5,7.8,16,10.4c5.8,2,11.3,9.1,10.9,15.6  c-1.4-2.8-4.9-3.2-5.4-0.7c-0.4,2.4,2.7,5.6,5.2,6.6c1.1,0.4,1.9,1.2,2.4,2.2c0.5-1,1.4-1.8,2.4-2.2c2.5-1,5.6-4.1,5.2-6.6  c-0.4-2.5-4-2.1-5.4,0.7c-0.4-6.6,5.1-13.6,10.9-15.6c7.5-2.6,13.5-5.9,16-10.4c-0.3,4.8-5.2,9.8-8.7,11.7c-4.3,2.3-7.6,1.3-11,7.9  c2.6-0.2,3.8,1.8,3.2,3.6c4.1-1.9,9.3-3.2,13.9-4.9c2.8-1,6.2-1.5,11.6-6.5c-2.9,7.2-10.9,10.2-16.5,12.9c-1.4,0.6-4.4,1.5-5.7,3.9  c1.4,0.1,2.8,2.2,2.8,3.9c1.9,0.1,5.8-3.9,4.7-7.7l3.4-1.7c1.7,5.4-0.1,11.5-6.3,13.7c-0.7,4.8-4.2,7.6-11.3,8.1  c4.2-3.3,5.4-6.6,5.2-10c-0.4-7.2-9.2-1.3-11.2,3.2c-0.6,1.3-1.6,4.2-2.4,6.8c0.8,2.7,1.9,5.6,2.4,6.8c2,4.6,10.9,10.5,11.2,3.2  c0.2-3.4-1-6.8-5.2-10c7.1,0.6,10.6,3.3,11.3,8.1c6.3,2.1,8,8.3,6.3,13.7l-3.4-1.7c1.1-3.9-2.8-7.8-4.7-7.7c0,1.8-1.4,3.8-2.8,3.9  c1.3,2.4,4.4,3.3,5.7,3.9c5.6,2.7,13.6,5.7,16.5,12.9c-5.4-5-8.8-5.5-11.6-6.5c-4.6-1.7-9.8-3-13.9-4.9c0.6,1.9-0.7,3.9-3.2,3.6  c3.4,6.6,6.7,5.6,11,7.9c3.5,1.9,8.4,6.9,8.7,11.7c-2.5-4.5-8.5-7.8-16-10.4c-5.8-2-11.3-9.1-10.9-15.6c1.4,2.8,4.9,3.2,5.4,0.7  c0.4-2.4-2.7-5.6-5.2-6.6c-1.1-0.4-1.9-1.2-2.4-2.2c-0.5,1-1.4,1.8-2.4,2.2c-2.5,1-5.6,4.1-5.2,6.6c0.4,2.5,4,2.1,5.4-0.7  c0.4,6.6-5.1,13.6-10.9,15.6c-7.5,2.6-13.5,5.9-16,10.4c0.3-4.8,5.2-9.8,8.7-11.7c4.3-2.3,7.6-1.3,11-7.9c-2.6,0.2-3.8-1.8-3.2-3.6  c-4.1,1.9-9.3,3.2-13.9,4.9c-2.8,1-6.2,1.5-11.6,6.5c2.9-7.2,10.9-10.2,16.5-12.9c1.4-0.6,4.4-1.5,5.7-3.9c-1.4-0.1-2.8-2.2-2.8-3.9  c-1.9-0.1-5.8,3.9-4.7,7.7l-3.4,1.7c-1.7-5.4,0.1-11.5,6.3-13.7c0.7-4.8,4.2-7.6,11.3-8.1c-4.2,3.3-5.4,6.6-5.2,10  c0.4,7.2,9.2,1.3,11.2-3.2c0.6-1.3,1.6-4.2,2.4-6.8c-0.8-2.7-1.9-5.6-2.4-6.8c-2-4.6-10.9-10.5-11.2-3.2c-0.2,3.4,1,6.8,5.2,10  c-7.1-0.6-10.6-3.3-11.3-8.1c-6.3-2.1-8-8.3-6.3-13.7l3.4,1.7c-1.1,3.9,2.8,7.8,4.7,7.7c0-1.8,1.4-3.8,2.8-3.9  c-1.3-2.4-4.4-3.3-5.7-3.9c-5.6-2.7-13.6-5.7-16.5-12.9c5.4,5,8.8,5.5,11.6,6.5c4.6,1.7,9.8,3,13.9,4.9c-0.6-1.9,0.7-3.9,3.2-3.6  c-3.4-6.6-6.7-5.6-11-7.9C26.1,14.8,21.2,9.8,20.9,5L20.9,5z M67,13.4c-3-2.4-7.2-4.5-9.5-3c2.7,0.2,4.7,1.8,7,4  C65.2,14,66.5,13.7,67,13.4L67,13.4z M25.2,76.9c0.7,1.7,2.8,4.8,4.2,6c0.7-0.6,1.7-0.9,2.7-1.4c-1.2-1.6-2-3.1-3.4-5.8L25.2,76.9  L25.2,76.9z M33,86.6c3,2.4,7.2,4.5,9.5,3c-2.7-0.2-4.7-1.8-7-4C34.8,86,33.5,86.3,33,86.6L33,86.6z M67,86.6  c-0.5-0.3-1.8-0.6-2.5-1c-2.3,2.2-4.3,3.8-7,4C59.8,91.1,64,89.1,67,86.6z"/><text x="0" y="115" fill="#000000" font-size="5px" font-weight="bold" font-family="'Helvetica Neue', Helvetica, Arial-Unicode, Arial, Sans-serif">Created by Aleks</text><text x="0" y="120" fill="#000000" font-size="5px" font-weight="bold" font-family="'Helvetica Neue', Helvetica, Arial-Unicode, Arial, Sans-serif">from the Noun Project</text></svg>