<svg enable-background="new 0 0 100 125" viewBox="0 0 100 125" xmlns="http://www.w3.org/2000/svg"><g fill="#fff"><path d="m84.5 82.7c-.1.2-.3.3-.4.4l-.4 2.2-2.5.6-.5-2.1c-.1 0-.1 0-.2 0v3.2l-2.8.9-.8-2s-.1.1-.1.1l.2 2.5-2.5.3-.8-1.8c-.1 0-.2 0-.2 0v1.6l-3.9-.6-.4-1.7c-.3-.1-.6-.2-.9-.4-.5.9-1.4 3.2 1 7-4-.9-4.9-7.1-5.1-9.1-.1-.1-.2-.1-.3-.2-.5.9-2.1 2.9-5.5 3 1.9-1.8 2.1-4.1 2-5.3-.4-.2-.7-.5-1-.7-.7-.5-1.3-.9-1.9-1.3-.3 1.1-1.4 3.2-6.3 4.2 3-3 3.1-5 2.8-5.9-1.6-.7-3.1-1.2-4.4-1.6.2.7 1.4 6.5-4.6 9.8 12.7 2 18.5 6.1 20.9 7.8.1.1.2.2.2.4l5.3 1.6c.1-1.9.3-4 1.2-5.3.2 2.4.6 4.4 1.1 6l2.3.7c-.2-1.6-.2-3.3.1-4.7.4 2 1.2 3.9 1.9 5.3l2.3.7c.2-1.5.4-3.7-.4-6.4 2 1.2 3 6.9 3 7.2l.4.1s1-4.5-.5-10.8c.4.5.7 1.1 1.1 1.6l.2-2.1c0-.2.2-.4.4-.5h.3c.1-1.9-.1-3.7-.3-4.7z"/><path d="m59.4 77.9c-.4 0-.8 0-1.2 0-.3 0-.5 0-.7 0 .7.4 1.6 1.1 2.6 1.8 2.7 1.9 6.4 4.6 9.8 5.7l2.8-1c-5 0-12.9-6.2-13.3-6.5z"/><path d="m83.3 99.7c-1.9-.5-7.4 1.9-7.4 1.9s-3.2.7-9.9-7.1c-.1.1-.2.1-.3.1s-.2 0-.3-.1c-2.4-1.7-8.1-5.8-20.9-7.7-.3 0-.5-.3-.5-.5-1.7.7-3.9 1.3-6.6 1.6 1.3-.5 2.4-1 3.3-1.5-3.2-.6-5.4-2.4-6.1-5.1-.8-2.9.2-6.2 2.6-8.4 2.5-2.3 6-3 9.8-2.1-.7-.6-1.6-1.3-2.4-1.9-2.2-1.6-4.9-3.6-6.8-5.6-.2-.2-.2-.6 0-.8s.6-.2.8 0c11.2 10 19.5 4.4 19.9 4.2.3-.2.6-.1.8.1s.1.6-.1.8c-.1 0-5.6 3.8-13.5.7 2.9 2.2 3.9 3 3.9 3.7.1.3 1.2 1.8 3.3 3 1.8 1.1 4.7 2.3 7.9 1.3 2.4-1.3 2.2-2.1 2-3.2s-.4-2.4 1.4-4.1c.2-.2.6-.2.8 0s.2.6 0 .8c-1.3 1.3-1.2 2.1-1 3.1.3 1.5.2 2.8-2.7 4.4h-.1c-.1 0-.1 0-.2 0 2.2 1.6 8.8 6.2 12.5 5.6 2.6-.3 2.8-1.3 3-2.2.1-.6.3-1.5 1.4-1.7.9-.1 1.6.3 2.3.7.6.4 1.1.7 1.6.6.2 0 .3-.1.5-.3-.3-.1-.5-.2-.8-.4-.5-.3-1.1-.8-1.8-1.3-1.1-.9-2.4-1.9-3.6-2.5-.2.6-.9 2.4-2.3 3.2-.4.2-.9.3-1.3.3-.3 0-.7-.1-1.1-.2-3.5-1.1-4.4-3.3-4.1-5.1.3-1.7 1.6-2.9 3.2-3.2-.1-.3-.3-.7-.5-1s-.1-.6.2-.8.6-.1.8.2c.1.2.8 1.3.7 2.2 0 .3-.3.5-.6.5h-.1c-1.3 0-2.4 1-2.6 2.2-.2 1.3.6 3 3.4 3.8.6.2 1.1.2 1.5-.1 1-.5 1.5-1.9 1.7-2.5-.3-.1-.7-.1-1 0-.7.1-1.3.6-1.8 1.5-.2.3-.5.4-.8.2s-.4-.5-.2-.8c.7-1.1 1.6-1.8 2.6-2 2.2-.4 4.6 1.6 6.6 3.1.6.5 1.2 1 1.7 1.3.4.3.7.4 1 .3.1-.2.3-.2.4-.2.1-.1.3-.2.4-.4 0-.2.1-.4.2-.5h.1c.2-.5.4-1 .4-1.8.4-4.2-2.1-6.3-4.3-8.1-1.1-.9-2-1.7-2.6-2.7 0-.1-.1-.1-.1-.2-2.2 0-3.9-2.1-3.9-4.6s1.8-4.6 4-4.6c0-.2.1-.5.4-.5 3-1.1 3.1-4.1 2.8-5.8-.9 1.8-2.5 4.6-3.3 5.4-.5.4-.9.3-1.1.2-.5-.2-.9-1-1.1-1.8-.4 1.1-.9 2.4-1.3 3.5-.2.7-.6.8-.9.7-.4 0-1-.1-1.6-4.8-.6 1.5-1.2 3.9-.4 7 .1.3-.1.5-.3.7-.2.1-.5 0-.7-.2-1.8-2.5-3.9-6.6-5.5-9.9.9 3.4 2 7.4 2.8 9.4.1.1.1.3 0 .4-.2.7-.7 1-1 1.1-.2.1-.4.1-.5.1-.3 0-.5-.1-.8-.1.1.2.2.4.3.7.9 2.4-.1 4.9-2.2 5.7s-4.5-.6-5.3-3c-.1-.4-.2-.8-.3-1.2l-.3.4s-5.2 3.3-9.5 2.5c1.7-.8 4.7-4.2 4.7-4.2s-4.7 2.9-10.7-2.3c3.8.5 8.9-.5 9.5-.5s-6.8.1-9.5-7.9c6 5.3 10.9 5.8 10.9 5.8s-4.9-4.8-3.1-9.2c3.6 5.9 11.2 10.6 11.4 10.6l-.1.4c1.1-.1 2.2.3 3.1 1.1.2-.2.5-.2.7-.1.3.2.9.5 1.3.4 0 0 .1 0 .2-.2-1.7-4.1-4-14.4-4.1-14.9-.1-.3.1-.6.4-.7s.6 0 .7.3c0 .1 3.4 7.7 6.4 12.7-.2-4.1 1.7-6.7 1.8-6.8.1-.2.4-.3.6-.2s.4.3.4.5c.2 1.7.5 3.7.8 4.8.7-2.1 1.8-4.6 1.8-4.7.1-.2.4-.4.6-.3.3 0 .5.3.5.5.1 1.2.4 2.5.6 2.9.2-.2.4-.5.7-.9 0-.1 0-.2 0-.3.3-1.6-.8-2.3-2.5-3.2-.8-.4-1.6-.8-2.2-1.4-.1-.1-.1-.1-.1-.2-2.5-5.6-8.1-11.9-8.2-12-.2-.2-.2-.5 0-.8-2-1.9-2.8-3.3-8.3-4.3 0 .3-.3.5-.6.5 0 0 0 0-.1 0-.7-.1-1.5-.2-2.5-.4-2.8-.5-6.6-1.3-8.9-.6-.2.1-.3 0-.5-.1-2.1 2.8-3.7 5.3-3.5 7.4 1.1-4.6 3.8-3.3 3 1.1-.8 1.8-2.6 8.9-9.8 8.9-3-1.5-4.9-3.6-5.6-6-1 1-3.3 3.9-2.5 5.7 4.9 2 9.6 4.9 10.6 9.8 0 .2 0 .4-.1.5s-.3.2-.5.2l-2.2-.1c-.3 0-.5-.2-.5-.4 0-.1-.4-1.3-2-2.1.6 1.5-.4 3.5-1.3 5.2-.4.7-.7 1.4-.8 1.9s.3.9 1 1.5 1.5 1.4 1.5 2.5c0 1-.6 2.2-2 3.5 0 0-.1.1-.1.1-.2.1-.6.4-1.1.4-.2 0-.4 0-.6-.1-.8-.4-.8-1.6-.9-3.2-.1-2.5-.2-6-3.1-7.9-.3-.2-.3-.5-.2-.8.2-.3.5-.3.8-.2 3.3 2.3 3.5 6.2 3.6 8.8 0 .9.1 2.1.3 2.2 0 0 .1 0 .5-.2 1.1-1.1 1.6-2 1.6-2.6 0-.7-.6-1.2-1.2-1.7-.7-.7-1.6-1.4-1.4-2.6.1-.6.5-1.4.9-2.2.8-1.5 1.8-3.5 1.1-4.5-.3-.4-.8-.7-1.7-.8-.2 0-.3 0-.5 0-.1 0-.2 0-.3-.1-.3 0-.7 0-1.1 0-2.7.8-4.4.8-5.3-.2-.7-.7-.6-1.7-.5-2.3-1.3-1.3-4.4-3.9-6.5-3.6 0 .6 0 1.2.2 1.8.5 2.2 2.2 4 4.8 5.2l.3.2c2.1 1.2 3.1 2 3.2 6 3.5 3.2 3.2 7.1 3 10.1s-.2 4.5 2.1 4.8c1.2 0 1.4-.5 1.8-2.2.3-1.4.7-3.3 2.5-5.1.9-.9 1.8-1.3 2.5-1 .9.3 1.4 1.5 1.6 3.8 0 .3-.2.6-.5.6s-.6-.2-.6-.5c-.1-2.4-.7-2.7-.8-2.8-.2-.1-.7.1-1.3.7-1.6 1.5-1.9 3.2-2.2 4.6-.3 1.2-.6 2.5-1.9 2.9.1 1.5.6 7.4 4.7 11.5 3 3 7.1 4.6 12.5 4.6 7.2.3 10.6.8 12.5 3.3l.2.3c1.5 2.1 3.2 4.5 8.3 4.3s6.8 1.4 7.8 2.4l.4.4c2.7 2.8 5.3 2.1 6 1.8.9-.3 1.3-.8 1.3-1 .1-1.9.8-2.9 4.1-2.8.5 0 .9-.2 1.2-.6 1.1-1.4.6-4.9.3-6.1 0-.1-.5-3.8-2.2-6.6l-.1.8c0 .3-.3.6-.6.5 1.8 3.5 2.1 7.1 2.1 7.1s-1.2 2.5-3.1 2z"/><path d="m79.4 81c-.5-.3-1-.6-1.4-.6-.3.1-.3.2-.5.8-.1.5-.3 1.1-.7 1.7l1.2-.4c.1-.2.2-.4.3-.6s.2-.3.4-.3.3 0 .5.1.3.2.5.3l1-.4c-.5-.1-.9-.3-1.3-.6z"/><path d="m83.5 80.6.8-.3c0-.2 0-.3 0-.5-.2.1-.3.3-.5.4-.1.2-.2.3-.3.4z"/><path d="m21.3 53.8c.3.3 1.3.8 4.2-.2h.2.2c-1.7-1.6-4.1-1.2-4.8-1-.1.4-.1.9.2 1.2z"/><path d="m33.4 56.9h1c-2-6.3-11.4-9-17-10.7-1.2-.3-2.2-.6-2.9-.9-.4.6-.7 1.3-.9 2.2 2.8-.2 6.2 3 7.2 4 1.1-.3 4.6-.8 6.7 2.2h.2c3.9.2 5.3 2.3 5.7 3.2z"/><path d="m48.4 72.5c-4.1-1.5-7.9-1-10.5 1.3-2.1 1.9-3 4.8-2.3 7.2.6 2.2 2.5 3.8 5.2 4.3.3.1.5.4.5.7 6.4-4.4 2.5-10.7 2.5-10.7l5.3.6c-7.1-2-8.3.3-8.7 1.2-.1.1-.1.2-.2.3-.5 1.3-.6 2.4-.1 3.3.5 1 1.5 1.8 3.1 2.3.3.1.5.4.4.7s-.4.5-.7.4c-1.9-.6-3.2-1.6-3.8-2.9-.6-1.2-.5-2.6.1-4.2 0 0 0-.1.1-.1 0-.1.1-.1.1-.2 1-1.9 3.3-4 11.2-1.4-.9-1-1.9-2.1-2.2-2.8z"/><path d="m27.7 41.9c.7 2.5 2.6 4.6 5.6 6.1 7.2 0 9-7.1 9.8-8.9.8-4.4-1.9-5.7-3-1.1-.1-2.1 1.4-4.6 3.5-7.4-.1-.1-.2-.2-.3-.3-.1-.3.1-.6.4-.7s.5-.1.8-.2c5.2-6.6 12.6-14.8 10.1-24.4-3.6 13-14.2 15.6-19.8 21.5-5.7 5.1-8.1 10.2-7.4 14.5.1 0 .2.1.3.1.2.2.2.6 0 .8z"/><path d="m56.1 31.2c5.5 1 6.3 2.5 8.3 4.4.1-.1.2-.1.4-.1.4-5.2 12.5-14.5 5.8-27-3.5 15.9-12 18.7-14.7 22.4.1-.1.2.1.2.3z"/><path d="m44.1 30.6c2.3-.7 6.1 0 8.9.6 1 .2 1.8.4 2.5.4h.1c.3 0 .5-.2.6-.5-.2 0-.3-.1-.5-.1.1-.1.2-.3.3-.4-.1-.1-.2-.1-.3-.2-.6-.1-1.4-.2-2.4-.4-2.6-.5-6.1-1.2-8.6-.7-.3.4-.6.8-.9 1.2-.1.2.1.2.3.1z"/><path d="m43.4 30.3c0 .1.1.2.3.3.3-.4.6-.8.9-1.2-.3 0-.6.1-.8.2-.4.1-.5.4-.4.7z"/><path d="m56.1 31.2c0-.2 0-.4-.2-.5-.1.1-.2.3-.3.4.2 0 .3.1.5.1z"/><path d="m64.8 35.9c-.1-.1-.3-.3-.4-.4-.2.2-.2.5 0 .8.1.1 5.7 6.3 8.2 12 0 .1.1.1.1.2.6.6 1.4 1 2.2 1.4 1.8 1 2.8 1.6 2.5 3.2v.3c.3-.5.7-1.1 1-1.7-.4-1.4-1.8-2.1-3.1-2.8-.7-.4-1.4-.7-1.9-1.2-2.6-5.8-8.1-11.9-8.3-12.1-.1-.1-.3-.2-.4-.2.1.1.1.3.1.5z"/><path d="m64.4 35.5c.1.1.3.2.4.4 0-.2 0-.4 0-.6-.1 0-.3.1-.4.2z"/><path d="m27.7 42c-.1-.3-.2-.7-.2-1-.2 0-.4 0-.5.1-.2.2-3.3 3.3-3 6.1.4.2.9.3 1.3.5-.9-1.8 1.3-4.7 2.4-5.7z"/><path d="m27.7 41.9c.2-.2.2-.6 0-.8-.1-.1-.2-.1-.3-.1.1.3.2.6.3.9z"/><path d="m43.9 75.2s3.8 6.3-2.5 10.7c-.1.3-.3.4-.5.4h-.1c-.9.6-2 1.1-3.3 1.5 2.8-.3 4.9-.8 6.6-1.6v-.1c0-.3.3-.5.6-.5.1 0 .3 0 .4.1 6-3.3 4.8-9.1 4.6-9.8-.2-.1-.3-.1-.5-.1z"/><path d="m78.6 53.3c-.1.3-.3.5-.6.5h-.1c-.2 0-.4-.2-.4-.4-.3.4-.5.7-.7.9-.2-.4-.5-1.6-.6-2.9 0-.3-.2-.5-.5-.5s-.5.1-.6.3c0 .1-1.1 2.5-1.8 4.7-.3-1.1-.6-3.1-.8-4.8 0-.2-.2-.4-.4-.5s-.5 0-.6.2c-.1.1-2 2.7-1.8 6.8-3-5-6.4-12.6-6.4-12.7-.1-.3-.4-.4-.7-.3s-.4.4-.4.7c.1.4 2.4 10.8 4.1 14.9-.1.2-.2.2-.2.2-.3.1-.9-.2-1.3-.4-.2-.2-.5-.1-.7.1.4.4.8.8 1 1.3.2.1.5.1.8.1.2 0 .4 0 .5-.1.3-.1.8-.4 1-1.1 0-.1 0-.3 0-.4-.9-2-2-6-2.8-9.4 1.6 3.3 3.8 7.4 5.5 9.9.2.2.5.3.7.2s.4-.4.3-.7c-.8-3.1-.2-5.5.4-7 .7 4.7 1.2 4.8 1.6 4.8.2 0 .6 0 .9-.7.3-1.1.9-2.5 1.3-3.5.2.8.5 1.6 1.1 1.8.2.1.6.2 1.1-.2.8-.8 2.4-3.6 3.3-5.4.3 1.8.2 4.7-2.8 5.8-.2.1-.4.3-.4.5.5 0 .9.1 1.3.3 3.8-1.8 3.4-6.3 2.6-8.5-.1-.2-.3-.4-.5-.4s-.4.1-.5.3c-.5 1.1-1.3 2.5-2 3.7.2.7.2 1.3.1 1.9z"/><path d="m77.9 53.8h.1c.3 0 .5-.2.6-.5.1-.6.1-1.2 0-1.7-.4.6-.7 1.2-1 1.7-.1.3.1.4.3.5z"/><path d="m77.7 56.4c0-.1 0-.1 0-.2-2.2 0-4 2.1-4 4.6s1.8 4.6 3.9 4.6c0-.2.1-.5.3-.6.3-.2.6-.1.8.2 0 .1.1.1.1.2 1.7-.6 2.9-2.3 2.9-4.4 0-2-1.1-3.7-2.6-4.3-.2.1-.4.2-.6.2-.4.1-.7 0-.8-.3zm2 3.7c1 1.3-.1 4.6-2.4 3.6-2.4-.8-1.4-4.7.8-4.8.2 1.3.5 2.5.5 2.5s0 0 1.1-1.3z"/><path d="m77.7 56.4c.1.3.4.4.7.3.2-.1.4-.2.6-.2-.4-.2-.9-.3-1.3-.3-.1.1-.1.1 0 .2z"/><path d="m61 59-3.4 4.7c0 .4.1.8.3 1.2.9 2.4 3.3 3.7 5.3 3s3.1-3.3 2.2-5.7c-.1-.2-.2-.5-.3-.7-.5-.2-.9-.4-1-.5-.3-.2-.3-.5-.1-.8 0 0 .1-.1.1-.1-.9-.8-2-1.2-3.1-1.1zm1.7 2.4c.3 1.3.4 2.1.4 2.1s.7-.7 1.4-1.3c1 1.9-.4 4.9-2.8 3.8-2.5-1.8 0-4.8 1-4.6z"/><path d="m64.2 61c.1 0 .5.3 1 .5-.3-.5-.6-1-1-1.3 0 0-.1 0-.1.1-.2.1-.2.5.1.7z"/><path d="m60.1 59.2c.3-.1.6-.2.9-.2l.1-.1c-.2 0-7.8-4.7-11.4-10.6-1.8 4.4 3.1 9.2 3.1 9.2s-4.9-.5-10.9-5.8c2.7 8 10.1 7.9 9.5 7.9s-5.7 1-9.5.5c6 5.2 10.7 2.3 10.7 2.3s-3 3.4-4.7 4.2c4.3.8 9.5-2.5 9.5-2.5l.3-.4c-.3-2 .7-3.9 2.4-4.5z"/><path d="m60.1 59.2c-1.7.6-2.7 2.5-2.4 4.5l3.3-4.7c-.3 0-.6.1-.9.2z"/><path d="m83.5 79c.1 0 .2 0 .3.1.3.2.4.5.2.8-.1.1-.1.2-.2.3.2-.1.4-.2.5-.4 0-.3-.1-.6-.3-.9-.1-.1-.1-.2-.1-.3-.2.2-.3.3-.4.4z"/><path d="m83 79.3c-.3.1-.6 0-1-.3-.5-.3-1.1-.8-1.7-1.3-1.9-1.6-4.3-3.5-6.6-3.1-1 .2-1.9.9-2.6 2-.2.3-.1.6.2.8s.6.1.8-.2c.5-.9 1.1-1.3 1.8-1.5.3-.1.6 0 1 0v-.1c.1-.3.4-.5.7-.4s.5.4.4.7c0 0 0 .1-.1.2 1.2.6 2.5 1.6 3.6 2.5.6.5 1.3 1 1.8 1.3.3.2.5.3.8.4.3-.2.6-.5.9-1z"/><path d="m77.5 65.4c0 .1 0 .1.1.2.6 1 1.5 1.8 2.6 2.7 2.2 1.8 4.7 3.9 4.3 8.1-.1.7-.2 1.3-.4 1.8.2-.1.6-.1.7.1.1.1.2.3.3.4.3-.6.5-1.4.6-2.2.4-4.8-2.4-7.2-4.7-9.1-.9-.7-1.7-1.5-2.2-2.2-.4.1-.8.2-1.3.2.1 0 .1 0 0 0z"/><path d="m77.8 64.8c-.2.1-.3.4-.3.6h.1c.4 0 .8-.1 1.1-.2 0-.1-.1-.1-.1-.2-.2-.3-.5-.4-.8-.2z"/><path d="m73.2 78.3c-.5.2-.9.3-1.5.1-2.8-.9-3.6-2.5-3.4-3.8s1.3-2.2 2.6-2.2h.1c.3 0 .5-.2.6-.5.1-.9-.5-2-.7-2.2-.2-.3-.5-.3-.8-.2-.3.2-.3.5-.2.8.2.2.3.6.5 1-1.6.2-2.9 1.5-3.2 3.2-.3 1.8.6 4 4.1 5.1.4.1.7.2 1.1.2.5 0 .9-.1 1.3-.3 1.4-.8 2.1-2.6 2.3-3.2-.4-.2-.7-.3-1.1-.4-.2.5-.8 1.9-1.7 2.4z"/><path d="m75.6 75.2c-.3-.1-.6.1-.7.4v.1c.4.1.7.2 1.1.4 0-.1 0-.2.1-.2 0-.3-.1-.6-.5-.7z"/><path d="m49.3 72.2c-.1.3-.4.4-.7.3-.1 0-.1 0-.2-.1.3.8 1.3 1.8 2.3 2.6 1.6.5 3.5 1.2 5.7 2.2.3.1.7.3 1.2.6h.7c.4 0 .7 0 1.1-.1-.2-.2-.2-.5 0-.7s.6-.3.8-.1c0 0 .3.2.7.5h.2.1c2.9-1.6 2.9-2.9 2.7-4.4-.2-1-.3-1.8 1-3.1.2-.2.2-.6 0-.8s-.6-.2-.8 0c-1.8 1.7-1.6 3-1.4 4.1s.3 1.9-2 3.2c-3.2.9-6.1-.2-7.9-1.3-2.1-1.3-3.2-2.7-3.3-3 0-.7-1-1.6-3.9-3.7 7.9 3.1 13.5-.6 13.5-.7.3-.2.3-.5.1-.8s-.5-.3-.8-.1c-.4.2-8.7 5.8-19.9-4.2-.2-.2-.6-.2-.8 0s-.2.6 0 .8c1.9 2 4.6 4 6.8 5.6.8.6 1.7 1.3 2.4 1.9.7.2 1.3.4 2 .6.4.1.5.4.4.7z"/><path d="m59.4 77.9c.4.3 8.2 6.4 13.3 6.5l4-1.4c.5-.6.6-1.2.7-1.7.1-.7.2-.8.5-.8.4-.1.9.2 1.4.6.4.2.7.5 1.2.6l2.9-1c.1-.1.2-.3.3-.4 0 0-.1.1-.1.1-.3.1-.6.2-.9.2-.2 0-.4 0-.6-.1-.2.1-.3.3-.5.3-.5.1-1-.2-1.6-.6-.7-.4-1.4-.9-2.3-.7-1 .2-1.2 1.1-1.4 1.7-.2.9-.4 1.9-3 2.2-3.8.6-10.4-4-12.5-5.6-.4-.1-.9 0-1.4.1z"/><path d="m83.5 79c-.2 0-.3.1-.4.2h.1c.1 0 .2-.1.3-.2z"/><path d="m83.6 80.3s.1-.1.1-.1c.1-.1.1-.2.2-.3.2-.3.1-.6-.2-.8-.1-.1-.2-.1-.3-.1-.1.1-.2.2-.3.2h-.1c-.3.5-.6.8-.8 1.1.2.1.4.1.6.1.3.1.6 0 .8-.1z"/><path d="m59.4 77.1c-.2.2-.1.5 0 .7.5-.1 1-.1 1.5-.3-.4-.3-.7-.5-.7-.5-.3-.1-.7-.1-.8.1z"/><path d="m61.7 66c2.4 1.1 3.8-1.9 2.8-3.8-.7.6-1.4 1.3-1.4 1.3s-.1-.8-.4-2.1c-1-.2-3.5 2.8-1 4.6z"/><path d="m77.3 63.7c2.3 1 3.4-2.3 2.4-3.6-1.1 1.3-1.1 1.3-1.1 1.3s-.3-1.2-.5-2.5c-2.2.1-3.2 4-.8 4.8z"/><path d="m54.1 77.6c.3 1 .2 2.9-2.8 5.9 4.9-1 6.1-3.1 6.3-4.2-.7-.5-1.3-.9-1.7-1-.6-.2-1.2-.5-1.8-.7z"/><path d="m69.3 93c-2.4-3.8-1.5-6.1-1-7-1.4-.6-2.8-1.3-4.1-2.1.2 2 1.1 8.2 5.1 9.1z"/><path d="m58.5 86.7c3.4-.2 4.9-2.1 5.5-3-1.2-.8-2.4-1.6-3.5-2.3.1 1.2-.1 3.5-2 5.3z"/><path d="m73.6 84.4c-.2 0-.5.1-.8.1l-2.8 1c1.6.5 3.2.7 4.6.4 1.5-.4 2.6-1.5 3.4-3.2l-1.2.3c-.5.6-1.5 1.1-3.2 1.4z"/><path d="m83.7 85.2.4-2.2c-.6.5-1.7 1.1-3.4.7l.5 2.1z"/><path d="m73.5 88.7v-1.6c-.2 0-.3 0-.5 0-1.2 0-2.5-.3-3.8-.7l.4 1.7z"/><path d="m84.8 87.4c.1 0 .2.1.3.2 1.1-2.1.6-5.7.3-7-.1.7-.4 1.5-.9 2.1.2 1 .4 2.8.3 4.7z"/><path d="m80.5 86.9v-3.2c-.4-.1-.9-.3-1.5-.6-.6 1.2-1.3 2.1-2.1 2.8l.8 2z"/><path d="m77 88.4-.2-2.5c-.6.4-1.2.7-1.9.9-.4.2-.8.2-1.2.2l.8 1.7z"/><path d="m81.9 81.8c-.5.1-.9 0-1.3-.1l-1 .4c1.6.9 3.1.9 4 0 .4-.5.7-1 .7-1.6l-.8.3c-.5.5-1 .8-1.6 1z"/><path d="m81.9 81.8c.6-.1 1.1-.5 1.6-1.1l-2.9 1c.4.1.8.2 1.3.1z"/><path d="m72.8 84.4c.3 0 .5 0 .8-.1 1.8-.2 2.7-.8 3.2-1.4z"/><path d="m44.5 86.9c12.8 1.9 18.4 6 20.9 7.7.1.1.2.1.3.1s.2-.1.3-.1c-.2-.3-.5-.5-.7-.8l1 .3c0-.1-.1-.3-.2-.4-2.5-1.8-8.2-5.9-20.9-7.8-.3.2-.7.4-1.1.5 0 .2.1.4.4.5z"/><path d="m44 86.2v.1c.4-.2.7-.3 1.1-.5-.1 0-.3 0-.4-.1-.3 0-.6.2-.7.5z"/><path d="m41.4 85.9c.1-.3-.1-.6-.5-.7-2.7-.5-4.6-2-5.2-4.3-.7-2.4.2-5.3 2.3-7.2 2.6-2.3 6.4-2.8 10.5-1.3 0-.1-.1-.3-.1-.4-.1-.2-.6-.7-1.3-1.2-3.8-.9-7.3-.2-9.8 2.1-2.4 2.2-3.4 5.5-2.6 8.4.8 2.7 2.9 4.5 6.1 5.1.1-.2.3-.3.6-.5z"/><path d="m40.8 86.4c.3 0 .5-.2.5-.4-.2.1-.4.3-.7.4z"/><path d="m48.3 72.1c0 .1 0 .2.1.4.1 0 .1 0 .2.1.3.1.6 0 .7-.3s0-.6-.3-.7c-.7-.3-1.4-.5-2-.6.7.4 1.2.9 1.3 1.1z"/><path d="m83.4 99.2-.4-.1-3 .9s.2-.6.4-1.7l-2.3-.7c.8 1.5 1.6 2.5 1.6 2.5l-2.9.7s-.4-1.7-.7-3.8l-2.3-.7c1.1 3.3 2.7 4.8 2.7 4.8l-4.8-1.2s-.2-2-.2-4.3l-5.2-1.6c0 .1 0 .3-.1.4 0 .1-.1.1-.1.1 6.7 7.8 9.9 7.1 9.9 7.1s5.5-2.4 7.4-1.9 3.2-1.7 3.2-1.7-.3-3.6-2.1-7.1c-.3-.1-.5-.3-.5-.6v-.2c-.3-.5-.7-1.1-1.1-1.6 1.5 6.2.5 10.7.5 10.7z"/><path d="m66 94.5s.1-.1.1-.1c.1-.1.1-.3.1-.4l-1-.3c.4.3.6.6.8.8z"/><path d="m80.5 83.1v.6h.2z"/><path d="m73.5 86.5v.6h.2z"/><path d="m76.7 85.3.1.6s.1-.1.1-.1z"/><path d="m84.4 82.7s.1 0 0 0c0-.6-.1-.9-.1-.9l-.2 1.2c.1-.1.2-.2.3-.3z"/><path d="m83.8 78.6c.1-.1.2-.3.3-.5 0 0 0 0-.1 0-.1.2-.2.3-.2.5z"/><path d="m57.5 77.9c-.9-.1-1.7-.2-2.5-.5l2.7 1.3s0 .2-.1.6c.6.4 1.2.8 1.9 1.3.3.2.7.5 1 .7 0-.5-.1-.9-.1-.9l8.2 5.1s-.1.1-.3.4c.3.1.6.2.9.4l-.1-.6.9-.3c-3.4-1.1-7.1-3.7-9.8-5.7-1.1-.7-2-1.3-2.7-1.8z"/><path d="m64 83.7c.1.1.2.1.3.2 0-.4 0-.7 0-.7s-.2.2-.3.5z"/><path d="m84.3 79.8v.5l1-.4s.1.2.1.6c.1-.7 0-1.3-.3-1.9-.2.5-.5.9-.8 1.2z"/><path d="m78.6 81.7c-.2 0-.3.2-.4.3-.1.2-.2.4-.3.6l1.6-.6c-.2-.1-.3-.2-.5-.3 0-.1-.2-.1-.4 0z"/><path d="m51 75.4c-.1-.1-.2-.2-.4-.3-7.9-2.5-10.2-.5-11.2 1.4-.1.1-.1.2-.1.2s-.1.1-.1.1c-.6 1.6-.7 3-.1 4.2.6 1.3 1.9 2.3 3.8 2.9.3.1.6-.1.7-.4s-.1-.6-.4-.7c-1.6-.5-2.6-1.3-3.1-2.3-.4-.9-.4-2 .1-3.3.1-.1.1-.2.2-.3.5-.9 1.7-3.2 8.7-1.2l.5.1v.1c1.3.4 2.7.9 4.4 1.6-.1-.2-.2-.4-.2-.6-1.2-.4-2.2-1.1-2.8-1.5z"/><path d="m49.2 75.8c.2 0 .3.1.5.1 0-.1 0-.1 0-.1z"/><path d="m84.1 78.1c-.1.2-.2.4-.3.5 0 .1 0 .2.1.3.2.3.3.6.3.9.3-.3.6-.7.8-1.2-.1-.1-.2-.3-.3-.4 0-.2-.3-.2-.6-.1z"/><path d="m50.7 75.1c.1.1.2.2.4.3.6.4 1.6 1.1 2.8 1.6-.1-.1-.1-.2-.1-.2l1.3.6c.8.2 1.6.4 2.5.5-.5-.3-.9-.5-1.2-.6-2.2-1-4.1-1.7-5.7-2.2z"/><path d="m57.7 78.7-2.7-1.3c-.4-.1-.8-.3-1.2-.4.1.1.2.3.2.6.6.2 1.2.5 1.8.8.4.1 1 .5 1.7 1 .2-.5.2-.7.2-.7z"/><path d="m53.8 77c.4.2.8.3 1.2.4l-1.3-.6s.1.1.1.2z"/><path d="m60.4 80.5s.1.3.1.9c1.1.8 2.2 1.6 3.5 2.3.2-.3.2-.5.2-.5s0 .3 0 .7c1.3.8 2.7 1.6 4.1 2.1.2-.3.3-.4.3-.4z"/><path d="m84.3 80.4c-.1.6-.3 1.2-.7 1.6-.9 1-2.4 1-4 0l-1.6.6c-.8 1.7-2 2.8-3.4 3.2s-3 .2-4.6-.4l-.9.3.1.6c1.3.5 2.6.7 3.8.7h.5v-.6l.2.5c.4 0 .8-.1 1.1-.2.7-.2 1.3-.5 1.9-.9l-.1-.6.2.5c.8-.7 1.6-1.6 2.1-2.8.5.3 1 .5 1.5.6v-.6l.2.6c1.7.4 2.8-.2 3.4-.7l.2-1.2s.1.3.2.9c.5-.6.9-1.3.9-2.1-.1-.4-.1-.6-.1-.6z"/><path d="m80 91.9c.8 2.7.7 4.9.4 6.4l2.6.8c0-.3-1-6-3-7.2z"/><path d="m83 99.1-2.6-.8c-.2 1.1-.4 1.7-.4 1.7z"/><path d="m76.2 92.3c-.3 1.4-.2 3.1-.1 4.7l2 .6c-.7-1.4-1.5-3.3-1.9-5.3z"/><path d="m79.7 100.1s-.7-1-1.6-2.5l-2-.6c.2 2.1.7 3.8.7 3.8z"/><path d="m72.7 90.3c-.8 1.3-1.1 3.4-1.2 5.3l2.3.7c-.5-1.6-.9-3.6-1.1-6z"/><path d="m71.7 99.9 4.8 1.2s-1.5-1.5-2.7-4.8l-2.3-.7c0 2.3.2 4.3.2 4.3z"/><path d="m88.5 95.9c0-.2-.7-5.3-3.3-8.3-.1.2-.2.3-.3.5 0-.2 0-.4 0-.7-.1 0-.2 0-.3 0-.2.1-.4.3-.4.5l-.2 2.1c.2.3.3.6.5.8.3 0 .6-.2.6-.5l.1-.8c1.7 2.8 2.2 6.5 2.2 6.6.3 1.2.8 4.8-.3 6.1-.3.4-.7.6-1.2.6-3.3-.1-4 1-4.1 2.8 0 .2-.4.6-1.3 1-.7.3-3.3.9-6-1.8-.1-.1-.3-.3-.4-.4-1.1-1-2.7-2.6-7.8-2.4s-6.8-2.2-8.3-4.3l-.2-.3c-1.8-2.5-5.3-3-12.5-3.3-5.3 0-9.5-1.6-12.5-4.6-4.1-4.2-4.6-10-4.7-11.5-.3.1-.6.2-1.1.2 0 0 0 0-.1 0 .1 1.8.7 7.8 5 12.2 3.2 3.2 7.6 4.9 13.3 4.9 7.6.3 10.2 1 11.6 2.9l.2.3c1.6 2.2 3.6 5 9.3 4.8 4.7-.2 6 1.1 7 2.1.2.2.3.3.5.4 1.9 1.9 3.8 2.4 5.2 2.4.9 0 1.6-.2 2-.3 1.2-.4 2-1.2 2-1.9.1-1.1.1-1.9 2.9-1.8.9 0 1.6-.3 2.1-1 1.6-2.3.6-6.8.5-7.3z"/><path d="m84.8 87.4v.7c.1-.2.2-.3.3-.5-.1-.1-.2-.1-.3-.2z"/><path d="m84.4 90.9c-.1-.3-.3-.6-.5-.8v.2c0 .2.2.5.5.6z"/><path d="m27.2 54.9h.5c-.2 0-.5-.1-.7-.1 0 0 .1.1.2.1z"/><path d="m26.9 77.5c0-.3.2-.6.6-.6.3 0 .6.3.6.6v.4c1.3-.4 1.6-1.7 1.9-2.9.3-1.3.6-3 2.2-4.6.7-.7 1.1-.8 1.3-.7.1 0 .7.4.8 2.8 0 .3.3.6.6.5.3 0 .6-.3.5-.6-.1-2.2-.6-3.4-1.6-3.8-.7-.3-1.6.1-2.5 1-1.8 1.8-2.2 3.7-2.5 5.1-.4 1.7-.5 2.2-1.8 2.2-2.4-.3-2.4-1.8-2.1-4.8.2-3.1.5-6.9-3-10.1 0-4-1.1-4.8-3.2-6l-.3-.2c-2.6-1.2-4.2-3-4.8-5.2-.2-.6-.2-1.2-.2-1.8 2.1-.4 5.1 2.2 6.5 3.6 0-.2.1-.4.1-.4.1-.3.4-.5.7-.3.3.1.5.4.3.7 0 0-.1.2-.1.4.8-.2 3.1-.6 4.8 1 .6 0 1.1 0 1.6.1-2.1-3-5.6-2.4-6.7-2.2-.9-.9-4.3-4.1-7.2-4 .2-.9.5-1.6.9-2.2.7.3 1.7.6 2.9.9 5.7 1.7 15.1 4.4 17 10.7h-1c-.4-.9-1.8-3.1-5.7-3.2 1.3.2 2.2.6 2.6 1.4.1.1.1.3.2.4 1.6.8 2 2 2 2.1.1.2.3.4.5.4l2.2.1c.2 0 .3-.1.5-.2.1-.1.2-.3.1-.5-1-4.8-5.8-7.8-10.6-9.8 0 0 0 .1.1.1.1.3 0 .6-.2.8-.1 0-.2.1-.3.1-.2 0-.4-.1-.5-.3-.2-.4-.3-.8-.3-1.2-2.2-.8-4.3-1.4-6.1-2-1.3-.4-2.5-.7-3.2-1-.2-.1-.5 0-.7.2-1 1.3-1.9 3.8-1.3 6.5.4 1.8 1.7 4.2 5.4 6l.3.2c1.8 1 2.6 1.5 2.6 5.2 0 .2.1.3.2.4 3.3 2.9 3 6.4 2.8 9.4-.2 2.8-.4 5.5 3.1 6.1 0-.6 0-.8 0-.8z"/><path d="m24.7 48.7c.1 0 .2 0 .3-.1.3-.1.4-.5.2-.8 0 0 0-.1-.1-.1-.4-.2-.9-.3-1.3-.5 0 .4.1.8.3 1.2.2.2.4.3.6.3z"/><path d="m28.1 77.9c0-.2 0-.4 0-.4 0-.3-.2-.6-.6-.6-.3 0-.6.2-.6.6v.6h.1c.4 0 .8-.1 1.1-.2z"/><path d="m29.3 55.7c.6 1-.3 2.9-1.1 4.5-.4.8-.8 1.6-.9 2.2-.2 1.2.6 1.9 1.4 2.6.6.5 1.2 1 1.2 1.7s-.5 1.6-1.6 2.6c-.4.2-.5.2-.5.2-.2-.2-.3-1.4-.3-2.2-.1-2.6-.2-6.6-3.6-8.8-.3-.2-.6-.1-.8.2s-.1.6.2.8c2.9 1.9 3 5.4 3.1 7.9.1 1.6.1 2.8.9 3.2.2.1.4.1.6.1.5 0 .9-.3 1.1-.4 0 0 .1-.1.1-.1 1.4-1.4 2-2.5 2-3.5 0-1.2-.8-1.9-1.5-2.5s-1.1-1-1-1.5c.1-.4.5-1.1.8-1.9.8-1.7 1.9-3.7 1.3-5.2-.7-.3-1.6-.6-2.8-.6.6 0 1.2.3 1.4.7z"/><path d="m20.5 54.6c.9.9 2.6 1 5.3.2h1.1c-.1 0-.2-.1-.2-.2-.2-.4-.5-.7-.8-1-.1 0-.1 0-.2 0s-.1 0-.2 0c-2.9.9-3.9.5-4.2.2s-.3-.8-.2-1.1c-.2 0-.3.1-.3.1-.2.1-.4 0-.6-.1-.1-.1-.1-.2-.2-.2-.2.4-.2 1.4.5 2.1z"/><path d="m27.7 53.7c-.1 0-.1 0-.2 0z"/><path d="m26.9 54.8c.3 0 .5 0 .7.1 1.2.1 2.1.3 2.8.6-.1-.1-.1-.3-.2-.4-.5-.7-1.3-1.2-2.6-1.4-.1 0-.1 0-.1 0-.5-.1-1-.1-1.6-.1.3.3.6.6.8 1 .1.1.1.2.2.2z"/><path d="m20.8 52.7s.1 0 .3-.1c0-.2.1-.4.1-.4.1-.3 0-.6-.3-.7s-.6 0-.7.3c0 0-.1.2-.1.4.1.1.2.2.2.2 0 .4.3.4.5.3z"/></g></svg>