<svg xmlns="http://www.w3.org/2000/svg" xmlns:xlink="http://www.w3.org/1999/xlink" version="1.1" x="0px" y="0px" viewBox="0 0 59.66 75" enable-background="new 0 0 59.66 60" xml:space="preserve"><g><path d="M24.83,28c-1.65,0-3,1.35-3,3s1.35,3,3,3s3-1.35,3-3S26.48,28,24.83,28z M24.83,32c-0.55,0-1-0.45-1-1s0.45-1,1-1   s1,0.45,1,1S25.38,32,24.83,32z"/><path d="M36.83,28c-1.65,0-3,1.35-3,3s1.35,3,3,3s3-1.35,3-3S38.48,28,36.83,28z M36.83,32c-0.55,0-1-0.45-1-1s0.45-1,1-1   s1,0.45,1,1S37.38,32,36.83,32z"/><path d="M50.28,14.32l1.36,0.54c0.98,0.39,2.05-0.25,2.18-1.3c0.24-1.94,0-4.09-0.22-5.45c-0.09-0.54-0.78-0.72-1.12-0.29   c-1.43,1.79-1.73,2.3-2.93,4.13C48.99,12.81,49.34,13.95,50.28,14.32z"/><path d="M8.93,14.27l1.36-0.54c0.93-0.37,1.29-1.52,0.74-2.36c-1.2-1.83-1.5-2.34-2.93-4.13C7.76,6.81,7.06,6.99,6.98,7.53   c-0.22,1.35-0.46,3.51-0.22,5.45C6.89,14.02,7.96,14.66,8.93,14.27z"/><path d="M57.62,39.02c-0.03,0.01-3.24,0.7-6.33,0.7c-0.95,0-1.8-0.07-2.51-0.2c-0.43-0.08-1.02-0.32-1.48-0.59l3.37-0.6   c1.68-0.3,3.25-0.82,4.67-1.54c0.77-0.39,1.34-0.74,1.73-1.06c4.24-3.46,2.15-9.43,1.41-11.18c-0.16-0.37-0.58-0.66-0.99-0.66   c-0.29,0-0.58,0.12-0.78,0.34c-0.19,0.2-0.31,0.52-0.29,0.8c0.04,0.68-0.06,1.97-0.96,3.38c-0.24-1.51-0.62-2.98-1.13-4.39   c4.39-5.96,3.59-17.8,3.14-22.01c-0.09-0.83-0.78-1.45-1.61-1.45c-0.23,0-0.46,0.05-0.67,0.15c-1.24,0.56-2.61,1.54-4.08,2.92   c-2.32,2.17-4.38,4.83-6.12,7.91l-0.1,0.18c-2.1-1.47-4.41-2.61-6.88-3.41c0-0.1,0.01-0.2,0.01-0.3c0-3.86-3.14-7-7-7   c-3.74,0-6.79,2.95-6.98,6.64c-2.98,0.66-5.77,1.81-8.32,3.43l-0.05-0.09C13.95,7.92,11.9,5.27,9.6,3.11   c-1.49-1.4-2.89-2.4-4.14-2.97C5.25,0.05,5.02,0,4.79,0C3.97,0,3.27,0.62,3.18,1.45C2.75,5.5,1.99,16.62,5.81,22.76   c-0.76,1.81-1.32,3.7-1.64,5.64c-0.89-1.39-0.98-2.67-0.94-3.36c0.01-0.27-0.11-0.6-0.3-0.8c-0.2-0.21-0.49-0.33-0.78-0.33   c-0.4,0-0.83,0.29-0.99,0.66c-0.74,1.75-2.82,7.71,1.4,11.16c0.31,0.25,0.72,0.52,1.25,0.81c1.6,0.88,3.41,1.49,5.38,1.8l3.19,0.51   c-0.66,0.36-1.47,0.69-2.03,0.76c-0.59,0.08-1.25,0.11-1.98,0.11c-3.08,0-6.3-0.69-6.33-0.7c-0.42-0.09-0.84,0.09-1.07,0.46   c-0.22,0.36-0.19,0.83,0.08,1.16c0.16,0.19,3.65,4.33,8.9,4.94C16.89,55.01,24.05,60,30.66,60c8.84,0,14.94-8.63,18.22-13.27   c0.3-0.42,0.57-0.81,0.82-1.15c5.25-0.61,8.74-4.75,8.9-4.94c0.27-0.33,0.31-0.79,0.08-1.16C58.46,39.12,58.03,38.94,57.62,39.02z    M53.63,30.39c-0.18,0.14-0.38,0.28-0.58,0.42c-0.04,0.03-0.08,0.06-0.13,0.09c-0.25,0.16-0.51,0.32-0.78,0.48   c-0.22,0.12-0.45,0.22-0.67,0.33c-0.18,0.09-0.36,0.19-0.55,0.26c-0.24,0.1-0.49,0.17-0.73,0.25c-0.19,0.07-0.38,0.14-0.58,0.2   c-0.19,0.05-0.4,0.09-0.6,0.13c-0.26,0.06-0.52,0.13-0.8,0.17c-0.08,0.01-0.16,0.02-0.24,0.03c-0.4,0.06-0.8,0.11-1.22,0.14   c-0.27,0.02-0.59,0.04-0.92,0.06c-0.06,0-0.12,0.01-0.19,0.01c-0.14,0.01-0.28,0.02-0.44,0.03c-0.22,0.02-0.44,0.04-0.68,0.06   c-0.09,0.01-0.19,0.02-0.29,0.03c-0.18,0.02-0.36,0.03-0.54,0.05c-0.07,0.01-0.13,0.01-0.19,0.02c0-0.01,0-0.02,0.01-0.03   c0.09-0.3,0.16-0.61,0.22-0.92c0.01-0.07,0.02-0.15,0.03-0.22c0.04-0.32,0.08-0.64,0.08-0.97c0-0.27-0.02-0.53-0.05-0.79   c-0.01-0.08-0.03-0.17-0.04-0.25c-0.03-0.18-0.06-0.35-0.1-0.52c-0.02-0.09-0.05-0.18-0.07-0.28c-0.04-0.16-0.09-0.32-0.15-0.47   c-0.03-0.09-0.06-0.18-0.1-0.26c-0.06-0.16-0.14-0.32-0.21-0.48c-0.03-0.05-0.04-0.11-0.07-0.16c0.64,0.09,1.3,0.14,2,0.14   c1.66,0,3.08-0.26,3.88-0.45c0.43-0.1,0.7-0.18,0.71-0.19c0.04-0.01,0.08-0.03,0.12-0.04c1.17-0.31,2.18-0.85,3.05-1.57   c0.46,1.49,0.76,3.05,0.91,4.65C53.68,30.34,53.66,30.37,53.63,30.39z M40.31,34.58c-0.2,0.2-0.42,0.38-0.66,0.54   c-0.03,0.02-0.06,0.04-0.09,0.06c-0.23,0.15-0.47,0.28-0.73,0.39c-0.03,0.01-0.06,0.03-0.09,0.04c-0.26,0.11-0.54,0.19-0.82,0.25   c-0.07,0.02-0.14,0.03-0.21,0.04C37.43,35.96,37.13,36,36.83,36c-2.76,0-5-2.24-5-5c0-0.31,0.04-0.61,0.09-0.9   c0.03-0.17,0.08-0.33,0.13-0.49c0.04-0.14,0.08-0.29,0.13-0.43c0.05-0.13,0.12-0.25,0.18-0.38c0.08-0.16,0.16-0.32,0.25-0.47   c0.06-0.1,0.13-0.19,0.2-0.29c0.12-0.16,0.24-0.31,0.38-0.46c0.07-0.08,0.15-0.15,0.22-0.22c0.15-0.14,0.31-0.27,0.48-0.39   c0.08-0.06,0.16-0.12,0.25-0.18c0.18-0.11,0.36-0.21,0.55-0.3c0.09-0.04,0.18-0.09,0.28-0.13c0.2-0.08,0.42-0.14,0.63-0.2   c0.09-0.02,0.18-0.06,0.27-0.07c0.31-0.06,0.63-0.1,0.96-0.1c2.76,0,5,2.24,5,5c0,0.31-0.04,0.61-0.09,0.9   c-0.02,0.08-0.04,0.16-0.06,0.25c-0.05,0.22-0.12,0.44-0.2,0.65c-0.03,0.07-0.05,0.14-0.08,0.21c-0.12,0.27-0.26,0.54-0.42,0.78   c0,0.01-0.01,0.01-0.01,0.01c-0.16,0.24-0.34,0.45-0.54,0.66C40.39,34.5,40.35,34.54,40.31,34.58z M23.92,35.91   c-0.05-0.01-0.11-0.02-0.16-0.03c-0.28-0.06-0.54-0.14-0.8-0.25c-0.06-0.02-0.12-0.05-0.18-0.08c-0.25-0.11-0.49-0.24-0.72-0.39   c-0.05-0.03-0.09-0.07-0.13-0.1c-0.19-0.13-0.36-0.28-0.53-0.44c-0.05-0.05-0.11-0.1-0.16-0.15c-0.19-0.19-0.35-0.4-0.51-0.61   c-0.07-0.1-0.12-0.2-0.18-0.3c-0.09-0.16-0.18-0.31-0.26-0.48c-0.05-0.1-0.09-0.21-0.13-0.31c-0.07-0.19-0.13-0.38-0.18-0.58   c-0.02-0.09-0.05-0.18-0.07-0.28c-0.05-0.3-0.09-0.6-0.09-0.91c0-2.76,2.24-5,5-5c0.33,0,0.65,0.04,0.96,0.1   c0.09,0.02,0.18,0.05,0.27,0.07c0.22,0.05,0.43,0.11,0.63,0.2c0.09,0.04,0.18,0.09,0.28,0.13c0.19,0.09,0.38,0.19,0.55,0.3   c0.09,0.05,0.17,0.12,0.25,0.18c0.17,0.12,0.33,0.25,0.47,0.39c0.08,0.07,0.15,0.15,0.23,0.23c0.13,0.14,0.26,0.29,0.37,0.45   c0.07,0.1,0.14,0.19,0.21,0.3c0.09,0.15,0.17,0.3,0.25,0.46c0.06,0.13,0.13,0.26,0.18,0.39c0.05,0.13,0.09,0.27,0.13,0.41   c0.05,0.17,0.1,0.34,0.14,0.51c0.05,0.29,0.09,0.59,0.09,0.9c0,2.76-2.24,5-5,5C24.52,36,24.22,35.96,23.92,35.91z M19.74,16.4   c0.15,0.35,0.51,0.6,0.92,0.6c0.55,0,1-0.45,1-1c0-0.15-0.04-0.29-0.1-0.42c0.13-0.01,0.26-0.02,0.38-0.02c0.1,0,0.2,0,0.3,0.01   c0.5,0.03,0.98,0.16,1.44,0.35c0,0.03-0.02,0.06-0.02,0.09c0,0.55,0.45,1,1,1c0.19,0,0.35-0.07,0.5-0.16   c0.23,0.21,0.44,0.44,0.63,0.69c-0.08,0.14-0.13,0.3-0.13,0.47c0,0.51,0.38,0.91,0.87,0.97c0.11,0.36,0.2,0.72,0.23,1.11   c0.02,0.28,0.01,0.6-0.04,0.93c-0.02,0-0.04-0.01-0.06-0.01c-0.55,0-1,0.45-1,1c0,0.23,0.09,0.44,0.22,0.61   c-0.63,0.56-1.44,0.69-2.03,0.69c-0.1,0-0.2,0-0.3-0.01c-2.33-0.15-4.27-2.06-4.49-4.37c0.35-0.15,0.6-0.5,0.6-0.91   c0-0.33-0.17-0.61-0.42-0.79C19.35,16.92,19.51,16.65,19.74,16.4z M38.7,16.22c0.1,0.44,0.48,0.78,0.96,0.78   c0.47,0,0.85-0.33,0.95-0.77c0.41,0.11,0.83,0.3,1.19,0.65c0.06,0.06,0.1,0.12,0.15,0.18c-0.09-0.03-0.19-0.06-0.3-0.06   c-0.55,0-1,0.45-1,1s0.45,1,1,1c0.39,0,0.71-0.23,0.88-0.55c0.04,0.31,0.05,0.61,0.03,0.87c-0.04,0.63-0.22,1.23-0.49,1.78   c-0.13-0.06-0.27-0.1-0.42-0.1c-0.55,0-1,0.45-1,1c0,0.24,0.1,0.45,0.23,0.62c-0.23,0.2-0.47,0.38-0.73,0.53   c-0.15-0.09-0.31-0.15-0.5-0.15c-0.46,0-0.83,0.31-0.95,0.73c-0.22,0.05-0.44,0.09-0.67,0.11c-0.1,0.01-0.21,0.01-0.31,0.01   c-0.33,0-0.74-0.05-1.15-0.19c-0.14-0.38-0.5-0.66-0.93-0.66c-0.03,0-0.06,0.02-0.1,0.02c-0.67-0.71-0.77-1.69-0.72-2.39   c0-0.02,0.01-0.05,0.01-0.07c0.18,0.26,0.47,0.44,0.81,0.44c0.55,0,1-0.45,1-1s-0.45-1-1-1c-0.16,0-0.31,0.05-0.44,0.11   C35.83,17.66,37.14,16.56,38.7,16.22z M46.73,12.51c1.63-2.9,3.57-5.41,5.74-7.43c1.12-1.04,2.15-1.82,3.07-2.32   c0.36,3.72,1.1,15.5-3.17,20.5c-0.17,0.2-0.34,0.37-0.51,0.54c-0.07,0.06-0.13,0.13-0.2,0.2c-0.2,0.18-0.41,0.34-0.62,0.48   c-0.11,0.08-0.23,0.14-0.35,0.21c-0.14,0.08-0.29,0.16-0.44,0.24c-0.11,0.05-0.21,0.1-0.32,0.15c-0.26,0.1-0.52,0.2-0.8,0.27   c-0.01,0-0.02,0.01-0.03,0.01c-0.02,0.01-1.82,0.56-4.04,0.56c-0.39,0-0.77-0.02-1.13-0.05c-1.1-0.1-2.09-0.35-2.95-0.74   c0.18-0.08,0.36-0.16,0.53-0.25l0.01-0.01c0,0,0,0,0,0c0,0,0.1-0.05,0.1-0.05c1.03-0.54,1.99-1.25,2.84-2.1   c0.19-0.19,0.37-0.38,0.54-0.58c0.07-0.08,0.13-0.15,0.19-0.23c0.1-0.12,0.21-0.24,0.3-0.37c0.08-0.11,0.16-0.22,0.24-0.33   c0.07-0.09,0.14-0.19,0.2-0.28c0.09-0.13,0.17-0.27,0.25-0.4c0.05-0.07,0.09-0.15,0.14-0.22c0.09-0.15,0.17-0.3,0.25-0.45   c0.03-0.06,0.06-0.12,0.09-0.18c0.08-0.16,0.15-0.33,0.22-0.49c0.02-0.05,0.04-0.1,0.06-0.14c0.07-0.17,0.13-0.34,0.19-0.52   c0.01-0.04,0.03-0.08,0.04-0.12c0.06-0.18,0.11-0.36,0.16-0.54c0.01-0.03,0.01-0.05,0.02-0.08c0.03-0.12,0.07-0.24,0.09-0.36   c0.36-1.81,0.05-3.42-0.89-4.58L46.73,12.51z M31.02,3c2.76,0,5,2.24,5,5c0,0.3-0.04,0.59-0.09,0.88   c-0.03,0.18-0.09,0.35-0.14,0.53c-0.04,0.13-0.07,0.27-0.12,0.4c-0.05,0.14-0.12,0.27-0.18,0.4c-0.08,0.16-0.16,0.31-0.25,0.46   c-0.06,0.1-0.13,0.19-0.2,0.29c-0.12,0.16-0.25,0.32-0.38,0.46c-0.07,0.07-0.14,0.14-0.21,0.21c-0.16,0.15-0.32,0.28-0.49,0.41   c-0.08,0.06-0.15,0.11-0.23,0.16c-0.18,0.12-0.37,0.22-0.57,0.31c-0.09,0.04-0.17,0.09-0.26,0.12c-0.21,0.08-0.42,0.14-0.64,0.2   c-0.09,0.02-0.17,0.05-0.26,0.07c-0.31,0.06-0.63,0.1-0.95,0.1c0,0-0.01,0-0.01,0c-0.33,0-0.66-0.04-0.97-0.1   c-0.16-0.03-0.31-0.09-0.47-0.14c-0.15-0.04-0.3-0.08-0.44-0.14c-0.19-0.08-0.36-0.18-0.53-0.27c-0.1-0.05-0.2-0.1-0.29-0.16   c-0.18-0.11-0.33-0.25-0.49-0.38c-0.08-0.07-0.16-0.12-0.23-0.19c-0.15-0.14-0.28-0.3-0.41-0.46c-0.07-0.08-0.14-0.16-0.2-0.25   c-0.12-0.16-0.21-0.33-0.31-0.5c-0.06-0.1-0.12-0.2-0.17-0.31c-0.08-0.17-0.14-0.35-0.2-0.54c-0.04-0.12-0.08-0.24-0.11-0.37   c-0.05-0.18-0.07-0.37-0.1-0.56C26.06,8.43,26.02,8.22,26.02,8C26.02,5.25,28.26,3,31.02,3z M24.22,9.65   c0,0.01,0.01,0.02,0.01,0.03c0.56,2.27,2.23,4.11,4.41,4.9c0.03,0.01,0.06,0.02,0.09,0.03c0.33,0.12,0.68,0.21,1.03,0.27   c0.05,0.01,0.1,0.02,0.15,0.02c0.36,0.06,0.72,0.1,1.1,0.1c0,0,0,0,0,0c0,0,0,0,0,0s0,0,0,0c0.34,0,0.67-0.03,0.99-0.08   c0.08-0.01,0.16-0.02,0.23-0.04c0.31-0.05,0.61-0.12,0.9-0.22c0.08-0.02,0.15-0.05,0.22-0.08c0.22-0.08,0.44-0.17,0.65-0.27   c0.1-0.05,0.2-0.09,0.29-0.14c0.24-0.13,0.47-0.27,0.69-0.42c0.11-0.07,0.21-0.15,0.31-0.23c0.15-0.11,0.29-0.24,0.43-0.36   c0.11-0.1,0.22-0.2,0.32-0.3c0.17-0.17,0.32-0.35,0.47-0.54c0.07-0.09,0.14-0.18,0.2-0.27c0.17-0.24,0.33-0.49,0.47-0.75   c0.02-0.03,0.03-0.07,0.05-0.1c0.15-0.28,0.27-0.58,0.38-0.88c0.01-0.02,0.01-0.03,0.02-0.05c2.78,0.93,5.32,2.34,7.57,4.18   c0.09,0.17,0.15,0.36,0.21,0.55c0.02,0.06,0.05,0.11,0.06,0.17c0.03,0.12,0.03,0.25,0.05,0.37c0.02,0.16,0.04,0.31,0.04,0.48   c0,0.09-0.01,0.18-0.02,0.27c-0.01,0.21-0.03,0.43-0.07,0.66c-0.02,0.09-0.04,0.17-0.06,0.26c-0.06,0.25-0.13,0.5-0.22,0.76   c-0.05,0.13-0.09,0.25-0.15,0.38c-0.09,0.21-0.19,0.42-0.3,0.62c-0.06,0.12-0.12,0.24-0.19,0.35c0.07-1.54-0.4-2.91-1.35-3.86   c-0.98-0.98-2.38-1.46-3.99-1.35c-3.36,0.22-6.16,3.02-6.38,6.38c-0.1,1.6,0.38,3.01,1.35,3.99c0.01,0.01,0.02,0.01,0.02,0.02   c-0.05,0.02-0.11,0.04-0.16,0.07c-0.21,0.09-0.41,0.19-0.61,0.3c-0.12,0.06-0.23,0.14-0.34,0.21c-0.11,0.07-0.21,0.14-0.31,0.21   c-0.12,0.08-0.23,0.17-0.34,0.26c-0.09,0.07-0.18,0.15-0.27,0.23c-0.15,0.13-0.29,0.27-0.43,0.42c-0.12,0.13-0.24,0.25-0.35,0.39   c-0.08,0.09-0.14,0.19-0.21,0.29c-0.09,0.13-0.18,0.26-0.27,0.39c-0.03,0.05-0.07,0.09-0.1,0.14c-0.03-0.05-0.07-0.09-0.1-0.14   c-0.09-0.13-0.18-0.26-0.27-0.39c-0.07-0.1-0.14-0.19-0.21-0.29c-0.11-0.13-0.22-0.25-0.34-0.37c-0.14-0.15-0.29-0.29-0.44-0.43   c-0.09-0.08-0.17-0.15-0.26-0.23c-0.11-0.09-0.23-0.17-0.34-0.26c-0.1-0.07-0.2-0.14-0.31-0.2c-0.11-0.07-0.23-0.14-0.34-0.21   c-0.19-0.1-0.38-0.2-0.58-0.29c-0.1-0.04-0.21-0.08-0.31-0.12c-0.13-0.05-0.25-0.1-0.38-0.14c0.16-0.12,0.33-0.24,0.48-0.39   c0.97-0.98,1.45-2.39,1.35-3.98c-0.22-3.36-3.02-6.16-6.38-6.38c-1.61-0.11-3,0.37-3.99,1.35c-0.94,0.95-1.41,2.31-1.34,3.84   c-0.01-0.02-0.02-0.04-0.03-0.05c-0.07-0.13-0.15-0.25-0.22-0.38c-0.08-0.16-0.14-0.31-0.21-0.47c-0.05-0.12-0.12-0.25-0.16-0.37   c-0.06-0.16-0.1-0.32-0.15-0.48c-0.03-0.12-0.08-0.24-0.11-0.35c-0.04-0.17-0.06-0.33-0.08-0.49c-0.02-0.11-0.04-0.21-0.05-0.32   c-0.02-0.18-0.01-0.36,0-0.53c0-0.08-0.01-0.16,0-0.23c0.02-0.25,0.07-0.48,0.14-0.7c0.07-0.23,0.12-0.47,0.14-0.71   c0.01-0.13,0.01-0.26,0.01-0.39c0-0.08,0.01-0.16,0.01-0.24C18.74,11.45,21.38,10.31,24.22,9.65z M5.12,2.21   c0.93,0.51,1.98,1.3,3.11,2.36c2.16,2.02,4.07,4.51,5.7,7.4l0.16,0.29c0.11,0.2,0.18,0.41,0.22,0.62c0,0.01,0,0.02,0,0.03   c0.06,0.32,0.04,0.62-0.04,0.89c-0.8,2.54,0.33,5.83,2.88,8.38c1.06,1.06,2.27,1.89,3.54,2.43c-0.3,0.16-0.63,0.31-0.97,0.43   c-0.05,0.02-0.11,0.03-0.16,0.05c-0.29,0.1-0.6,0.19-0.92,0.25c-0.2,0.04-0.41,0.07-0.62,0.1c-0.16,0.02-0.31,0.05-0.48,0.07   c-0.37,0.04-0.76,0.06-1.17,0.06c-0.01,0-0.01,0-0.02,0c-0.23,0-0.46-0.01-0.68-0.02c-0.12-0.01-0.23-0.01-0.35-0.02   c-0.23-0.02-0.45-0.04-0.66-0.06c-0.05-0.01-0.1-0.01-0.16-0.02c-1.34-0.17-2.39-0.46-2.81-0.58c-0.05-0.02-0.1-0.03-0.12-0.04   c-0.02-0.01-0.04-0.01-0.06-0.02c0,0-0.02-0.01-0.02-0.01c-0.22-0.06-0.44-0.13-0.65-0.2l-0.2-0.09c-0.12-0.05-0.25-0.11-0.37-0.17   c-0.08-0.04-0.17-0.09-0.25-0.14c-0.09-0.05-0.19-0.11-0.28-0.17c-0.1-0.06-0.19-0.12-0.28-0.19l-0.19-0.15   c-0.55-0.43-1.06-0.98-1.51-1.64c-0.03-0.04-0.06-0.06-0.09-0.1C4.08,16.61,4.77,5.75,5.12,2.21z M10.3,26.51   c0.23,0.08,0.47,0.16,0.65,0.2c0.01,0,0.06,0.02,0.14,0.05c0.01,0,0.03,0.01,0.05,0.01c0.08,0.02,0.16,0.05,0.28,0.08   c0.04,0.01,0.08,0.02,0.12,0.03c0.11,0.03,0.23,0.06,0.37,0.1c0.07,0.02,0.15,0.03,0.22,0.05c0.13,0.03,0.27,0.06,0.42,0.1   c0.1,0.02,0.21,0.04,0.31,0.06c0.15,0.03,0.3,0.06,0.46,0.09c0.12,0.02,0.25,0.04,0.37,0.06c0.17,0.03,0.33,0.05,0.51,0.07   c0.14,0.02,0.28,0.03,0.42,0.04c0.18,0.02,0.36,0.04,0.55,0.05c0.15,0.01,0.3,0.02,0.45,0.02c0.14,0.01,0.28,0.02,0.43,0.02l0.32,0   c0,0,0,0,0,0c0.4,0,0.79-0.02,1.18-0.05c0.1-0.01,0.19-0.02,0.29-0.03c0.31-0.03,0.61-0.07,0.9-0.13c0.05-0.01,0.1-0.01,0.15-0.02   c-0.02,0.04-0.04,0.09-0.07,0.13c-0.11,0.19-0.21,0.38-0.31,0.58c-0.03,0.06-0.06,0.12-0.09,0.18c-0.11,0.26-0.21,0.52-0.29,0.79   c-0.02,0.06-0.03,0.13-0.05,0.19c-0.06,0.22-0.11,0.44-0.14,0.67c-0.01,0.08-0.03,0.16-0.04,0.24c-0.04,0.29-0.06,0.59-0.06,0.89   c0,0.37,0.04,0.74,0.09,1.1c0.01,0.06,0.02,0.12,0.03,0.18c0.06,0.35,0.16,0.68,0.27,1.01c0.01,0.03,0.01,0.06,0.02,0.08   c-0.05-0.01-0.1-0.01-0.15-0.02c-0.43-0.05-0.85-0.1-1.26-0.14c-0.14-0.01-0.27-0.03-0.41-0.04c-0.31-0.03-0.61-0.06-0.9-0.09   c-0.12-0.01-0.24-0.02-0.36-0.03c-0.39-0.03-0.76-0.06-1.09-0.09c-0.06,0-0.1-0.01-0.16-0.01c-0.35-0.03-0.66-0.05-0.93-0.06   c-0.02,0-0.04,0-0.06,0C11.44,32.8,10.07,32.5,8.82,32c-0.06-0.03-0.12-0.05-0.19-0.08c-0.33-0.14-0.66-0.3-0.97-0.47   c-0.08-0.04-0.16-0.09-0.24-0.13c-0.19-0.11-0.37-0.22-0.54-0.33c-0.08-0.05-0.16-0.1-0.24-0.15c-0.25-0.17-0.48-0.34-0.7-0.51   c0.19-1.97,0.62-3.9,1.29-5.74C8.09,25.44,9.11,26.1,10.3,26.51z M28.32,43.03c0.11,0,0.23-0.01,0.34-0.01   c0.01,0.54,0.45,0.98,1,0.98c0.55,0,1-0.45,1-1c0.69,0,1.35,0.01,2,0.02c0.01,0.54,0.45,0.98,1,0.98c0.52,0,0.94-0.4,0.98-0.91   c0.08,0,0.17,0.01,0.26,0.01c0.13,0.01,0.26,0.01,0.38,0.02c1.51,0.77,2.38,1.82,2.38,2.88c-0.55,0-1,0.45-1,1   c0,0.26,0.11,0.5,0.27,0.68c-0.18,0.2-0.39,0.39-0.62,0.58C36.13,48.1,35.91,48,35.66,48c-0.55,0-1,0.45-1,1   c0,0.06,0.02,0.1,0.03,0.16c-0.75,0.31-1.6,0.55-2.53,0.69c0.29-0.17,0.5-0.48,0.5-0.84c0-0.55-0.45-1-1-1c-0.55,0-1,0.45-1,1   c0,0.45,0.3,0.81,0.71,0.94c-0.3,0.03-0.6,0.04-0.9,0.05c-0.7-0.02-1.42-0.09-2.18-0.23c0.22-0.18,0.37-0.45,0.37-0.76   c0-0.55-0.45-1-1-1s-1,0.45-1,1c0,0.15,0.04,0.3,0.1,0.43c-0.49-0.13-0.99-0.27-1.51-0.44c-0.23-0.11-0.45-0.23-0.66-0.35   c-0.14-0.35-0.47-0.6-0.86-0.63c-0.67-0.6-1.06-1.28-1.06-2.01c0-0.2,0.04-0.39,0.1-0.58c0.16,0.34,0.5,0.58,0.9,0.58   c0.55,0,1-0.45,1-1c0-0.53-0.42-0.96-0.94-0.99c0.28-0.25,0.62-0.49,1-0.71c0.13,0.4,0.49,0.7,0.94,0.7c0.52,0,0.94-0.41,0.98-0.92   c0.07,0,0.14-0.01,0.21-0.01C27.32,43.06,27.81,43.04,28.32,43.03z M38.74,43.4c4.26,0.5,5.37,1.31,5.38,1.31   c0.05,0.05,0.11,0.07,0.16,0.1c-0.8,0.4-1.55,0.79-2.25,1.15c-0.94,0.48-1.78,0.91-2.58,1.31c0.13-0.41,0.21-0.83,0.21-1.27   C39.66,45.08,39.34,44.2,38.74,43.4z M20.89,47.34c-1.65-0.71-3.46-1.55-5.46-2.52c0.44-0.19,2.22-0.86,6.08-1.33   c-0.55,0.77-0.86,1.62-0.86,2.51C20.66,46.46,20.74,46.91,20.89,47.34z M30.66,58c-5.62,0-11.83-4.2-18.01-12.18   c0.07-0.01,0.14-0.02,0.22-0.03c4.72,2.33,8.47,4.04,11.66,5.07c1.57,0.72,3.51,1.15,5.64,1.15c0.09,0,0.18-0.01,0.28-0.01   C30.5,52,30.58,52,30.65,52l0.15,0c3.83,0,6.96-1.6,12.14-4.26c1.16-0.6,2.44-1.25,3.86-1.96c0.09,0.01,0.18,0.03,0.27,0.04   C43.96,50.22,38.31,58,30.66,58z M48.42,43.66c-1.04,0-2.08-0.18-3.1-0.54c-0.69-0.49-2.93-1.59-9.54-1.98l0,0l-0.2-0.01   c-0.04,0-0.1,0-0.14-0.01c-0.62-0.03-1.27-0.06-1.96-0.08c-0.16,0-0.31-0.01-0.47-0.01C32.26,41.01,31.49,41,30.66,41   c-0.64,0-1.26,0.01-1.87,0.02c-0.19,0-0.38,0.01-0.56,0.01c-0.42,0.01-0.83,0.02-1.23,0.04c-0.18,0.01-0.36,0.01-0.54,0.02   c-0.43,0.02-0.85,0.04-1.26,0.06c-0.11,0.01-0.22,0.01-0.33,0.02c-0.09,0.01-0.18,0.01-0.26,0.02l-0.2,0.01l-0.01,0.01   c-6.77,0.48-9.47,1.63-9.96,1.87c-1.05,0.38-2.12,0.58-3.19,0.58c-2.51,0-4.66-1.07-6.19-2.14c1.74,0.19,3.94,0.28,5.56,0.07   c1.15-0.15,2.67-0.87,3.56-1.5c0.04-0.03,0.09-0.06,0.13-0.08c0.74-0.42,0.81-1.04,0.81-1.29c-0.01-0.88-0.85-1.41-1.21-1.6   c-0.1-0.05-0.2-0.09-0.31-0.1l-4.08-0.66c-1.74-0.28-3.33-0.81-4.73-1.58c-0.52-0.29-0.8-0.49-0.95-0.61   c-1.76-1.44-2-3.59-1.75-5.46c0.44,0.88,1.12,1.82,2.12,2.73c0.02,0.02,0.02,0.04,0.04,0.05c0.05,0.04,0.11,0.08,0.16,0.12   c0.28,0.24,0.58,0.48,0.91,0.72c0.06,0.04,0.12,0.08,0.18,0.12c0.3,0.2,0.61,0.4,0.95,0.59c0.05,0.03,0.1,0.07,0.15,0.09   c0.05,0.03,0.11,0.05,0.16,0.07c0.14,0.07,0.26,0.15,0.4,0.22c0.22,0.11,0.45,0.2,0.67,0.29c0.09,0.04,0.18,0.08,0.27,0.12   c0.46,0.19,0.93,0.35,1.41,0.48c0.01,0,0.01,0,0.02,0.01c1.01,0.28,2.08,0.47,3.22,0.54c0.05,0,0.12,0.01,0.17,0.01   c0.15,0.01,0.3,0.02,0.46,0.03c0.14,0.01,0.29,0.02,0.44,0.03c0.07,0.01,0.14,0.01,0.22,0.02c0.2,0.02,0.41,0.03,0.63,0.05   c0.04,0,0.08,0.01,0.12,0.01c0.24,0.02,0.49,0.04,0.75,0.07c0.03,0,0.06,0.01,0.09,0.01c0.25,0.02,0.51,0.05,0.78,0.08   c0.06,0.01,0.11,0.01,0.17,0.02c0.24,0.02,0.48,0.05,0.73,0.08c0.1,0.01,0.2,0.02,0.3,0.03c0.2,0.02,0.41,0.05,0.62,0.08   c0.15,0.02,0.3,0.04,0.46,0.06c0.16,0.02,0.33,0.04,0.49,0.07c0.12,0.02,0.25,0.03,0.37,0.05c0.02,0.02,0.04,0.04,0.06,0.06   c0.12,0.14,0.25,0.28,0.39,0.41c0.03,0.03,0.06,0.05,0.08,0.08c0.14,0.13,0.27,0.25,0.42,0.36c0.04,0.03,0.07,0.05,0.11,0.08   c0.14,0.11,0.28,0.21,0.43,0.31c0.05,0.03,0.1,0.06,0.15,0.09c0.14,0.09,0.28,0.17,0.43,0.25c0.01,0.01,0.02,0.02,0.04,0.02l0,0   c0.04,0.02,0.08,0.04,0.12,0.06l0,0c0.02,0.01,0.05,0.02,0.08,0.03c0.14,0.07,0.29,0.13,0.44,0.19c0.01,0,0.02,0.01,0.03,0.01   c0.07,0.03,0.15,0.06,0.22,0.08c0.01,0,0.02,0.01,0.03,0.01c0.15,0.05,0.3,0.1,0.45,0.14c0.01,0,0.02,0.01,0.03,0.01l0.25,0.06   c0.01,0,0.02,0,0.03,0.01c0.1,0.02,0.2,0.04,0.3,0.06c0.08,0.01,0.16,0.03,0.26,0.04l0.18,0.03c0,0,0.01,0,0.01,0   c0.25,0.03,0.51,0.05,0.77,0.05c0.29,0,0.57-0.02,0.85-0.06c0.08-0.01,0.17-0.03,0.25-0.04c0.2-0.03,0.4-0.07,0.59-0.12   c0.08-0.02,0.17-0.04,0.25-0.06c0.23-0.07,0.46-0.14,0.68-0.24c0.03-0.01,0.06-0.02,0.09-0.03c0.25-0.1,0.49-0.23,0.72-0.36   c0.07-0.04,0.14-0.08,0.2-0.12c0.17-0.1,0.33-0.21,0.48-0.32c0.07-0.05,0.14-0.1,0.21-0.16c0.17-0.13,0.33-0.27,0.49-0.42   c0.04-0.04,0.08-0.07,0.12-0.11c0.19-0.19,0.36-0.38,0.53-0.59c0.05-0.06,0.09-0.12,0.14-0.18c0.12-0.16,0.23-0.32,0.33-0.48   c0.03-0.04,0.06-0.08,0.08-0.12c0.02,0.04,0.06,0.08,0.08,0.12c0.1,0.17,0.22,0.33,0.33,0.48c0.05,0.06,0.09,0.12,0.14,0.18   c0.17,0.21,0.34,0.4,0.53,0.59c0.04,0.04,0.08,0.07,0.12,0.11c0.16,0.15,0.32,0.29,0.49,0.42c0.07,0.05,0.14,0.11,0.21,0.16   c0.16,0.11,0.32,0.22,0.48,0.32c0.07,0.04,0.13,0.08,0.2,0.12c0.23,0.13,0.47,0.25,0.72,0.36c0.03,0.01,0.06,0.02,0.09,0.03   c0.22,0.09,0.45,0.17,0.68,0.24c0.08,0.02,0.16,0.04,0.25,0.06c0.19,0.05,0.39,0.09,0.59,0.12c0.08,0.01,0.16,0.03,0.25,0.04   c0.28,0.03,0.56,0.06,0.85,0.06c0.27,0,0.54-0.02,0.81-0.05c0.07-0.01,0.13-0.02,0.25-0.04c0.01,0,0.02,0,0.03-0.01   c0.17-0.03,0.34-0.06,0.51-0.1c0.01,0,0.01,0,0.02,0c0.09-0.02,0.18-0.04,0.26-0.07c0.01,0,0.02-0.01,0.02-0.01   c0.17-0.05,0.33-0.1,0.5-0.16c0.02-0.01,0.04-0.01,0.06-0.02l0.17-0.06c0.01,0,0.02-0.01,0.03-0.01c0.05-0.02,0.09-0.04,0.14-0.06   c0.19-0.08,0.36-0.16,0.52-0.25c0.02-0.01,0.04-0.02,0.06-0.03c0.06-0.03,0.12-0.08,0.18-0.11c0.14-0.08,0.28-0.17,0.41-0.26   c0.01-0.01,0.03-0.02,0.04-0.03l0.16-0.12c0.03-0.02,0.06-0.05,0.09-0.07c0.1-0.08,0.2-0.16,0.3-0.25   c0.02-0.02,0.05-0.04,0.07-0.06l0.15-0.14c0.03-0.03,0.05-0.05,0.08-0.08c0.04-0.04,0.08-0.08,0.12-0.12   c0.08-0.08,0.17-0.17,0.26-0.28c0.01-0.01,0.07-0.08,0.08-0.09c0.02-0.02,0.03-0.04,0.05-0.06c0.01-0.01,0.02-0.03,0.04-0.04   c0.04-0.05,0.08-0.1,0.12-0.15c0.02,0,0.04,0,0.06-0.01c0.41-0.05,0.8-0.09,1.19-0.12c0.05-0.01,0.11-0.01,0.16-0.02   c0.38-0.04,0.75-0.07,1.1-0.1c0.02,0,0.04,0,0.07-0.01c0.75-0.06,1.41-0.11,1.93-0.14c0.35-0.02,0.68-0.07,1.02-0.12   c0.22-0.03,0.44-0.04,0.66-0.07c0.26-0.04,0.5-0.11,0.75-0.17c0.29-0.06,0.59-0.11,0.87-0.19c0.2-0.06,0.4-0.14,0.6-0.2   c0.31-0.1,0.63-0.2,0.93-0.32c0.22-0.09,0.42-0.2,0.63-0.3c0.25-0.12,0.51-0.23,0.75-0.36c0.01-0.01,0.02-0.02,0.04-0.02   c0.01-0.01,0.03-0.01,0.04-0.02c0.39-0.22,0.73-0.44,1.07-0.67c0.07-0.05,0.13-0.09,0.2-0.14c1.59-1.14,2.58-2.38,3.16-3.54   c0.23,1.86-0.01,4-1.77,5.43c-0.19,0.16-0.58,0.42-1.37,0.83c-1.25,0.63-2.63,1.09-4.12,1.36l-3.65,0.65   c-0.08,0.01-0.17,0.04-0.24,0.08c-0.3,0.14-1.31,0.67-1.43,1.64c-0.04,0.32-0.02,0.92,0.65,1.48c0.74,0.64,1.98,1.13,2.77,1.28   c0.83,0.15,1.79,0.23,2.87,0.23c1.15,0,2.3-0.09,3.32-0.2C53.08,42.59,50.92,43.66,48.42,43.66z"/><circle cx="31.66" cy="45" r="1"/><circle cx="22.66" cy="18" r="1"/><circle cx="22.66" cy="22" r="1"/><circle cx="37.66" cy="22" r="1"/><circle cx="39.66" cy="20" r="1"/><circle cx="37.66" cy="18" r="1"/><circle cx="24.66" cy="20" r="1"/><circle cx="20.66" cy="20" r="1"/><circle cx="27.66" cy="45" r="1"/><circle cx="29.66" cy="47" r="1"/><circle cx="33.66" cy="47" r="1"/><circle cx="35.66" cy="45" r="1"/><circle cx="25.66" cy="47" r="1"/></g><text x="0" y="75" fill="#000000" font-size="5px" font-weight="bold" font-family="'Helvetica Neue', Helvetica, Arial-Unicode, Arial, Sans-serif">Created by Ben Davis</text><text x="0" y="80" fill="#000000" font-size="5px" font-weight="bold" font-family="'Helvetica Neue', Helvetica, Arial-Unicode, Arial, Sans-serif">from the Noun Project</text></svg>