<svg enable-background="new 0 0 59.7 75" viewBox="0 0 59.7 75" xmlns="http://www.w3.org/2000/svg"><g fill="#fff"><ellipse cx="25.2" cy="39.5" rx="2.8" ry="3.4"/><ellipse cx="36.3" cy="39.5" rx="2.8" ry="3.4"/><path d="m48.9 20.4 1.3.6c.9.4 1.9-.3 2-1.5.2-2.2 0-4.7-.2-6.3-.1-.6-.7-.8-1-.3-1.3 2.1-1.6 2.6-2.7 4.7-.6 1.1-.3 2.4.6 2.8z"/><path d="m10.4 20.4 1.3-.6c.9-.4 1.2-1.7.7-2.7-1.1-2.1-1.4-2.7-2.7-4.7-.3-.5-1-.3-1 .3-.2 1.6-.4 4-.2 6.3 0 1.1 1 1.8 1.9 1.4z"/><path d="m55.7 48.8s-3 .8-5.9.8c-.9 0-1.7-.1-2.3-.2-.4-.1-.9-.4-1.4-.7l3.1-.7c1.6-.3 3-.9 4.3-1.8.7-.4 1.2-.8 1.6-1.2 3.9-4 2-10.8 1.3-12.8-.1-.4-.5-.8-.9-.8-.3 0-.5.1-.7.4-.2.2-.3.6-.3.9 0 .8-.1 2.3-.9 3.9-.2-1.7-.6-3.4-1.1-5 4.1-6.8 3.3-20.4 2.9-25.3-.1-1-.7-1.7-1.5-1.7-.2 0-.4.1-.6.2-1.2.6-2.4 1.8-3.8 3.4-2.2 2.5-4.1 5.5-5.7 9.1l-.1.2c-2-1.7-4.1-3-6.4-3.9 0-.1 0-.2 0-.3 0-4.4-2.9-8-6.5-8-3.5 0-6.3 3.4-6.5 7.6-2.8.8-5.4 2.1-7.7 3.9v-.1c-1.6-3.5-3.5-6.6-5.6-9-1.4-1.7-2.7-2.9-3.8-3.5-.2-.1-.5-.2-.7-.2-.7 0-1.4.7-1.5 1.7-.4 4.7-1.1 17.4 2.4 24.5-.7 2.1-1.2 4.2-1.5 6.5-.8-1.7-.9-3.2-.8-4 0-.3-.1-.7-.3-.9s-.5-.4-.7-.4c-.4 0-.8.3-.9.8-.7 2-2.6 8.9 1.3 12.8.3.3.7.6 1.2.9 1.5 1 3.2 1.7 5 2.1l3 .6c-.6.4-1.4.8-1.9.9s-1.2.1-1.8.1c-3 0-6-.8-6-.8-.4-.1-.8.1-1 .5s-.2 1 .1 1.3c.1.2 3.4 5 8.3 5.7 6.5 10.8 13.1 16.6 19.3 16.6 8.2 0 13.9-9.9 16.9-15.2.3-.5.5-.9.8-1.3 4.9-.7 8.1-5.5 8.3-5.7.3-.4.3-.9.1-1.3-.3-.5-.7-.7-1.1-.6zm-11-20.6c.1-.1.1-.2.2-.3s.2-.3.2-.5c0-.1.1-.2.1-.3.1-.2.2-.3.2-.5 0-.1.1-.1.1-.2.1-.2.1-.4.2-.6 0-.1 0-.1.1-.2.1-.2.1-.4.2-.6v-.1c.1-.2.1-.4.1-.6v-.1c0-.1.1-.3.1-.4.3-2.1 0-3.9-.8-5.3l.2-.1c1.5-3.3 3.3-6.2 5.3-8.5 1-1.2 2-2.1 2.9-2.7.3 4.3 1 17.8-2.9 23.5-.2.2-.3.4-.5.6-.1.1-.1.1-.2.2-.2.2-.4.4-.6.6-.1.1-.2.2-.3.2-.1.1-.3.2-.4.3s-.2.1-.3.2c-.2.1-.5.2-.7.3 0 0-1.7.6-3.8.6-.4 0-.7 0-1.1-.1-1-.1-1.9-.4-2.7-.8.2-.1.3-.2.5-.3l.1-.1c1-.6 1.9-1.4 2.6-2.4.2-.2.3-.4.5-.7.1-.1.1-.2.2-.3s.2-.3.3-.4.1-.3.2-.4zm-6.6 25.6c4 .6 5 1.5 5 1.5 0 .1.1.1.1.1-.7.5-1.4.9-2.1 1.3-.9.6-1.7 1-2.4 1.5.1-.5.2-1 .2-1.5.1-.9-.2-2-.8-2.9zm2.8-13.1c0 .1 0 .2-.1.3 0 .3-.1.5-.2.7 0 .1 0 .2-.1.2-.1.3-.2.6-.4.9-.1.3-.3.5-.5.8.1 0 0 .1 0 .1-.2.2-.4.4-.6.6 0 0-.1 0-.1.1-.2.2-.4.3-.7.4h-.1c-.2.1-.5.2-.8.3-.1 0-.1 0-.2 0-.3.1-.5.1-.8.1-2.6 0-4.7-2.6-4.7-5.7 0-.4 0-.7.1-1 0-.2.1-.4.1-.6s.1-.3.1-.5c0-.1.1-.3.2-.4.1-.2.1-.4.2-.5s.1-.2.2-.3c.1-.2.2-.4.4-.5.1-.1.1-.2.2-.3.1-.2.3-.3.4-.4s.1-.1.2-.2c.2-.1.3-.2.5-.3.1 0 .2-.1.3-.1.2-.1.4-.2.6-.2.1 0 .2-.1.3-.1.3-.1.6-.1.9-.1 2.6 0 4.7 2.6 4.7 5.7 0 .4 0 .7-.1 1zm-24-18.6c0-.2 0-.4 0-.6 0-.1 0-.2 0-.3 0-.3.1-.6.1-.8.1-.3.1-.5.1-.8 0-.1 0-.3 0-.4s0-.2 0-.3c2.4-1.8 4.9-3.1 7.5-3.8.5 2.6 2.1 4.8 4.1 5.7h.1c.3.1.6.2 1 .3h.1c.3.1.7.1 1 .1s.6 0 .9-.1h.2c.3-.1.6-.1.8-.3.1 0 .1-.1.2-.1.2-.1.4-.2.6-.3.1-.1.2-.1.3-.2.2-.1.4-.3.6-.5.1-.1.2-.2.3-.3s.3-.3.4-.4.2-.2.3-.3c.2-.2.3-.4.4-.6.1-.1.1-.2.2-.3.2-.3.3-.6.4-.9v-.1c.1-.3.3-.7.4-1 0 0 0 0 0-.1 2.6 1.1 4.9 2.7 7 4.8.1.2.1.4.2.6 0 .1 0 .1.1.2v.4.6.3c0 .2 0 .5-.1.8 0 .1 0 .2-.1.3-.1.3-.1.6-.2.9 0 .1-.1.3-.1.4-.1.2-.2.5-.3.7-.1.1-.1.3-.2.4.1-1.8-.4-3.3-1.3-4.4s-2.2-1.7-3.7-1.6c-3.1.3-5.7 3.5-5.9 7.3-.1 1.8.4 3.5 1.3 4.6 0 0-.1 0-.1.1-.2.1-.4.2-.6.3-.1.1-.2.2-.3.2-.1.1-.2.2-.3.2-.1.1-.2.2-.3.3s-.2.2-.3.3-.3.3-.4.5c-.1.1-.2.3-.3.4s-.1.2-.2.3-.2.3-.3.4c0 .1-.1.1-.1.2 0-.1-.1-.1-.1-.2-.1-.1-.2-.3-.3-.4s-.1-.2-.2-.3-.2-.3-.3-.4c-.1-.2-.3-.3-.4-.5-.1-.1-.2-.2-.2-.3-.1-.1-.2-.2-.3-.3s-.2-.2-.3-.2c-.1-.1-.2-.2-.3-.2-.2-.1-.4-.2-.5-.3-.1 0-.2-.1-.3-.1-.1-.1-.2-.1-.4-.2l.4-.4c.9-1.1 1.3-2.7 1.3-4.6-.2-3.9-2.8-7.1-5.9-7.3-1.5-.1-2.8.4-3.7 1.6-.9 1.1-1.3 2.7-1.2 4.4 0 0 0 0 0-.1-.1-.1-.1-.3-.2-.4-.1-.2-.1-.4-.2-.5 0-.1-.1-.3-.1-.4-.1-.2-.1-.4-.1-.6 0-.1-.1-.3-.1-.4 0-.2-.1-.4-.1-.6 0-.1 0-.2 0-.4zm8.2 23c-.2.2-.5.2-.8.1h-.1c-.3-.1-.5-.2-.7-.3-.1 0-.1-.1-.2-.1-.2-.1-.5-.3-.7-.4l-.1-.1c-.2-.1-.3-.3-.5-.5 0-.1-.1-.1-.1-.2-.2-.2-.3-.5-.5-.7-.1-.1-.1-.2-.2-.3-.1-.3-.2-.4-.2-.6 0-.1-.1-.2-.1-.4-.1-.2-.1-.4-.2-.7 0-.1 0-.2-.1-.3 0-.3-.1-.7-.1-1 0-3.2 2.1-5.7 4.7-5.7.3 0 .6 0 .9.1.1 0 .2.1.3.1.2.1.4.1.6.2.1 0 .2.1.3.1.2.1.4.2.5.3s.2.1.2.2c.2.1.3.3.4.4s.1.2.2.3c.1.2.2.3.3.5.1.1.1.2.2.3.1.2.2.3.2.5.1.1.1.3.2.4 0 .1.1.3.1.5s.1.4.1.6c0 .3.1.7.1 1 0 3.2-2.1 5.7-4.7 5.7zm-3.6 13.3c-1.5-.8-3.2-1.8-5.1-2.9.4-.2 2.1-1 5.7-1.5-.5.9-.8 1.9-.8 2.9 0 .4.1 1 .2 1.5zm-14.7-51.9c.9.6 1.9 1.5 2.9 2.7 2 2.3 3.8 5.2 5.3 8.5l.1.3c.1.2.2.5.2.7.1.4 0 .7 0 1-.7 2.9.3 6.7 2.7 9.6 1 1.2 2.1 2.2 3.3 2.8-.3.2-.6.4-.9.5 0 0-.1 0-.1.1-.3.1-.6.2-.9.3-.2 0-.4.1-.6.1-.1 0-.3.1-.4.1-.3 0-.7.1-1.1.1-.2 0-.4 0-.6 0-.1 0-.2 0-.3 0-.2 0-.4 0-.6-.1h-.1c-1.2-.2-2.2-.5-2.6-.7h-.1s0 0-.1 0c-.2-.1-.4-.1-.6-.2l-.3-.2c-.1-.1-.2-.1-.3-.2-.1 0-.2-.1-.2-.2-.1-.1-.2-.1-.3-.2s-.2-.1-.3-.2l-.2-.2c-.5-.5-1-1.1-1.4-1.9l-.1-.1c-3.3-6-2.7-18.5-2.4-22.6zm3.4 34.4c-.1 0-.1-.1-.2-.1-.3-.2-.6-.3-.9-.5 0-.2 0-.3-.1-.3-.2-.1-.3-.3-.5-.4-.1-.1-.1-.1-.2-.2-.3-.2-.5-.4-.7-.6.2-2.3.6-4.5 1.2-6.6.8 1 1.8 1.8 2.9 2.2.2.1.4.2.6.2 0 0 .1 0 .1.1.1 0 .1.1.3.1h.1c.1 0 .2.1.3.1s.1 0 .2.1c.1 0 .3.1.4.1s.2 0 .3.1c.1 0 .3.1.4.1s.2 0 .3.1c.2 0 .3.1.5.1h.4c.2 0 .3 0 .5.1h.4s.3 0 .4 0h.3c.4 0 .7 0 1.1-.1h.3c.3 0 .6-.1.8-.1h.1s0 .1-.1.1c-.1.2-.2.4-.3.7 0 .1-.1.1-.1.2-.1.3-.2.6-.3.9v.2c-.1.3-.1.5-.1.8v.3c0 .3-.1.7-.1 1 0 .4 0 .8.1 1.3v.2c.1.4.1.8.3 1.2v.1h-.1c-.4-.1-.8-.1-1.2-.2-.1 0-.3 0-.4 0-.3 0-.6-.1-.8-.1-.1 0-.2 0-.3 0-.4 0-.7-.1-1-.1-.1 0-.1 0-.1 0-.3 0-.6-.1-.9-.1 0 0 0 0-.1 0-1.4-.1-2.7-.4-3.8-1zm20.4 29.7c-5.2 0-11-4.8-16.8-14h.2c4.4 2.7 7.9 4.6 10.8 5.8 1.5.8 3.3 1.3 5.2 1.3h.3.2.1c3.6 0 6.5-1.8 11.3-4.9 1.1-.7 2.3-1.4 3.6-2.3h.3c-2.8 5.2-8.1 14.1-15.2 14.1zm14.3-28.7c-.1 0-.1 0-.2 0s-.3 0-.4 0c-.2 0-.4 0-.6.1-.1 0-.2 0-.3 0-.2 0-.3 0-.5.1-.1 0-.1 0-.2 0 .1-.3.1-.7.2-1.1 0-.1 0-.2 0-.3 0-.4.1-.7.1-1.1 0-.3 0-.6 0-.9 0-.1 0-.2 0-.3 0-.2-.1-.4-.1-.6 0-.1 0-.2-.1-.3 0-.2-.1-.4-.1-.5s-.1-.2-.1-.3c-.1-.2-.1-.4-.2-.6 0-.1 0-.1-.1-.2.6.1 1.2.2 1.9.2 1.5 0 2.9-.3 3.6-.5.4-.1.7-.2.7-.2h.1c1.1-.4 2-1 2.8-1.8.2 1.6.5 3.4.6 5.3-.2.2-.4.3-.5.5l-.1.1c-.2.2-.5.4-.7.6-.2.1-.4.3-.6.4s-.3.2-.5.3-.5.2-.7.3-.4.2-.5.2c-.2.1-.4.1-.6.1-.2.1-.5.1-.7.2-.1 0-.1 0-.2 0-.4.1-.7.1-1.1.2-.3 0-.5 0-.9.1z"/></g></svg>