<svg xmlns="http://www.w3.org/2000/svg" xmlns:xlink="http://www.w3.org/1999/xlink" version="1.1" x="0px" y="0px" viewBox="0 0 100 125" style="enable-background:new 0 0 100 100;" xml:space="preserve"><style type="text/css">
	.st0{fill:none;stroke:#000000;stroke-linecap:round;stroke-linejoin:round;stroke-miterlimit:10;}
	.st1{fill:none;stroke:#000000;stroke-linejoin:round;stroke-miterlimit:10;}
	.st2{fill:none;stroke:#000000;stroke-linecap:round;stroke-miterlimit:10;}
</style><path class="st0" d="M49.5,5C46.3,16.4,37,18.7,32.1,23.9c-8.5,7.5-8.6,15.3-1.3,18.8c6.3,0,7.9-6.2,8.6-7.8c0.7-3.9-1.7-5-2.6-1  C36.3,27.6,52.8,17.6,49.5,5z"/><path class="st0" d="M63.5,7.9c-3.1,14.5-11,16.6-13.1,20c5.5,1,6,2.4,8.1,4.2C58,27.6,69.7,19.3,63.5,7.9z"/><path class="st0" d="M40.1,27c2.8-0.9,8,0.6,10.2,0.9"/><path class="st0" d="M58.4,32.1c0,0,5,5.5,7.3,10.6c1.6,1.5,4.8,1.8,4.3,4.6"/><path class="st0" d="M25.5,37c0,0-3.5,3.5-2.3,5.8"/><path class="st0" d="M40.1,66.6c0,0,4.6,7.5-5.7,11.1c13.5-1.3,10.8-10.5,10.8-10.5"/><path class="st0" d="M58.2,53.7c0,0,1.7,1.1,2.1-0.3c-1.5-3.4-3.7-13.2-3.7-13.2s4,9.1,6.9,13.2c-1.2-4.7,1.1-7.9,1.1-7.9  s0.8,6.8,1.4,5.1c0.6-2,1.8-4.8,1.8-4.8s0.3,3.8,1.3,2.9c1-0.9,3.4-5.8,3.4-5.8s1.9,5.4-2.5,7"/><ellipse class="st0" cx="69.7" cy="54" rx="3.5" ry="4"/><ellipse transform="matrix(0.9397 -0.3419 0.3419 0.9397 -15.8882 22.4399)" class="st0" cx="55.7" cy="56.3" rx="3.5" ry="4"/><path class="st0" d="M55.2,52.3c-0.2,0-6.8-4.1-10-9.3c-1.6,3.9,2.7,8.1,2.7,8.1s-4.3-0.4-9.6-5.1c2.4,7,8.9,6.9,8.3,6.9  c-0.6,0-5,0.9-8.3,0.4c5.3,4.6,9.4,2,9.4,2s-2.6,3-4.1,3.7c3.8,0.7,8.3-2.2,8.3-2.2"/><path class="st0" d="M70.1,57.9c1.4,2.5,6.7,4,6.1,9.7c-0.2,2.4-1.6,3.8-3,2.7c-2.2-1.4-6.4-6.3-8.9-2.3"/><path class="st0" d="M67.8,67.1c0,0-1,3.6-3.5,2.7c-5.2-1.6-3.5-6.4-0.4-6.3c0.1-0.6-0.5-1.6-0.5-1.6"/><path class="st0" d="M53.2,59.6c0,0-7.8,5.4-18.1-3.7c3.3,3.4,9.4,7,9.4,8s4.9,6,10.5,4.3c4.5-2.5,0.2-3.7,3.2-6.5"/><path class="st0" d="M54.1,68.6c0,0,7.8,6.1,12,5.5c4.2-0.5,2.3-3.1,3.9-3.4s3,3,4.9-0.3"/><path d="M56.6,54.5c-0.9-0.2-3.1,2.5-0.9,4c2.1,1,3.3-1.7,2.5-3.3c-0.6,0.5-1.2,1.1-1.2,1.1S56.9,55.6,56.6,54.5z"/><path d="M70.1,52.3c0.2,1.1,0.4,2.2,0.4,2.2s0,0,1-1.1c0.9,1.1-0.1,4-2.1,3.2C67.3,55.8,68.2,52.4,70.1,52.3z"/><path class="st0" d="M48.7,68c0,0,1.8,1.8-2.1,5.9c5.9-1.1,5.6-4.2,5.6-4.2"/><path class="st0" d="M61.8,75.7c0,0-2.1,2.2,0.6,6.5c-4.2-1-4.5-8.6-4.5-8.6s-1.1,2.9-5,3.1c2.4-2.2,1.7-5.4,1.7-5.4"/><path class="st0" d="M62.2,75.8l0.4,2l3.4,0.6v-1.9l0.9,1.9l2.2-0.3l-0.3-2.7l0.9,2.2l2.5-0.8v-3.3l0.6,2.4l2.2-0.5l0.5-3  c0,0,0.7,2.8,0.4,5.5c1.7-2.2,0.4-7.1,0.4-7.1"/><path class="st0" d="M40.7,76.3c10.7,1.6,15.7,4.8,18.5,6.8"/><path class="st0" d="M44.4,63.8c-11.9-4.6-16.8,10.3-7,12.1"/><path class="st0" d="M43.6,74.6c4,0.8,11,2.9,15.3,8.2c6.3,7.6,9.3,6.9,9.3,6.9s4.8-2.1,6.5-1.7c1.7,0.4,2.8-1.5,2.8-1.5  s-0.4-4.8-3.2-8.4c1.3,5.5,0.4,9.5,0.4,9.5"/><path class="st0" d="M75.6,69.6c1.4,1.8-0.8,6-4.9,3.2c-4.2,10-16.9-2.8-19.9-3.9c-13.1-5.8-13.8-1.3-14.3-0.6  c-1.5,3.7,1.3,5.1,2.9,5.6"/><path class="st0" d="M74.4,87.6c0,0-0.9-5.3-2.6-6.3c1.2,4,0,7.1,0,7.1"/><path class="st0" d="M71.5,88.4c0,0-2.4-3.1-3.1-6.8c-0.6,2.8,0.5,7.5,0.5,7.5"/><path class="st0" d="M64.5,88.3c0,0-0.7-6,0.9-8.4c0.4,6.7,3.3,8.5,3.3,8.5"/><path class="st0" d="M25.7,68.6c0,0-0.3,14.9,15.5,15c6.5,0.3,9.1,0.8,10.5,2.7s3,4.4,7.9,4.2c5-0.2,6,1.6,6.9,2.4  c3.3,3.4,7.1,1.6,7.2,0.4c0.1-1.3,0.4-2.1,3.1-2c3.3,0,1.8-6.5,1.8-6.5s-0.5-4.5-2.8-7l-0.2,2"/><path class="st0" d="M32.2,64.1c-0.3-4.2-2-2.8-2.7-2.1c-3.2,3.1-1.1,6.6-4.2,6.6c-5.4-0.8,1-8.2-4.9-13.4c0-3.8-1-4.1-2.8-5.2  c-5.8-2.7-5.2-7.9-3.4-10.2c3.4,1.4,16.7,3.6,18.3,11.3L30.6,51c0,0-0.7-2.8-5.1-2.8c-2-3.2-5.8-1.8-5.8-1.8S15.6,42.1,13,43"/><path class="st0" d="M22.2,52.3c4.9,3.3,1.3,11.3,4.4,9.6c4.1-4-1-4.3-0.6-6.4c0.4-2,5.3-7.5-1.8-7.3c-5.8,1.8-4.5-1.8-4.5-1.8"/><text x="0" y="115" fill="#000000" font-size="5px" font-weight="bold" font-family="'Helvetica Neue', Helvetica, Arial-Unicode, Arial, Sans-serif">Created by Luke Keil</text><text x="0" y="120" fill="#000000" font-size="5px" font-weight="bold" font-family="'Helvetica Neue', Helvetica, Arial-Unicode, Arial, Sans-serif">from the Noun Project</text></svg>