<svg xmlns="http://www.w3.org/2000/svg" xmlns:xlink="http://www.w3.org/1999/xlink" version="1.1" x="0px" y="0px" viewBox="0 0 100 125" enable-background="new 0 0 100 100" xml:space="preserve"><g><path d="M34.865,7.87l0.001,0.002l0,0.002l0,0l0.129,14.515c-0.002,0.111-0.003,0.222-0.005,0.33l-0.002,0.001v0.128   c0,0.005,0,0.013,0,0.018c-0.001,0.007,0.002,0.012,0.001,0.02l0.409,45.703l31.894-0.285l-0.371-41.622h0.031L66.783,7.608h0.015   c-0.017-1.598-1.321-2.881-2.92-2.867c-1.596,0.016-2.88,1.319-2.865,2.916h-0.015l0.023,2.73   c-2.784-2.281-6.354-3.639-10.236-3.604c-3.853,0.034-7.375,1.434-10.109,3.735l-0.026-2.696l0,0   c-0.013-1.599-1.319-2.881-2.916-2.866C36.135,4.97,34.854,6.273,34.865,7.87L34.865,7.87z"/><polygon points="71.731,61.271 71.823,71.518 31.043,71.882 30.95,61.635 19.957,61.735 20.263,95.665 31.257,95.566    31.239,93.591 72.019,93.226 72.036,95.202 83.029,95.105 82.726,61.174  "/><path d="M82.726,59.874c-0.028-3.069-2.54-5.538-5.612-5.51c-3.069,0.028-5.539,2.54-5.511,5.61L82.726,59.874z"/><path d="M25.322,54.825c-3.069,0.03-5.537,2.539-5.51,5.61l11.121-0.098C30.906,57.265,28.395,54.799,25.322,54.825z"/></g><text x="0" y="115" fill="#000000" font-size="5px" font-weight="bold" font-family="'Helvetica Neue', Helvetica, Arial-Unicode, Arial, Sans-serif">Created by Blaise Sewell</text><text x="0" y="120" fill="#000000" font-size="5px" font-weight="bold" font-family="'Helvetica Neue', Helvetica, Arial-Unicode, Arial, Sans-serif">from the Noun Project</text></svg>