<svg enable-background="new 0 0 100 125" viewBox="0 0 100 125" xmlns="http://www.w3.org/2000/svg"><g fill="#fff"><path d="m34.9 8.7.1 18.2v.4.2l.4 57.4 31.9-.4-.4-52.3-.1-23.9c0-2-1.3-3.6-2.9-3.6s-2.9 1.7-2.9 3.7v3.4c-2.8-2.8-6.3-4.5-10.2-4.5s-7.4 1.8-10.1 4.7v-3.4c0-2-1.3-3.6-2.9-3.6-1.7 0-2.9 1.7-2.9 3.7z"/><path d="m71.7 75.7.1 12.9-40.8.4v-12.8l-11 .1.3 42.6 11-.1-.1-2.5 40.8-.5v2.5l11-.1-.3-42.6z"/><path d="m82.7 74c0-3.9-2.5-7-5.6-6.9-3.1 0-5.5 3.2-5.5 7z"/><path d="m25.3 67.6c-3.1 0-5.5 3.2-5.5 7l11.1-.1c0-3.8-2.5-6.9-5.6-6.9z"/></g></svg>