<svg xmlns="http://www.w3.org/2000/svg" xmlns:xlink="http://www.w3.org/1999/xlink" xml:space="preserve" version="1.1" style="shape-rendering:geometricPrecision;text-rendering:geometricPrecision;image-rendering:optimizeQuality;" viewBox="0 0 841 1053.75" x="0px" y="0px" fill-rule="evenodd" clip-rule="evenodd"><defs><style type="text/css">
   
    .fil0 {fill:black}
   
  </style></defs><g><path class="fil0" d="M804 838c2,2 6,7 10,5 5,-2 11,-7 16,-12 4,-4 10,-10 11,-16 1,-3 -2,-7 -5,-10 0,0 -9,7 -17,15 -9,8 -16,17 -15,18z"/><path class="fil0" d="M802 836c1,0 7,-10 15,-18 8,-7 17,-14 17,-14 5,-53 -265,-201 -210,-255 2,-3 4,-31 -1,-26 -16,17 -39,42 -49,52 -13,12 -30,29 -49,48 -4,4 16,8 23,1 57,-54 214,223 254,212z"/><path class="fil0" d="M554 589l35 -36c-333,-320 -581,-560 -589,-553 -8,7 241,271 554,589z"/><path class="fil0" d="M592 550l28 -29c-41,-40 -72,-81 -110,-117 -185,-178 -321,-297 -326,-293 -6,5 177,204 408,439z"/><path class="fil0" d="M551 592l-29 29c-40,-40 -81,-70 -116,-106 -180,-186 -300,-324 -296,-329 6,-6 205,175 441,406z"/></g><text x="0" y="858" fill="#000000" font-size="5px" font-weight="bold" font-family="'Helvetica Neue', Helvetica, Arial-Unicode, Arial, Sans-serif">Created by ANTON icon</text><text x="0" y="863" fill="#000000" font-size="5px" font-weight="bold" font-family="'Helvetica Neue', Helvetica, Arial-Unicode, Arial, Sans-serif">from the Noun Project</text></svg>