<svg enable-background="new 0 0 841 1053.8" viewBox="0 0 841 1053.8" xmlns="http://www.w3.org/2000/svg"><g clip-rule="evenodd" fill="#fff" fill-rule="evenodd"><path d="m660.5 980.6c1.1 2.2 3 7.3 6.9 6.9 4.7-.2 11-2.5 16.6-5.1 4.4-2.1 11-5.2 13.5-9.8 1.7-2.1.3-6.2-1.4-9.5 0 0-9.4 3.1-18.2 7.3-9.7 3.8-17.9 9.1-17.4 10.2z"/><path d="m659.4 978.4c.8.3 8.6-6.1 17.4-10.2 8.6-3.4 17.9-6.4 17.9-6.4 18.8-41.3-164.1-236.9-103.7-264.8 2.5-1.8 11.8-23.8 6.3-21.2-17.9 9.1-43.9 22.7-54.9 28-14.1 6-32.8 14.8-53.8 24.7-4.4 2.1 11 11 18.8 7.3 62.1-27.2 115.8 240.1 152 242.6z"/><path d="m522 709.4 38.9-19c-187.7-351.9-327-615.3-335.6-611.9-8.5 3.3 125 286.3 296.7 630.9z"/><path d="m564.2 688.8 31.2-15.4c-22.9-43.8-37.3-85.6-58.9-125.3-104.2-195.7-184.1-330-189.3-328.2-6.4 2.3 90.4 214.3 217 468.9z"/><path d="m518.7 710.9-32 15.1c-22.1-43.5-47.8-79.3-66.9-118.2-97.9-200.7-159.3-345.7-154.6-348.6 6.7-3 121.6 199 253.5 451.7z"/></g></svg>