<svg xmlns="http://www.w3.org/2000/svg" xmlns:xlink="http://www.w3.org/1999/xlink" version="1.1" x="0px" y="0px" viewBox="0 0 32 40" style="enable-background:new 0 0 32 32;" xml:space="preserve"><style type="text/css">
	.st0{fill:#010101;}
	.st1{fill:#231F20;}
</style><g><g><g><path class="st0" d="M11.8,12.6c0,0-0.1,0-0.1,0c-0.2,0-0.4-0.2-0.5-0.3C11,12.1,8.6,8.3,8.6,4.9c0-3.6,1.7-4,2-4     c0.3,0,0.6,0.1,0.7,0.4c0.1,0.2,0.1,0.6,0,0.8c-0.1,0.1-0.1,0.2-0.1,0.4c0,1,2.7,3.7,5.2,5.8c0.2,0.2,0.3,0.5,0.2,0.8     c-0.1,0.3-0.2,0.5-0.5,0.5c-0.4,0.2-2.4,1.6-4,2.8C12.1,12.5,11.9,12.6,11.8,12.6z M10.2,3.9c0,0.3-0.1,0.6-0.1,1     c0,2.1,1.2,4.6,1.8,5.8c0.9-0.7,1.9-1.4,2.7-1.9C13.3,7.6,11.1,5.6,10.2,3.9z"/></g></g><g><g><path class="st0" d="M20.2,12.6c-0.2,0-0.3-0.1-0.5-0.2c-1.6-1.2-3.6-2.7-4-2.8c-0.3-0.1-0.5-0.3-0.5-0.5s0-0.5,0.2-0.7     c0,0,0,0,0.1-0.1c2.6-2.1,5.2-4.8,5.2-5.8c0-0.2,0-0.3-0.1-0.4c-0.2-0.2-0.2-0.6,0-0.8C20.8,1,21,0.9,21.3,0.9c0.3,0,2,0.4,2,4     c0,3.4-2.4,7.1-2.5,7.3c-0.1,0.2-0.3,0.3-0.5,0.3C20.3,12.6,20.3,12.6,20.2,12.6z M17.3,8.8c0.8,0.5,1.8,1.2,2.7,1.9     c0.7-1.2,1.8-3.6,1.8-5.8c0-0.4,0-0.7-0.1-1C20.9,5.6,18.7,7.6,17.3,8.8z"/></g></g><g><g><path class="st0" d="M14,32h-3.5c-0.3,0-0.6-0.2-0.7-0.5L5.9,20.2c-0.1-0.2,0-0.4,0.1-0.6l1.7-2.8l-3.3-1.5C4.2,15.2,4,15,4,14.8     c-0.1-0.2-0.1-0.4,0-0.6l4.7-9.7c0.2-0.3,0.5-0.5,0.8-0.4c0.3,0.1,0.6,0.4,0.6,0.7c0,2.9,2.2,6.5,2.3,6.5     c0.1,0.1,0.1,0.2,0.1,0.3l2.2,19.4c0,0.2,0,0.4-0.2,0.6C14.4,31.9,14.2,32,14,32z M11,30.5h2.1L11,12.1c-0.3-0.6-1.5-2.5-2-4.7     l-3.3,6.8l3.4,1.5c0.2,0.1,0.3,0.3,0.4,0.5c0.1,0.2,0,0.4-0.1,0.6l-2,3.2L11,30.5z"/></g></g><g><g><path class="st0" d="M21.5,32H18c-0.2,0-0.4-0.1-0.6-0.3c-0.1-0.2-0.2-0.4-0.2-0.6l2.2-19.4c0-0.1,0.1-0.2,0.1-0.3     c0,0,2.3-3.6,2.3-6.5c0-0.3,0.2-0.7,0.6-0.7c0.3-0.1,0.7,0.1,0.8,0.4l4.7,9.7c0.1,0.2,0.1,0.4,0,0.6c-0.1,0.2-0.2,0.3-0.4,0.4     l-3.3,1.5l1.7,2.8c0.1,0.2,0.1,0.4,0.1,0.6l-3.9,11.3C22.1,31.8,21.8,32,21.5,32z M18.8,30.5H21L24.6,20l-2-3.2     c-0.1-0.2-0.1-0.4-0.1-0.6c0.1-0.2,0.2-0.4,0.4-0.5l3.4-1.5L23,7.4c-0.6,2.2-1.7,4.1-2,4.7L18.8,30.5z"/></g></g><g><g><path class="st0" d="M17,13.2H15c-0.3,0-0.5-0.2-0.7-0.4l-1.1-2.2c-0.2-0.3-0.1-0.7,0.2-1c1.8-1.3,2.2-1.5,2.5-1.5     c0.1,0,0.2,0,0.3,0c0.3,0.1,0.7,0.2,2.5,1.5c0.3,0.2,0.4,0.6,0.2,1l-1.1,2.2C17.6,13.1,17.3,13.2,17,13.2z M15.4,11.7h1.2     l0.6-1.2c-0.7-0.5-1-0.7-1.2-0.8c-0.2,0.1-0.6,0.3-1.2,0.8L15.4,11.7z"/></g></g><g><g><path class="st0" d="M18,32h-4c-0.4,0-0.7-0.3-0.7-0.7L12.5,25c0-0.1,0-0.1,0-0.2l1.7-12.4c0-0.4,0.4-0.6,0.7-0.6H17     c0.4,0,0.7,0.3,0.7,0.6l1.7,12.4c0,0.1,0,0.1,0,0.2l-0.7,6.3C18.7,31.7,18.4,32,18,32z M14.7,30.5h2.7l0.6-5.6l-1.6-11.7h-0.8     L14,24.9L14.7,30.5z"/></g></g><g><g><path class="st0" d="M16,9.6c-0.2,0-0.3-0.1-0.5-0.2c-0.8-0.7-5-4.1-5.7-6.3c0,0,0-0.1,0-0.1C9.8,2.9,9.7,2.7,9.7,2.5     c0-0.2,0-0.4,0.1-0.6c0,0,0-0.1,0-0.1c0.1-0.2,0.1-0.3,0.2-0.5C10.9,0,12.9,0,15.3,0L16,0l0.7,0c2.3,0,4.4,0,5.2,1.3     c0.1,0.1,0.2,0.3,0.2,0.5c0,0,0,0.1,0,0.1c0.1,0.2,0.1,0.4,0.1,0.6c0,0.2,0,0.5-0.1,0.8c0,0,0,0,0,0c-0.8,2.2-4.8,5.5-5.6,6.2     C16.3,9.6,16.2,9.6,16,9.6z M14.6,1.5c-1.5,0-3,0.1-3.3,0.6c0,0,0,0.1-0.1,0.1c0,0.1,0,0.2,0,0.3c0,0,0,0.1,0,0.2     C11.7,4,14.2,6.4,16,7.9c1.7-1.4,4.2-3.8,4.7-5.1c0.1-0.2,0.1-0.3,0.1-0.3c0-0.1,0-0.2,0-0.2c0-0.1,0-0.1-0.1-0.2     c-0.4-0.6-2.3-0.6-3.9-0.6l-0.7,0l-0.7,0C15.1,1.5,14.8,1.5,14.6,1.5z M21.4,3L21.4,3L21.4,3z"/></g></g><g><g><g><path class="st0" d="M7.4,20l2-3.2c0.1-0.2,0.1-0.4,0.1-0.6c-0.1-0.2-0.2-0.4-0.4-0.5l-3.4-1.5l4.4-9c0-0.1,0.1-0.2,0.1-0.3      c0-0.1,0-0.3,0-0.4c0-0.4-0.3-0.8-0.7-0.8c-0.1,0-0.3,0-0.4,0.1L0.4,8.2C0.2,8.3,0,8.6,0,8.9v22.4C0,31.7,0.3,32,0.8,32h9.7      c0.2,0,0.5-0.1,0.6-0.3s0.2-0.5,0.1-0.7L7.4,20z"/></g></g><g><g><path class="st0" d="M31.6,8.2l-8.6-4.4c-0.1-0.1-0.2-0.1-0.4-0.1c-0.4,0-0.7,0.4-0.7,0.8c0,0.1,0,0.2,0,0.4      c0,0.1,0,0.2,0.1,0.3l4.4,9l-3.4,1.5c-0.2,0.1-0.3,0.3-0.4,0.5c-0.1,0.2,0,0.4,0.1,0.6l2,3.2l-3.8,11c-0.1,0.2,0,0.5,0.1,0.7      s0.4,0.3,0.6,0.3h9.7c0.4,0,0.8-0.3,0.8-0.8V8.9C32,8.6,31.8,8.3,31.6,8.2z"/></g></g><g><g><path class="st0" d="M20.7,11.2c0,0-1-0.8-2.1-1.5c-0.2-0.1-0.4-0.2-0.6-0.1c-0.2,0.1-0.4,0.2-0.5,0.4l-1.1,2.2      c-0.1,0.1-0.1,0.3-0.1,0.4L18,25c0.1,0.4,0.4,0.6,0.7,0.6c0,0,0,0,0,0c0.4,0,0.7-0.3,0.7-0.7L21,11.9      C21,11.6,20.9,11.4,20.7,11.2z"/></g></g><g><g><path class="st0" d="M14.5,9.9c-0.1-0.2-0.3-0.3-0.5-0.4c-0.2-0.1-0.4,0-0.6,0.1c-1,0.8-2.1,1.5-2.1,1.5      c-0.2,0.2-0.3,0.4-0.3,0.7L12.5,25c0,0.4,0.4,0.7,0.7,0.7c0,0,0,0,0,0c0.4,0,0.7-0.3,0.7-0.6l1.7-12.4c0-0.2,0-0.3-0.1-0.4      L14.5,9.9z"/></g></g></g></g><text x="0" y="47" fill="#000000" font-size="5px" font-weight="bold" font-family="'Helvetica Neue', Helvetica, Arial-Unicode, Arial, Sans-serif">Created by Royyan Wijaya</text><text x="0" y="52" fill="#000000" font-size="5px" font-weight="bold" font-family="'Helvetica Neue', Helvetica, Arial-Unicode, Arial, Sans-serif">from the Noun Project</text></svg>