<svg xmlns="http://www.w3.org/2000/svg" data-name="Layer 1" viewBox="0 0 100 125" x="0px" y="0px"><title>WeaponsArtboards</title><path d="M69.16,33.61l.05.05,6.54-6.48,0,0,0,0,.53-.53-.46-.46.75-.74a3.52,3.52,0,0,1,1.25-.34h.05L93.08,10.22l0,0v-.06a5.57,5.57,0,0,1,.47-2.26l.12-.28-.28.11a5.69,5.69,0,0,1-2.24.43l-.06,0-15.21,15,0,0v.05a3.52,3.52,0,0,1-.36,1.24l-.75.74-.41-.42,0,0-.5.5,0,0,0,0L67.26,31.7l0,0a.53.53,0,0,0-.56.11l-.09.09a.53.53,0,0,0-.16.37.53.53,0,0,0,0,.21l0,0L4.24,94.17h0l-.41.4.38.38-.27.27a.45.45,0,0,0-.55.06l-.08.07a.46.46,0,0,0,0,.64l1.06,1.07a.46.46,0,0,0,.64,0L5.06,97a.45.45,0,0,0,0-.61l.27-.27.43.43.37-.37,0,0h0L68.41,34.43l0,0a.53.53,0,0,0,.19,0h0a.53.53,0,0,0,.37-.15L69,34.2a.53.53,0,0,0,.16-.38A.53.53,0,0,0,69.16,33.61ZM5,96.92,4.92,97a.35.35,0,0,1-.5,0L3.36,95.92a.36.36,0,0,1,0-.5l.08-.07a.36.36,0,0,1,.5,0L5,96.42A.36.36,0,0,1,5,96.92Zm.79-.51L5.36,96,5,96.3l-.92-.93-.1-.1H4l.33-.33L4,94.57l.26-.26,1.82,1.84ZM76.12,23.2,91.19,8.38A5.8,5.8,0,0,0,93.25,8a5.75,5.75,0,0,0-.38,2.05L77.81,24.92a3.93,3.93,0,0,0-1.31.37l-.75.72L75,25.24l.71-.7,0,0A3.94,3.94,0,0,0,76.12,23.2Zm-1.81,1.61.38.38,0,0,1.11,1.13.05-.05.39.39-.39.39-1.88-1.9Zm-5.43,9.4a.43.43,0,0,1-.3.12h0a.43.43,0,0,1-.3-.13L66.69,32.6a.43.43,0,0,1,0-.61l.09-.09a.43.43,0,0,1,.61,0L69,33.51a.43.43,0,0,1,0,.61Z"/><text x="0" y="115" fill="#000000" font-size="5px" font-weight="bold" font-family="'Helvetica Neue', Helvetica, Arial-Unicode, Arial, Sans-serif">Created by Jason Min</text><text x="0" y="120" fill="#000000" font-size="5px" font-weight="bold" font-family="'Helvetica Neue', Helvetica, Arial-Unicode, Arial, Sans-serif">from the Noun Project</text></svg>