<svg enable-background="new 0 0 66 82.5" viewBox="0 0 66 82.5" xmlns="http://www.w3.org/2000/svg"><path d="m44.3 8.4c-1.8-1-4.2-.4-5.2 1.5l-33.4 60c-1 1.8-.4 4.2 1.5 5.2 1.8 1 4.1.3 5.2-1.5l33.3-60.1c1.2-1.8.5-4-1.4-5.1z"/><path d="m55.5 16c-3.4 1.5-7.4 2.4-10.5 3l-10 18.1c1.1 2.6 2.2 6.2 2.8 9.7 10.5-5.3 17.1-16.8 17.7-30.8z"/><path d="m60.4 14.6c-.1-.3-.4-.6-.7-.6-.3-.1-.6 0-.9.1-.4.3-.8.6-1.3.9-.2 15.6-7.6 28.2-19.5 33.8.1.9.1 1.8 0 2.6-.1.3.1.6.4.9.2.3.6.2.9.2 18.1-5 26.4-20.1 21.1-37.9z"/><path d="m27.6 26.5 4.5-8.2-7.5-1.5c-.4-.1-.9.1-1.1.5l-1.3 2.3c-.3.4-.1.8.1 1.2z"/></svg>