<svg enable-background="new 0 0 32 40" viewBox="0 0 32 40" xmlns="http://www.w3.org/2000/svg"><path d="m10 16.6h12 1 2v-12c0-2-1.3-3.6-3-3.6h-12c-1.7 0-3 1.6-3 3.6v12h2z"/><path d="m28 17.7h-2-1-18-1-2c-.5 0-1 .6-1 1.2v4.8c0 .6.5 1.2 1 1.2h2.5 1.5l1.8 1.2 3.2 2.2 1 .7-1 .7-7.5 5c-.5.2-.6 1-.4 1.6.2.4.6.6.9.6.2 0 .3 0 .5-.1l8.5-5.8 1-.7 1 .7 8.4 5.6c.3.2.4.2.6.2.3 0 .7-.2.9-.6.3-.6.1-1.3-.4-1.7l-7.4-4.9-1-.7 1-.7 3.3-2.2 1.8-1.2h1.5 2.3c.5 0 1-.6 1-1.2v-4.8c0-.5-.5-1.1-1-1.1zm-9.7 8.4-1.2.9-1 .7-1-.7-1.3-.8-1.8-1.3h2 4 2.1z"/></svg>