<svg enable-background="new 0 0 100 125" viewBox="0 0 100 125" xmlns="http://www.w3.org/2000/svg"><path d="m82 66.2h-40.4c-5.6-11.9-9.5-28.1-9.5-52 0-2.6-2.1-4.7-4.7-4.7s-4.7 2.1-4.7 4.7c0 23.3 3.7 40.1 9 52.7-1.3.8-2.1 2.2-2.1 3.9 0 2.6 2.1 4.7 4.7 4.7h1.6c4.8 8.8 10.3 15.2 15.5 20.7l-13.5 17c-1.6 2-1.3 4.9.8 6.6.8.7 1.9 1.1 2.9 1.1 1.4 0 2.8-.6 3.6-1.8l12.5-15.8c4.3 4.8 7.7 9.1 9.5 14.4.6 2 2.5 3.3 4.5 3.3.5 0 .9-.1 1.4-.2 2.5-.8 3.9-3.4 3-5.9-2.3-7.5-7.1-13.2-12.5-19l15.9-20.1h2.5c2.6 0 4.7-2.1 4.7-4.7 0-2.9-2.2-4.9-4.7-4.9zm-24.9 22.6c-3.5-3.9-7.1-8.1-10.4-13.2h20.8z"/></svg>