<svg enable-background="new 0 0 6.8 8.5" viewBox="0 0 6.8 8.5" xmlns="http://www.w3.org/2000/svg"><path d="m4.4 2.7v1.3s0 .1-.1.1h-.1-.1v-.1-.1h.2v-1.1l-.4-.3-.2.2-.1-.1.3-.2s0 0 0 0z"/><path d="m5.7 2.5s-.1.1-.1.1-.1 0-.1-.1c0 0 0-.1 0-.2s0-.1 0-.2.1-.1.1-.1.1 0 .1.1v.2z"/><path d="m5.4 1.7c0 .1.1.1.1.2s0 .2-.1.2c0 .1-.1.1-.2.1s-.1 0-.2-.1c0 0 0-.1 0-.2s0-.2 0-.2c0-.1.1-.1.2-.1s.2.1.2.1z"/><path d="m4 1.7c0-.1-.1-.2-.1-.3s0-.2.1-.3c0-.1.1-.1.2-.1s.2 0 .2.1.1.2.1.3 0 .2-.1.3c0 .1-.1.2-.2.2s-.2-.1-.2-.2z"/><path d="m4.6 1.8c0-.1-.1-.1-.1-.2s0-.2.1-.2c0-.1.1-.1.2-.1s.1.1.2.1c0 .1.1.1.1.2s-.1.2-.1.2c0 .1-.1.1-.2.1s-.1 0-.2-.1z"/><path d="m1.4 2.2s.1.1.1.2 0 .1-.1.2c0 0-.1.1-.1.1s-.1 0-.1-.1c0 0 0-.1 0-.2s0-.1 0-.2.1-.1.1-.1.1 0 .1.1z"/><path d="m1.8 2.1c0 .1-.1.1-.2.1s-.1 0-.2-.1c0-.1 0-.1 0-.2s0-.2 0-.2c0-.1.1-.1.2-.1s.1 0 .2.1c0 .1.1.1.1.2-.1.1-.1.2-.1.2z"/><path d="m2.3 1.4c0-.1 0-.2.1-.3s.1-.1.2-.1.2 0 .3.1c0 .1.1.2.1.3s0 .2-.1.3-.2.2-.3.2-.2-.1-.2-.2c-.1 0-.1-.1-.1-.3z"/><path d="m1.8 1.8c0-.1-.1-.1-.1-.2s0-.2.1-.2c0-.1.1-.1.2-.1s.1.1.2.1c0 .1.1.1.1.2s0 .2-.1.2c0 .1-.1.1-.2.1s-.1 0-.2-.1z"/><path d="m4.1 5.7c-.5-.2-.3-.8-.3-.9.1-.1.2-.3.3-.4s.1-.2.1-.3h.1.1v-1.4l-.4-.4c0-.1.1-.2.3-.2s.3 0 .5.1.4.3.5.5c.3.5.4 1.1 0 1.7-.1.1-.1.2-.2.3-.5 1.2-1 1-1 1z"/><path d="m1.5 2.7c.2-.2.3-.4.5-.5s.3-.2.5-.1c.2 0 .4.1.5.5.2.2 0 .4-.1.6-.3.4-.6.8.1 1.6 0 .1.2.7-.3.9 0 0-.5.2-1-1 0-.1-.1-.2-.1-.3-.5-.6-.4-1.3-.1-1.7z"/><path d="m5.8 2.6c.1 0 .1.1.1.1 0 .1 0 .1-.1.1 0 0-.1-.1-.1-.1 0-.1.1-.1.1-.1z"/><path d="m4.1 5.8c-.8-.3-.4-1.1-.4-1.1.1-.1.2-.2.3-.4 0 0 0-.1.1-.2h.2c0 .1-.1.2-.1.3-.2.1-.3.3-.4.4 0 .1-.2.7.3.9 0 0 .5.2 1-1 0-.1.1-.1.1-.2.4-.6.3-1.3 0-1.7 0-.3-.2-.5-.4-.6-.1-.1-.3-.1-.5-.1s-.3.1-.4.2l-.3.2c.1-.4.4-.6.7-.6.2 0 .4 0 .6.2.2.1.4.3.5.5.3.5.4 1.2 0 1.9-.1.1-.1.1-.2.2-.5 1.4-1.1 1.1-1.1 1.1z"/><path d="m3.4 2.7.2-.1.1.1-.1.1v1.2h.5v.1.1h-.6s-.1 0-.1-.1z"/><path d="m2 2.2c-.2.1-.3.3-.5.5-.3.5-.4 1.1 0 1.7.1.1.1.1.1.2.5 1.2 1 1 1 1 .6-.1.5-.7.4-.8-.7-.8-.4-1.2-.1-1.6.1-.2.3-.4.2-.7s-.3-.4-.6-.4c-.1 0-.3 0-.5.1zm.8 3.6s-.7.3-1.2-1.1c0-.1-.1-.1-.1-.2-.5-.7-.4-1.4-.1-1.9.1-.2.3-.4.5-.5s.4-.2.6-.2c.3 0 .5.2.7.6v.2c0 .2-.1.4-.3.6-.1.3-.4.7.3 1.4s.3.8-.4 1.1z"/><path d="m1 2.6s.1.1.1.1c0 .1 0 .1-.1.1 0 0-.1-.1-.1-.1 0-.1.1-.1.1-.1z"/><path d="m0 0h6.8v6.8h-6.8z" fill="none"/><circle cx="3.9" cy="2.8" r=".1"/></svg>