<svg enable-background="new 0 0 64 80" viewBox="0 0 64 80" xmlns="http://www.w3.org/2000/svg"><path d="m60 44.3v29c0 .7-.5 1.2-1 1.2h-28c-.3 0-.5-.1-.7-.4-.2-.2-.3-.5-.3-.8v-6.1h-25c-.6 0-1-.5-1-1.2v-54.3s0 0 0-.1 0-.2 0-.3v-.1c.1-.1.1-.2.2-.3l7-8.5c.1-.1.2-.2.3-.2h.1c.2-.2.3-.2.3-.2h.1 35c.5 0 1 .5 1 1.2v36.9c.6-.4 1.3-.7 2-.7 1.2 0 2.3.7 3 1.7.7-1 1.8-1.7 3-1.7 2.2 0 4 2.2 4 4.9zm-2 27.7v-27.7c0-1.3-.9-2.4-2-2.4s-2 1.1-2 2.4v9.7h-2v-9.7c0-1.3-.9-2.4-2-2.4s-2 1.1-2 2.4v9.7h-2v-9.7c0-1.3-.9-2.4-2-2.4s-2 1.1-2 2.4v9.7h-2v-9.7-14.5c0-1.3-.9-2.4-2-2.4s-2 1.1-2 2.4v32.6h-2v-3.6l-2 1.8v11.4zm-12-31.9v-35.7h-33v7.2c0 .7-.4 1.2-1 1.2h-6v51.9h24v-4.8c0-.4.1-.7.4-1l3.6-3.3v-26c0-2.7 1.8-4.8 4-4.8s4 2.2 4 4.8v10.3c.6-.4 1.3-.7 2-.7s1.4.5 2 .9zm-35-29.7v-4.3l-3.6 4.3z"/><path d="m58 44.3v27.7h-26v-11.4l2-1.8v3.6h2v-32.6c0-1.3.9-2.4 2-2.4s2 1.1 2 2.4v14.5 9.7h2v-9.7c0-1.3.9-2.4 2-2.4s2 1.1 2 2.4v9.7h2v-9.7c0-1.3.9-2.4 2-2.4s2 1.1 2 2.4v9.7h2v-9.7c0-1.3.9-2.4 2-2.4s2 1 2 2.4z"/><path d="m9 16.5c-.6 0-1 .5-1 1.2v9.7c0 .7.4 1.2 1 1.2h8c.6 0 1-.5 1-1.2v-9.7c0-.7-.4-1.2-1-1.2z"/><path d="m17 32.2h-8c-.6 0-1 .5-1 1.2v9.7c0 .7.4 1.2 1 1.2h8c.6 0 1-.5 1-1.2v-9.7c0-.7-.4-1.2-1-1.2z"/><path d="m17 47.9h-8c-.6 0-1 .5-1 1.2v9.7c0 .6.4 1.2 1 1.2h8c.6 0 1-.5 1-1.2v-9.7c0-.7-.4-1.2-1-1.2z"/><path d="m20 21.3h12v2.4h-12z"/><path d="m20 37h12v2.4h-12z"/><path d="m20 52.7h4v2.4h-4z"/><path d="m26 52.7h2v2.4h-2z"/><path d="m30 52.7h2v2.4h-2z"/></svg>