<svg enable-background="new 0 0 60 75" viewBox="0 0 60 75" xmlns="http://www.w3.org/2000/svg"><path d="m7.8 59c-.5 0-.8.4-.8 1s.3 1 .8 1h3.1v4c0 .6.3 1 .8 1h40.6c.4 0 .8-.4.8-1v-58c0-.6-.3-1-.8-1h-40.7c-.4 0-.8.4-.8 1v4h-3c-.5 0-.8.4-.8 1s.3 1 .8 1h3.1v2h-3.1c-.5 0-.8.4-.8 1s.3 1 .8 1h3.1v2h-3.1c-.5 0-.8.4-.8 1s.3 1 .8 1h3.1v2h-3.1c-.5 0-.8.4-.8 1s.3 1 .8 1h3.1v2h-3.1c-.5 0-.8.4-.8 1s.3 1 .8 1h3.1v2h-3.1c-.5 0-.8.4-.8 1s.3 1 .8 1h3.1v2h-3.1c-.5 0-.8.4-.8 1s.3 1 .8 1h3.1v2h-3.1c-.5 0-.8.4-.8 1s.3 1 .8 1h3.1v2h-3.1c-.5 0-.8.4-.8 1s.3 1 .8 1h3.1v2h-3.1c-.5 0-.8.4-.8 1s.3 1 .8 1h3.1v2h-3.1c-.5 0-.8.4-.8 1s.3 1 .8 1h3.1v2h-3.1c-.5 0-.8.4-.8 1s.3 1 .8 1h3.1v2zm10.7-47c0-.6.3-1 .8-1h29.1c.4 0 .8.4.8 1v8c0 .6-.3 1-.8 1h-29.1c-.4 0-.8-.4-.8-1zm0 12c0-.6.3-1 .8-1h29.1c.4 0 .8.4.8 1v4c0 .6-.3 1-.8 1h-29.1c-.4 0-.8-.4-.8-1zm-6.1-13h3.1c.4 0 .8.4.8 1s-.3 1-.8 1h-3.1zm0 4h3.1c.4 0 .8.4.8 1s-.3 1-.8 1h-3.1zm0 4h3.1c.4 0 .8.4.8 1s-.3 1-.8 1h-3.1zm0 4h3.1c.4 0 .8.4.8 1s-.3 1-.8 1h-3.1zm0 4h3.1c.4 0 .8.4.8 1s-.3 1-.8 1h-3.1zm0 4h3.1c.4 0 .8.4.8 1s-.3 1-.8 1h-3.1zm0 4h3.1c.4 0 .8.4.8 1s-.3 1-.8 1h-3.1zm0 4h3.1c.4 0 .8.4.8 1s-.3 1-.8 1h-3.1zm0 4h3.1c.4 0 .8.4.8 1s-.3 1-.8 1h-3.1zm0 4h3.1c.4 0 .8.4.8 1s-.3 1-.8 1h-3.1zm0 4h3.1c.4 0 .8.4.8 1s-.3 1-.8 1h-3.1zm0 4h3.1c.4 0 .8.4.8 1s-.3 1-.8 1h-3.1zm0 4h3.1c.4 0 .8.4.8 1s-.3 1-.8 1h-3.1z"/></svg>