<svg enable-background="new 0 0 100 103" viewBox="0 0 100 103" xmlns="http://www.w3.org/2000/svg"><path d="m40.3 17c-4.3 0-7.7 3.4-7.7 7.7s3.4 7.7 7.7 7.7 7.7-3.4 7.7-7.7-3.4-7.7-7.7-7.7z"/><path d="m28.7 31.2h-.2c-6.5 0-17.2 15.5-19.2 18.6-.2.2-.3.6-.3.9-.1 3.6 2.4 6.8 5.9 7.5v22.1c-.1 4.1 3.1 7.6 7.3 7.7h.4c1.8 0 6.5-1.4 6.5-7.7v-29.3c1.1-3.2 2.7-6.1 4.7-8.8 1.6-2.1 1.9-4.9.8-7.2s-3.4-3.8-5.9-3.8z"/><path d="m69.4 24.7c0-4.3-3.4-7.7-7.7-7.7s-7.7 3.4-7.7 7.7c0 4.2 3.4 7.7 7.7 7.7 4.2 0 7.7-3.5 7.7-7.7z"/><path d="m92.8 49.7c-2.1-3.1-12.7-18.6-19.3-18.6h-.2c-2.5 0-4.8 1.5-5.9 3.8s-.8 5.1.8 7.2c2.1 2.6 3.7 5.6 4.7 8.8v29.4c0 6.3 4.7 7.7 6.5 7.7 4.1.1 7.6-3.1 7.7-7.3 0-.1 0-.3 0-.4v-22.1c3.5-.8 6-3.9 5.9-7.5 0-.3-.1-.7-.2-1z"/></svg>