<svg enable-background="new 0 0 100 125" viewBox="0 0 100 125" xmlns="http://www.w3.org/2000/svg"><path d="m50 957.4c-1.7 0-3.1 1.2-3.1 2.7 0 1.1.8 2.1 2 2.5-1 2.8-2.6 6.2-4.7 6.5-1.6.2-3-1-4-2.3.8-.5 1.3-1.3 1.3-2.2 0-1.5-1.4-2.7-3.1-2.7s-3.1 1.2-3.1 2.7c0 1.1.8 2.1 2 2.5-1 2.8-2.6 6.2-4.7 6.5-1.6.2-3-1-4-2.3.8-.5 1.3-1.3 1.3-2.2 0-1.5-1.4-2.7-3.1-2.7s-3.1 1.2-3.1 2.7 1.4 2.7 3.1 2.7v10.4 25 25.3h45.5v-50.4-10.4c1.7 0 3.1-1.2 3.1-2.7s-1.4-2.7-3.1-2.7-3.1 1.2-3.1 2.7c0 .9.5 1.7 1.3 2.2-1 1.3-2.3 2.5-4 2.3-2.1-.3-3.7-3.7-4.7-6.5 1.2-.4 2-1.4 2-2.5 0-1.5-1.4-2.7-3.1-2.7s-3.1 1.2-3.1 2.7c0 .9.5 1.7 1.3 2.2-1 1.3-2.3 2.5-4 2.3-2.1-.3-3.7-3.7-4.7-6.5 1.2-.4 2-1.4 2-2.5.9-1.4-.5-2.6-2.2-2.6zm-11.4 20.5c1.7 0 3.1 1.2 3.1 2.7s-1.4 2.7-3.1 2.7-3.1-1.2-3.1-2.7c.1-1.5 1.4-2.7 3.1-2.7zm11.4 0c1.7 0 3.1 1.2 3.1 2.7s-1.4 2.7-3.1 2.7-3.1-1.2-3.1-2.7 1.4-2.7 3.1-2.7zm11.4 0c1.7 0 3.1 1.2 3.1 2.7s-1.4 2.7-3.1 2.7-3.1-1.2-3.1-2.7 1.4-2.7 3.1-2.7zm-47.7 43.8c-2.6 0-5 .9-6.8 2.5-2.8 2.5-3.6 6.2-2.1 9.4 1.3 2.8 4.2 4.7 7.5 5.2v6.3 12.4 14.8h11.2v-14.8-12.4-14.8c0-3.5-2.4-6.6-6-7.9-1.2-.5-2.5-.7-3.8-.7zm72.6 0c-1.3 0-2.6.2-3.8.7-3.6 1.3-6 4.5-6 7.9v14.8 12.4 14.8h11.2v-14.8-12.4-6.3c3.4-.4 6.2-2.4 7.5-5.2 1.5-3.2.7-6.9-2.1-9.4-1.8-1.6-4.2-2.5-6.8-2.5zm-53.7 14.1c-4.1 0-5.3 2.9-5.3 6.6h45.5c0-3.6-1.7-6.6-5.9-6.6zm-5.4 9.9v26.5h45.5v-26.5z" transform="translate(0 -952.36216)"/></svg>