<svg enable-background="new 0 0 32 40" viewBox="0 0 32 40" xmlns="http://www.w3.org/2000/svg"><g fill="#010101"><path d="m12.1 15.8c-.3 0-.5-.2-.6-.3-.2-.2-2.4-3.7-2.4-6.9 0-3.4 1.6-3.7 1.9-3.7s.6.1.7.4c.1.2.1.6 0 .7s-.1.2-.1.4c0 .9 2.5 3.4 4.8 5.4.2.2.3.5.2.7-.1.3-.2.5-.5.5-.4.2-2.2 1.5-3.7 2.6 0 .1-.2.2-.3.2zm-1.5-8.1c0 .3-.1.6-.1.9 0 2 1.1 4.3 1.7 5.4.8-.7 1.8-1.3 2.5-1.8-1.2-1-3.3-2.9-4.1-4.5z"/><path d="m19.9 15.8c-.2 0-.3-.1-.5-.2-1.5-1.1-3.4-2.5-3.7-2.6s-.5-.3-.5-.5 0-.5.2-.7c0 0 0 0 .1-.1 2.4-2 4.8-4.5 4.8-5.4 0-.2 0-.3-.1-.4-.2-.2-.2-.6 0-.7.2-.3.4-.4.7-.4s1.9.4 1.9 3.7c0 3.2-2.2 6.6-2.3 6.8-.1.3-.3.4-.6.5.1 0 .1 0 0 0zm-2.7-3.5c.7.5 1.7 1.1 2.5 1.8.7-1.1 1.7-3.4 1.7-5.4 0-.4 0-.7-.1-.9-.7 1.5-2.8 3.4-4.1 4.5z"/><path d="m14.1 33.9h-3.3c-.3 0-.6-.2-.7-.5l-3.5-10.5c-.1-.2 0-.4.1-.6l1.6-2.6-3.1-1.4c-.2-.1-.4-.3-.4-.5-.1-.2-.1-.4 0-.6l4.4-9c.2-.2.5-.4.7-.3.3.1.6.4.6.7 0 2.7 2 6.1 2.1 6.1.1.1.1.2.1.3l2 18.1c0 .2 0 .4-.2.6 0 .1-.2.2-.4.2zm-2.8-1.4h2l-2-17.1c-.2-.6-1.4-2.4-1.8-4.4l-3.1 6.3 3.2 1.4c.2.1.3.3.4.5s0 .4-.1.6l-1.9 3z"/><path d="m21.1 33.9h-3.3c-.2 0-.4-.1-.6-.3-.1-.2-.2-.4-.2-.6l2-18.1c0-.1.1-.2.1-.3 0 0 2.1-3.4 2.1-6.1.2-.1.4-.5.8-.5.3-.1.7.1.7.4l4.4 9c.1.2.1.4 0 .6s-.2.3-.4.4l-3.1 1.4 1.6 2.6c.1.2.1.4.1.6l-3.6 10.5c0 .2-.3.4-.6.4zm-2.5-1.4h2l3.4-9.8-1.9-3c-.1-.2-.1-.4-.1-.6.1-.2.2-.4.4-.5l3.2-1.4-3.1-6.2c-.6 2-1.6 3.8-1.9 4.4z"/><path d="m16.9 16.4h-1.9c-.3 0-.5-.2-.7-.4l-1-2c-.2-.3-.1-.7.2-.9 1.7-1.2 2-1.4 2.3-1.4h.3c.3.1.7.2 2.3 1.4.3.2.4.6.2.9l-1 2c-.1.3-.4.4-.7.4zm-1.5-1.4h1.1l.6-1.1c-.7-.5-.9-.7-1.1-.7-.2.1-.6.3-1.1.7z"/><path d="m17.9 33.9h-3.7c-.4 0-.7-.3-.7-.7l-.7-5.9c0-.1 0-.1 0-.2l1.6-11.6c0-.4.4-.6.7-.6h2c.4 0 .7.3.7.6l1.6 11.6v.2l-.7 5.9c-.2.4-.5.7-.8.7zm-3.1-1.4h2.5l.6-5.2-1.5-10.9h-.7l-1.5 10.9z"/><path d="m16 13c-.2 0-.3-.1-.5-.2-.7-.6-4.6-3.8-5.3-5.8v-.1c0-.1-.1-.3-.1-.5s0-.4.1-.6c.1-.2.1-.3.2-.5.8-1.2 2.7-1.2 4.9-1.2h.7.7c2.1 0 4.1 0 4.8 1.2.1.1.2.3.2.5v.1c.1.2.1.4.1.6s0 .5-.1.7c-.7 2-4.5 5.1-5.2 5.8-.2 0-.3 0-.5 0zm-1.3-7.5c-1.4 0-2.8.1-3.1.6 0 0 0 .1-.1.1v.3.2c.5 1.2 2.8 3.4 4.5 4.8 1.6-1.3 3.9-3.5 4.4-4.8.1-.2.1-.3.1-.3 0-.1 0-.2 0-.2 0-.1 0-.1-.1-.2-.4-.6-2.1-.6-3.6-.6h-.7-.7c-.2.1-.5.1-.7.1z"/><path d="m8 22.7 1.9-3c.1-.2.1-.4.1-.6-.1-.2-.2-.4-.4-.5l-3.2-1.4 4.1-8.4c0-.1.1-.2.1-.3s0-.3 0-.4c0-.4-.3-.7-.7-.7-.1 0-.3 0-.4.1l-8.1 4.1c-.2.1-.4.4-.4.7v20.9c0 .4.3.7.7.7h9c.2 0 .5-.1.6-.3s.2-.5.1-.7z"/><path d="m30.5 11.7-8-4.1c-.1-.1-.2-.1-.4-.1-.4 0-.7.4-.7.7v.4c0 .1 0 .2.1.3l4.1 8.4-3.2 1.4c-.2.1-.3.3-.4.5s0 .4.1.6l1.9 3-3.4 10.2c-.1.2 0 .5.1.7s.4.3.6.3h9c.4 0 .7-.3.7-.7v-20.9c-.1-.3-.3-.6-.5-.7z"/><path d="m20.4 14.5s-.9-.7-2-1.4c-.2-.1-.4-.2-.6-.1s-.4.2-.5.4l-1 2c-.1.1-.1.3-.1.4l1.6 11.6c.1.4.4.6.7.6.4 0 .7-.3.7-.7l1.5-12.1c0-.3-.1-.5-.3-.7z"/><path d="m14.6 13.3c-.1-.2-.3-.3-.5-.4s-.4 0-.6.1c-.9.7-2 1.4-2 1.4-.2.2-.3.4-.3.7l1.4 12.3c0 .4.4.7.7.7.4 0 .7-.3.7-.6l1.6-11.6c0-.2 0-.3-.1-.4z"/></g></svg>