<svg enable-background="new 0 0 100 125" viewBox="0 0 100 125" xmlns="http://www.w3.org/2000/svg"><path d="m54.9 60.5.1.1 9.9-13.6.8-1.1-1-.6 1.1-1.5c.7-.5 1.4-.8 2.2-1h.1l23-31.1v-.1c-.3-1.3-.2-2.7.1-4.1l.1-.5-.5.3c-1.2.8-2.6 1.3-4 1.6h-.1l-22.9 31.2v.1c.1.8 0 1.5-.2 2.3l-1.2 1.5-.9-.6-.8 1-10 13.5c-.4-.1-.8.1-1 .4l-.1.2c-.2.2-.2.5-.2.7 0 .1 0 .2.1.4l-37.2 52.7-.6.8.8.5-.4.6c-.4-.1-.8 0-1 .3l-.1.1c-.3.4-.2.9.2 1.1l2.3 1.5c.4.2.9.1 1.2-.2l.1-.1c.2-.4.1-.8-.2-1l.4-.6.9.6.6-.8 37.3-52.8c.1 0 .2 0 .4-.1.3-.1.5-.2.6-.4v-.1c.2-.2.2-.5.2-.7 0-.3 0-.4-.1-.5zm-40.2 56.2-.1.2c-.2.3-.6.4-.9.2l-2.3-1.5c-.3-.2-.4-.6-.2-.9l.1-.1c.2-.3.6-.4.9-.2l2.3 1.5c.3.1.4.5.2.8zm1.2-1.2-.9-.5-.6.6-2-1.3-.2-.1.5-.7-.7-.5.4-.5 4 2.5zm48.3-75.4 22.8-31c1.3-.3 2.5-.7 3.7-1.4-.2 1.2-.2 2.5 0 3.7l-22.8 31c-.8.2-1.6.6-2.3 1.1l-1.1 1.5-1.6-1 1.1-1.5c.2-.8.3-1.6.2-2.4zm-2.8 3.4.8.5 2.4 1.5.1-.1.9.5-.6.9-4.1-2.6zm-11.4 16.2c-.4-.2-.5-.7-.2-1l.1-.2c.3-.4.8-.5 1.1-.2l3.5 2.2c.4.2.5.7.2 1l-.2.2c-.1.2-.3.3-.5.3"/><path d="m54.9 60.5.1.1 9.9-13.6.8-1.1-1-.6 1.1-1.5c.7-.5 1.4-.8 2.2-1h.1l23-31.1v-.1c-.3-1.3-.2-2.7.1-4.1l.1-.5-.5.3c-1.2.8-2.6 1.3-4 1.6h-.1l-22.9 31.2v.1c.1.8 0 1.5-.2 2.3l-1.2 1.5-.9-.6-.8 1-10 13.5c-.4-.1-.8.1-1 .4l-.1.2c-.2.2-.2.5-.2.7 0 .1 0 .2.1.4l-37.2 52.7-.6.8.8.5-.4.6c-.4-.1-.8 0-1 .3l-.1.1c-.3.4-.2.9.2 1.1l2.3 1.5c.4.2.9.1 1.2-.2l.1-.1c.2-.4.1-.8-.2-1l.4-.6.9.6.6-.8 37.3-52.8c.1 0 .2 0 .4-.1.3-.1.5-.2.6-.4v-.1c.2-.2.2-.5.2-.7 0-.3 0-.4-.1-.5zm-40.2 56.2-.1.2c-.2.3-.6.4-.9.2l-2.3-1.5c-.3-.2-.4-.6-.2-.9l.1-.1c.2-.3.6-.4.9-.2l2.3 1.5c.3.1.4.5.2.8zm1.2-1.2-.9-.5-.6.6-2-1.3-.2-.1.5-.7-.7-.5.4-.5 4 2.5zm48.3-75.4 22.8-31c1.3-.3 2.5-.7 3.7-1.4-.2 1.2-.2 2.5 0 3.7l-22.8 31c-.8.2-1.6.6-2.3 1.1l-1.1 1.5-1.6-1 1.1-1.5c.2-.8.3-1.6.2-2.4zm-2.8 3.4.8.5 2.4 1.5.1-.1.9.5-.6.9-4.1-2.6zm-11.4 16.2c-.4-.2-.5-.7-.2-1l.1-.2c.3-.4.8-.5 1.1-.2l3.5 2.2c.4.2.5.7.2 1l-.2.2c-.1.2-.3.3-.5.3" fill="none" stroke="#000" stroke-miterlimit="10" stroke-width="1.2991"/></svg>